%TF.GenerationSoftware,KiCad,Pcbnew,7.0.7*%
%TF.CreationDate,2025-07-21T04:58:23-04:00*%
%TF.ProjectId,Visual80-3,56697375-616c-4383-902d-332e6b696361,rev?*%
%TF.SameCoordinates,Original*%
%TF.FileFunction,Soldermask,Top*%
%TF.FilePolarity,Negative*%
%FSLAX46Y46*%
G04 Gerber Fmt 4.6, Leading zero omitted, Abs format (unit mm)*
G04 Created by KiCad (PCBNEW 7.0.7) date 2025-07-21 04:58:23*
%MOMM*%
%LPD*%
G01*
G04 APERTURE LIST*
G04 APERTURE END LIST*
G36*
X137333267Y-30596632D02*
G01*
X137349812Y-30607688D01*
X137360868Y-30624233D01*
X137364750Y-30643750D01*
X137364750Y-32866250D01*
X137360868Y-32885767D01*
X137349812Y-32902312D01*
X137333267Y-32913368D01*
X137313750Y-32917250D01*
X136372168Y-32917250D01*
X136343551Y-33134615D01*
X136459735Y-33165747D01*
X136520565Y-33177118D01*
X136561826Y-33193102D01*
X136599849Y-33203291D01*
X136657408Y-33230131D01*
X136720559Y-33254596D01*
X136753156Y-33274779D01*
X136783391Y-33288878D01*
X136840426Y-33328814D01*
X136902912Y-33367504D01*
X136926862Y-33389337D01*
X136949269Y-33405027D01*
X137002869Y-33458627D01*
X137061413Y-33511997D01*
X137077371Y-33533129D01*
X137092472Y-33548230D01*
X137139570Y-33615494D01*
X137190665Y-33683154D01*
X137199820Y-33701539D01*
X137208621Y-33714109D01*
X137246094Y-33794471D01*
X137286266Y-33875147D01*
X137290260Y-33889186D01*
X137294208Y-33897652D01*
X137319095Y-33990532D01*
X137344960Y-34081437D01*
X137345756Y-34090029D01*
X137346623Y-34093264D01*
X137356199Y-34202726D01*
X137364750Y-34295000D01*
X137356198Y-34387281D01*
X137346623Y-34496735D01*
X137345756Y-34499969D01*
X137344960Y-34508563D01*
X137319091Y-34599483D01*
X137294208Y-34692347D01*
X137290261Y-34700810D01*
X137286266Y-34714853D01*
X137246091Y-34795535D01*
X137208621Y-34875891D01*
X137199820Y-34888459D01*
X137190665Y-34906846D01*
X137139564Y-34974513D01*
X137092472Y-35041769D01*
X137077374Y-35056866D01*
X137061413Y-35078003D01*
X137002857Y-35131383D01*
X136949269Y-35184972D01*
X136926867Y-35200657D01*
X136902912Y-35222496D01*
X136840414Y-35261192D01*
X136783391Y-35301121D01*
X136753163Y-35315216D01*
X136720559Y-35335404D01*
X136657387Y-35359876D01*
X136599847Y-35386708D01*
X136561838Y-35396892D01*
X136520565Y-35412882D01*
X136459719Y-35424256D01*
X136404236Y-35439123D01*
X136359031Y-35443077D01*
X136309739Y-35452292D01*
X136274659Y-35452292D01*
X136274659Y-35677708D01*
X136309739Y-35677708D01*
X136359024Y-35686921D01*
X136404236Y-35690876D01*
X136459731Y-35705746D01*
X136520565Y-35717118D01*
X136561830Y-35733104D01*
X136599847Y-35743291D01*
X136657400Y-35770128D01*
X136720559Y-35794596D01*
X136753157Y-35814779D01*
X136783391Y-35828878D01*
X136840426Y-35868814D01*
X136902912Y-35907504D01*
X136926862Y-35929337D01*
X136949269Y-35945027D01*
X137002869Y-35998627D01*
X137061413Y-36051997D01*
X137077371Y-36073129D01*
X137092472Y-36088230D01*
X137139570Y-36155494D01*
X137190665Y-36223154D01*
X137199820Y-36241539D01*
X137208621Y-36254109D01*
X137246094Y-36334471D01*
X137286266Y-36415147D01*
X137290260Y-36429186D01*
X137294208Y-36437652D01*
X137319095Y-36530532D01*
X137344960Y-36621437D01*
X137345756Y-36630029D01*
X137346623Y-36633264D01*
X137356199Y-36742726D01*
X137364750Y-36835000D01*
X137356198Y-36927281D01*
X137346623Y-37036735D01*
X137345756Y-37039969D01*
X137344960Y-37048563D01*
X137319091Y-37139483D01*
X137294208Y-37232347D01*
X137290261Y-37240810D01*
X137286266Y-37254853D01*
X137246091Y-37335535D01*
X137208621Y-37415891D01*
X137199820Y-37428459D01*
X137190665Y-37446846D01*
X137139564Y-37514513D01*
X137092472Y-37581769D01*
X137077374Y-37596866D01*
X137061413Y-37618003D01*
X137002857Y-37671383D01*
X136949269Y-37724972D01*
X136926867Y-37740657D01*
X136902912Y-37762496D01*
X136840414Y-37801192D01*
X136783391Y-37841121D01*
X136753163Y-37855216D01*
X136720559Y-37875404D01*
X136657387Y-37899876D01*
X136599847Y-37926708D01*
X136561838Y-37936892D01*
X136520565Y-37952882D01*
X136459719Y-37964256D01*
X136404236Y-37979123D01*
X136359031Y-37983077D01*
X136309739Y-37992292D01*
X136274659Y-37992292D01*
X136274659Y-38217708D01*
X136309739Y-38217708D01*
X136359024Y-38226921D01*
X136404236Y-38230876D01*
X136459731Y-38245746D01*
X136520565Y-38257118D01*
X136561830Y-38273104D01*
X136599847Y-38283291D01*
X136657400Y-38310128D01*
X136720559Y-38334596D01*
X136753157Y-38354779D01*
X136783391Y-38368878D01*
X136840426Y-38408814D01*
X136902912Y-38447504D01*
X136926862Y-38469337D01*
X136949269Y-38485027D01*
X137002869Y-38538627D01*
X137061413Y-38591997D01*
X137077371Y-38613129D01*
X137092472Y-38628230D01*
X137139570Y-38695494D01*
X137190665Y-38763154D01*
X137199820Y-38781539D01*
X137208621Y-38794109D01*
X137246094Y-38874471D01*
X137286266Y-38955147D01*
X137290260Y-38969186D01*
X137294208Y-38977652D01*
X137319095Y-39070532D01*
X137344960Y-39161437D01*
X137345756Y-39170029D01*
X137346623Y-39173264D01*
X137356199Y-39282726D01*
X137364750Y-39375000D01*
X137356198Y-39467281D01*
X137346623Y-39576735D01*
X137345756Y-39579969D01*
X137344960Y-39588563D01*
X137319091Y-39679483D01*
X137294208Y-39772347D01*
X137290261Y-39780810D01*
X137286266Y-39794853D01*
X137246091Y-39875535D01*
X137208621Y-39955891D01*
X137199820Y-39968459D01*
X137190665Y-39986846D01*
X137139564Y-40054513D01*
X137092472Y-40121769D01*
X137077374Y-40136866D01*
X137061413Y-40158003D01*
X137002857Y-40211383D01*
X136949269Y-40264972D01*
X136926867Y-40280657D01*
X136902912Y-40302496D01*
X136840414Y-40341192D01*
X136783391Y-40381121D01*
X136753163Y-40395216D01*
X136720559Y-40415404D01*
X136657387Y-40439876D01*
X136599847Y-40466708D01*
X136561838Y-40476892D01*
X136520565Y-40492882D01*
X136459719Y-40504256D01*
X136404236Y-40519123D01*
X136359031Y-40523077D01*
X136309739Y-40532292D01*
X136274659Y-40532292D01*
X136274659Y-40757708D01*
X136309739Y-40757708D01*
X136359024Y-40766921D01*
X136404236Y-40770876D01*
X136459731Y-40785746D01*
X136520565Y-40797118D01*
X136561830Y-40813104D01*
X136599847Y-40823291D01*
X136657400Y-40850128D01*
X136720559Y-40874596D01*
X136753157Y-40894779D01*
X136783391Y-40908878D01*
X136840426Y-40948814D01*
X136902912Y-40987504D01*
X136926862Y-41009337D01*
X136949269Y-41025027D01*
X137002869Y-41078627D01*
X137061413Y-41131997D01*
X137077371Y-41153129D01*
X137092472Y-41168230D01*
X137139570Y-41235494D01*
X137190665Y-41303154D01*
X137199820Y-41321539D01*
X137208621Y-41334109D01*
X137246094Y-41414471D01*
X137286266Y-41495147D01*
X137290260Y-41509186D01*
X137294208Y-41517652D01*
X137319095Y-41610532D01*
X137344960Y-41701437D01*
X137345756Y-41710029D01*
X137346623Y-41713264D01*
X137356199Y-41822726D01*
X137364750Y-41915000D01*
X137356198Y-42007281D01*
X137346623Y-42116735D01*
X137345756Y-42119969D01*
X137344960Y-42128563D01*
X137319091Y-42219483D01*
X137294208Y-42312347D01*
X137290261Y-42320810D01*
X137286266Y-42334853D01*
X137246091Y-42415535D01*
X137208621Y-42495891D01*
X137199820Y-42508459D01*
X137190665Y-42526846D01*
X137139564Y-42594513D01*
X137092472Y-42661769D01*
X137077374Y-42676866D01*
X137061413Y-42698003D01*
X137002857Y-42751383D01*
X136949269Y-42804972D01*
X136926867Y-42820657D01*
X136902912Y-42842496D01*
X136840414Y-42881192D01*
X136783391Y-42921121D01*
X136753163Y-42935216D01*
X136720559Y-42955404D01*
X136657387Y-42979876D01*
X136599847Y-43006708D01*
X136561838Y-43016892D01*
X136520565Y-43032882D01*
X136459719Y-43044256D01*
X136404236Y-43059123D01*
X136359031Y-43063077D01*
X136309739Y-43072292D01*
X136274659Y-43072292D01*
X136274659Y-43297708D01*
X136309739Y-43297708D01*
X136359024Y-43306921D01*
X136404236Y-43310876D01*
X136459731Y-43325746D01*
X136520565Y-43337118D01*
X136561830Y-43353104D01*
X136599847Y-43363291D01*
X136657400Y-43390128D01*
X136720559Y-43414596D01*
X136753157Y-43434779D01*
X136783391Y-43448878D01*
X136840426Y-43488814D01*
X136902912Y-43527504D01*
X136926862Y-43549337D01*
X136949269Y-43565027D01*
X137002869Y-43618627D01*
X137061413Y-43671997D01*
X137077371Y-43693129D01*
X137092472Y-43708230D01*
X137139570Y-43775494D01*
X137190665Y-43843154D01*
X137199820Y-43861539D01*
X137208621Y-43874109D01*
X137246094Y-43954471D01*
X137286266Y-44035147D01*
X137290260Y-44049186D01*
X137294208Y-44057652D01*
X137319095Y-44150532D01*
X137344960Y-44241437D01*
X137345756Y-44250029D01*
X137346623Y-44253264D01*
X137356199Y-44362726D01*
X137364750Y-44455000D01*
X137356198Y-44547281D01*
X137346623Y-44656735D01*
X137345756Y-44659969D01*
X137344960Y-44668563D01*
X137319091Y-44759483D01*
X137294208Y-44852347D01*
X137290261Y-44860810D01*
X137286266Y-44874853D01*
X137246091Y-44955535D01*
X137208621Y-45035891D01*
X137199820Y-45048459D01*
X137190665Y-45066846D01*
X137139564Y-45134513D01*
X137092472Y-45201769D01*
X137077374Y-45216866D01*
X137061413Y-45238003D01*
X137002857Y-45291383D01*
X136949269Y-45344972D01*
X136926867Y-45360657D01*
X136902912Y-45382496D01*
X136840414Y-45421192D01*
X136783391Y-45461121D01*
X136753163Y-45475216D01*
X136720559Y-45495404D01*
X136657387Y-45519876D01*
X136599847Y-45546708D01*
X136561838Y-45556892D01*
X136520565Y-45572882D01*
X136459719Y-45584256D01*
X136404236Y-45599123D01*
X136359031Y-45603077D01*
X136309739Y-45612292D01*
X136274659Y-45612292D01*
X136274659Y-45837708D01*
X136309739Y-45837708D01*
X136359024Y-45846921D01*
X136404236Y-45850876D01*
X136459731Y-45865746D01*
X136520565Y-45877118D01*
X136561830Y-45893104D01*
X136599847Y-45903291D01*
X136657400Y-45930128D01*
X136720559Y-45954596D01*
X136753157Y-45974779D01*
X136783391Y-45988878D01*
X136840426Y-46028814D01*
X136902912Y-46067504D01*
X136926862Y-46089337D01*
X136949269Y-46105027D01*
X137002869Y-46158627D01*
X137061413Y-46211997D01*
X137077371Y-46233129D01*
X137092472Y-46248230D01*
X137139570Y-46315494D01*
X137190665Y-46383154D01*
X137199820Y-46401539D01*
X137208621Y-46414109D01*
X137246094Y-46494471D01*
X137286266Y-46575147D01*
X137290260Y-46589186D01*
X137294208Y-46597652D01*
X137319095Y-46690532D01*
X137344960Y-46781437D01*
X137345756Y-46790029D01*
X137346623Y-46793264D01*
X137356199Y-46902726D01*
X137364750Y-46995000D01*
X137356198Y-47087281D01*
X137346623Y-47196735D01*
X137345756Y-47199969D01*
X137344960Y-47208563D01*
X137319091Y-47299483D01*
X137294208Y-47392347D01*
X137290261Y-47400810D01*
X137286266Y-47414853D01*
X137246091Y-47495535D01*
X137208621Y-47575891D01*
X137199820Y-47588459D01*
X137190665Y-47606846D01*
X137139564Y-47674513D01*
X137092472Y-47741769D01*
X137077374Y-47756866D01*
X137061413Y-47778003D01*
X137002857Y-47831383D01*
X136949269Y-47884972D01*
X136926867Y-47900657D01*
X136902912Y-47922496D01*
X136840414Y-47961192D01*
X136783391Y-48001121D01*
X136753163Y-48015216D01*
X136720559Y-48035404D01*
X136657387Y-48059876D01*
X136599847Y-48086708D01*
X136561838Y-48096892D01*
X136520565Y-48112882D01*
X136459719Y-48124256D01*
X136404236Y-48139123D01*
X136359031Y-48143077D01*
X136309739Y-48152292D01*
X136274659Y-48152292D01*
X136274659Y-48377708D01*
X136309739Y-48377708D01*
X136359024Y-48386921D01*
X136404236Y-48390876D01*
X136459731Y-48405746D01*
X136520565Y-48417118D01*
X136561830Y-48433104D01*
X136599847Y-48443291D01*
X136657400Y-48470128D01*
X136720559Y-48494596D01*
X136753157Y-48514779D01*
X136783391Y-48528878D01*
X136840426Y-48568814D01*
X136902912Y-48607504D01*
X136926862Y-48629337D01*
X136949269Y-48645027D01*
X137002869Y-48698627D01*
X137061413Y-48751997D01*
X137077371Y-48773129D01*
X137092472Y-48788230D01*
X137139570Y-48855494D01*
X137190665Y-48923154D01*
X137199820Y-48941539D01*
X137208621Y-48954109D01*
X137246094Y-49034471D01*
X137286266Y-49115147D01*
X137290260Y-49129186D01*
X137294208Y-49137652D01*
X137319095Y-49230532D01*
X137344960Y-49321437D01*
X137345756Y-49330029D01*
X137346623Y-49333264D01*
X137356199Y-49442726D01*
X137364750Y-49535000D01*
X137356198Y-49627281D01*
X137346623Y-49736735D01*
X137345756Y-49739969D01*
X137344960Y-49748563D01*
X137319091Y-49839483D01*
X137294208Y-49932347D01*
X137290261Y-49940810D01*
X137286266Y-49954853D01*
X137246091Y-50035535D01*
X137208621Y-50115891D01*
X137199820Y-50128459D01*
X137190665Y-50146846D01*
X137139564Y-50214513D01*
X137092472Y-50281769D01*
X137077374Y-50296866D01*
X137061413Y-50318003D01*
X137002857Y-50371383D01*
X136949269Y-50424972D01*
X136926867Y-50440657D01*
X136902912Y-50462496D01*
X136840414Y-50501192D01*
X136783391Y-50541121D01*
X136753163Y-50555216D01*
X136720559Y-50575404D01*
X136657387Y-50599876D01*
X136599847Y-50626708D01*
X136561838Y-50636892D01*
X136520565Y-50652882D01*
X136459719Y-50664256D01*
X136404236Y-50679123D01*
X136359031Y-50683077D01*
X136309739Y-50692292D01*
X136274659Y-50692292D01*
X136274659Y-50917708D01*
X136309739Y-50917708D01*
X136359024Y-50926921D01*
X136404236Y-50930876D01*
X136459731Y-50945746D01*
X136520565Y-50957118D01*
X136561830Y-50973104D01*
X136599847Y-50983291D01*
X136657400Y-51010128D01*
X136720559Y-51034596D01*
X136753157Y-51054779D01*
X136783391Y-51068878D01*
X136840426Y-51108814D01*
X136902912Y-51147504D01*
X136926862Y-51169337D01*
X136949269Y-51185027D01*
X137002869Y-51238627D01*
X137061413Y-51291997D01*
X137077371Y-51313129D01*
X137092472Y-51328230D01*
X137139570Y-51395494D01*
X137190665Y-51463154D01*
X137199820Y-51481539D01*
X137208621Y-51494109D01*
X137246094Y-51574471D01*
X137286266Y-51655147D01*
X137290260Y-51669186D01*
X137294208Y-51677652D01*
X137319095Y-51770532D01*
X137344960Y-51861437D01*
X137345756Y-51870029D01*
X137346623Y-51873264D01*
X137356199Y-51982726D01*
X137364750Y-52075000D01*
X137356198Y-52167281D01*
X137346623Y-52276735D01*
X137345756Y-52279969D01*
X137344960Y-52288563D01*
X137319091Y-52379483D01*
X137294208Y-52472347D01*
X137290261Y-52480810D01*
X137286266Y-52494853D01*
X137246091Y-52575535D01*
X137208621Y-52655891D01*
X137199820Y-52668459D01*
X137190665Y-52686846D01*
X137139564Y-52754513D01*
X137092472Y-52821769D01*
X137077374Y-52836866D01*
X137061413Y-52858003D01*
X137002857Y-52911383D01*
X136949269Y-52964972D01*
X136926867Y-52980657D01*
X136902912Y-53002496D01*
X136840414Y-53041192D01*
X136783391Y-53081121D01*
X136753163Y-53095216D01*
X136720559Y-53115404D01*
X136657387Y-53139876D01*
X136599847Y-53166708D01*
X136561838Y-53176892D01*
X136520565Y-53192882D01*
X136459719Y-53204256D01*
X136404236Y-53219123D01*
X136359031Y-53223077D01*
X136309739Y-53232292D01*
X136274659Y-53232292D01*
X136274659Y-53457708D01*
X136309739Y-53457708D01*
X136359024Y-53466921D01*
X136404236Y-53470876D01*
X136459731Y-53485746D01*
X136520565Y-53497118D01*
X136561830Y-53513104D01*
X136599847Y-53523291D01*
X136657400Y-53550128D01*
X136720559Y-53574596D01*
X136753157Y-53594779D01*
X136783391Y-53608878D01*
X136840426Y-53648814D01*
X136902912Y-53687504D01*
X136926862Y-53709337D01*
X136949269Y-53725027D01*
X137002869Y-53778627D01*
X137061413Y-53831997D01*
X137077371Y-53853129D01*
X137092472Y-53868230D01*
X137139570Y-53935494D01*
X137190665Y-54003154D01*
X137199820Y-54021539D01*
X137208621Y-54034109D01*
X137246094Y-54114471D01*
X137286266Y-54195147D01*
X137290260Y-54209186D01*
X137294208Y-54217652D01*
X137319095Y-54310532D01*
X137344960Y-54401437D01*
X137345756Y-54410029D01*
X137346623Y-54413264D01*
X137356199Y-54522726D01*
X137364750Y-54615000D01*
X137356198Y-54707281D01*
X137346623Y-54816735D01*
X137345756Y-54819969D01*
X137344960Y-54828563D01*
X137319091Y-54919483D01*
X137294208Y-55012347D01*
X137290261Y-55020810D01*
X137286266Y-55034853D01*
X137246091Y-55115535D01*
X137208621Y-55195891D01*
X137199820Y-55208459D01*
X137190665Y-55226846D01*
X137139564Y-55294513D01*
X137092472Y-55361769D01*
X137077374Y-55376866D01*
X137061413Y-55398003D01*
X137002857Y-55451383D01*
X136949269Y-55504972D01*
X136926867Y-55520657D01*
X136902912Y-55542496D01*
X136840414Y-55581192D01*
X136783391Y-55621121D01*
X136753163Y-55635216D01*
X136720559Y-55655404D01*
X136657387Y-55679876D01*
X136599847Y-55706708D01*
X136561838Y-55716892D01*
X136520565Y-55732882D01*
X136459719Y-55744256D01*
X136404236Y-55759123D01*
X136359031Y-55763077D01*
X136309739Y-55772292D01*
X136274659Y-55772292D01*
X136274659Y-55997708D01*
X136309739Y-55997708D01*
X136359024Y-56006921D01*
X136404236Y-56010876D01*
X136459731Y-56025746D01*
X136520565Y-56037118D01*
X136561830Y-56053104D01*
X136599847Y-56063291D01*
X136657400Y-56090128D01*
X136720559Y-56114596D01*
X136753157Y-56134779D01*
X136783391Y-56148878D01*
X136840426Y-56188814D01*
X136902912Y-56227504D01*
X136926862Y-56249337D01*
X136949269Y-56265027D01*
X137002869Y-56318627D01*
X137061413Y-56371997D01*
X137077371Y-56393129D01*
X137092472Y-56408230D01*
X137139570Y-56475494D01*
X137190665Y-56543154D01*
X137199820Y-56561539D01*
X137208621Y-56574109D01*
X137246094Y-56654471D01*
X137286266Y-56735147D01*
X137290260Y-56749186D01*
X137294208Y-56757652D01*
X137319095Y-56850532D01*
X137344960Y-56941437D01*
X137345756Y-56950029D01*
X137346623Y-56953264D01*
X137356199Y-57062726D01*
X137364750Y-57155000D01*
X137356198Y-57247281D01*
X137346623Y-57356735D01*
X137345756Y-57359969D01*
X137344960Y-57368563D01*
X137319091Y-57459483D01*
X137294208Y-57552347D01*
X137290261Y-57560810D01*
X137286266Y-57574853D01*
X137246091Y-57655535D01*
X137208621Y-57735891D01*
X137199820Y-57748459D01*
X137190665Y-57766846D01*
X137139564Y-57834513D01*
X137092472Y-57901769D01*
X137077374Y-57916866D01*
X137061413Y-57938003D01*
X137002857Y-57991383D01*
X136949269Y-58044972D01*
X136926867Y-58060657D01*
X136902912Y-58082496D01*
X136840414Y-58121192D01*
X136783391Y-58161121D01*
X136753163Y-58175216D01*
X136720559Y-58195404D01*
X136657387Y-58219876D01*
X136599847Y-58246708D01*
X136561838Y-58256892D01*
X136520565Y-58272882D01*
X136459719Y-58284256D01*
X136404236Y-58299123D01*
X136359031Y-58303077D01*
X136309739Y-58312292D01*
X136274659Y-58312292D01*
X136274659Y-58537708D01*
X136309739Y-58537708D01*
X136359024Y-58546921D01*
X136404236Y-58550876D01*
X136459731Y-58565746D01*
X136520565Y-58577118D01*
X136561830Y-58593104D01*
X136599847Y-58603291D01*
X136657400Y-58630128D01*
X136720559Y-58654596D01*
X136753157Y-58674779D01*
X136783391Y-58688878D01*
X136840426Y-58728814D01*
X136902912Y-58767504D01*
X136926862Y-58789337D01*
X136949269Y-58805027D01*
X137002869Y-58858627D01*
X137061413Y-58911997D01*
X137077371Y-58933129D01*
X137092472Y-58948230D01*
X137139570Y-59015494D01*
X137190665Y-59083154D01*
X137199820Y-59101539D01*
X137208621Y-59114109D01*
X137246094Y-59194471D01*
X137286266Y-59275147D01*
X137290260Y-59289186D01*
X137294208Y-59297652D01*
X137319095Y-59390532D01*
X137344960Y-59481437D01*
X137345756Y-59490029D01*
X137346623Y-59493264D01*
X137356199Y-59602726D01*
X137364750Y-59695000D01*
X137356198Y-59787281D01*
X137346623Y-59896735D01*
X137345756Y-59899969D01*
X137344960Y-59908563D01*
X137319091Y-59999483D01*
X137294208Y-60092347D01*
X137290261Y-60100810D01*
X137286266Y-60114853D01*
X137246091Y-60195535D01*
X137208621Y-60275891D01*
X137199820Y-60288459D01*
X137190665Y-60306846D01*
X137139564Y-60374513D01*
X137092472Y-60441769D01*
X137077374Y-60456866D01*
X137061413Y-60478003D01*
X137002857Y-60531383D01*
X136949269Y-60584972D01*
X136926867Y-60600657D01*
X136902912Y-60622496D01*
X136840414Y-60661192D01*
X136783391Y-60701121D01*
X136753163Y-60715216D01*
X136720559Y-60735404D01*
X136657387Y-60759876D01*
X136599847Y-60786708D01*
X136561838Y-60796892D01*
X136520565Y-60812882D01*
X136459719Y-60824256D01*
X136404236Y-60839123D01*
X136359031Y-60843077D01*
X136309739Y-60852292D01*
X136274659Y-60852292D01*
X136274659Y-61077708D01*
X136309739Y-61077708D01*
X136359024Y-61086921D01*
X136404236Y-61090876D01*
X136459731Y-61105746D01*
X136520565Y-61117118D01*
X136561830Y-61133104D01*
X136599847Y-61143291D01*
X136657400Y-61170128D01*
X136720559Y-61194596D01*
X136753157Y-61214779D01*
X136783391Y-61228878D01*
X136840426Y-61268814D01*
X136902912Y-61307504D01*
X136926862Y-61329337D01*
X136949269Y-61345027D01*
X137002869Y-61398627D01*
X137061413Y-61451997D01*
X137077371Y-61473129D01*
X137092472Y-61488230D01*
X137139570Y-61555494D01*
X137190665Y-61623154D01*
X137199820Y-61641539D01*
X137208621Y-61654109D01*
X137246094Y-61734471D01*
X137286266Y-61815147D01*
X137290260Y-61829186D01*
X137294208Y-61837652D01*
X137319095Y-61930532D01*
X137344960Y-62021437D01*
X137345756Y-62030029D01*
X137346623Y-62033264D01*
X137356199Y-62142726D01*
X137364750Y-62235000D01*
X137356198Y-62327281D01*
X137346623Y-62436735D01*
X137345756Y-62439969D01*
X137344960Y-62448563D01*
X137319091Y-62539483D01*
X137294208Y-62632347D01*
X137290261Y-62640810D01*
X137286266Y-62654853D01*
X137246091Y-62735535D01*
X137208621Y-62815891D01*
X137199820Y-62828459D01*
X137190665Y-62846846D01*
X137139564Y-62914513D01*
X137092472Y-62981769D01*
X137077374Y-62996866D01*
X137061413Y-63018003D01*
X137002857Y-63071383D01*
X136949269Y-63124972D01*
X136926867Y-63140657D01*
X136902912Y-63162496D01*
X136840414Y-63201192D01*
X136783391Y-63241121D01*
X136753163Y-63255216D01*
X136720559Y-63275404D01*
X136657387Y-63299876D01*
X136599847Y-63326708D01*
X136561838Y-63336892D01*
X136520565Y-63352882D01*
X136459719Y-63364256D01*
X136404236Y-63379123D01*
X136359031Y-63383077D01*
X136309739Y-63392292D01*
X136274659Y-63392292D01*
X136274659Y-63617708D01*
X136309739Y-63617708D01*
X136359024Y-63626921D01*
X136404236Y-63630876D01*
X136459731Y-63645746D01*
X136520565Y-63657118D01*
X136561830Y-63673104D01*
X136599847Y-63683291D01*
X136657400Y-63710128D01*
X136720559Y-63734596D01*
X136753157Y-63754779D01*
X136783391Y-63768878D01*
X136840426Y-63808814D01*
X136902912Y-63847504D01*
X136926862Y-63869337D01*
X136949269Y-63885027D01*
X137002869Y-63938627D01*
X137061413Y-63991997D01*
X137077371Y-64013129D01*
X137092472Y-64028230D01*
X137139570Y-64095494D01*
X137190665Y-64163154D01*
X137199820Y-64181539D01*
X137208621Y-64194109D01*
X137246094Y-64274471D01*
X137286266Y-64355147D01*
X137290260Y-64369186D01*
X137294208Y-64377652D01*
X137319095Y-64470532D01*
X137344960Y-64561437D01*
X137345756Y-64570029D01*
X137346623Y-64573264D01*
X137356199Y-64682726D01*
X137364750Y-64775000D01*
X137356198Y-64867281D01*
X137346623Y-64976735D01*
X137345756Y-64979969D01*
X137344960Y-64988563D01*
X137319091Y-65079483D01*
X137294208Y-65172347D01*
X137290261Y-65180810D01*
X137286266Y-65194853D01*
X137246091Y-65275535D01*
X137208621Y-65355891D01*
X137199820Y-65368459D01*
X137190665Y-65386846D01*
X137139564Y-65454513D01*
X137092472Y-65521769D01*
X137077374Y-65536866D01*
X137061413Y-65558003D01*
X137002857Y-65611383D01*
X136949269Y-65664972D01*
X136926867Y-65680657D01*
X136902912Y-65702496D01*
X136840414Y-65741192D01*
X136783391Y-65781121D01*
X136753163Y-65795216D01*
X136720559Y-65815404D01*
X136657387Y-65839876D01*
X136599847Y-65866708D01*
X136561838Y-65876892D01*
X136520565Y-65892882D01*
X136459719Y-65904256D01*
X136404236Y-65919123D01*
X136359031Y-65923077D01*
X136309739Y-65932292D01*
X136274659Y-65932292D01*
X136274659Y-66157708D01*
X136309739Y-66157708D01*
X136359024Y-66166921D01*
X136404236Y-66170876D01*
X136459731Y-66185746D01*
X136520565Y-66197118D01*
X136561830Y-66213104D01*
X136599847Y-66223291D01*
X136657400Y-66250128D01*
X136720559Y-66274596D01*
X136753157Y-66294779D01*
X136783391Y-66308878D01*
X136840426Y-66348814D01*
X136902912Y-66387504D01*
X136926862Y-66409337D01*
X136949269Y-66425027D01*
X137002869Y-66478627D01*
X137061413Y-66531997D01*
X137077371Y-66553129D01*
X137092472Y-66568230D01*
X137139570Y-66635494D01*
X137190665Y-66703154D01*
X137199820Y-66721539D01*
X137208621Y-66734109D01*
X137246094Y-66814471D01*
X137286266Y-66895147D01*
X137290260Y-66909186D01*
X137294208Y-66917652D01*
X137319095Y-67010532D01*
X137344960Y-67101437D01*
X137345756Y-67110029D01*
X137346623Y-67113264D01*
X137356199Y-67222726D01*
X137364750Y-67315000D01*
X137356198Y-67407281D01*
X137346623Y-67516735D01*
X137345756Y-67519969D01*
X137344960Y-67528563D01*
X137319091Y-67619483D01*
X137294208Y-67712347D01*
X137290261Y-67720810D01*
X137286266Y-67734853D01*
X137246091Y-67815535D01*
X137208621Y-67895891D01*
X137199820Y-67908459D01*
X137190665Y-67926846D01*
X137139564Y-67994513D01*
X137092472Y-68061769D01*
X137077374Y-68076866D01*
X137061413Y-68098003D01*
X137002857Y-68151383D01*
X136949269Y-68204972D01*
X136926867Y-68220657D01*
X136902912Y-68242496D01*
X136840414Y-68281192D01*
X136783391Y-68321121D01*
X136753163Y-68335216D01*
X136720559Y-68355404D01*
X136657387Y-68379876D01*
X136599847Y-68406708D01*
X136561838Y-68416892D01*
X136520565Y-68432882D01*
X136459719Y-68444256D01*
X136404236Y-68459123D01*
X136359031Y-68463077D01*
X136309739Y-68472292D01*
X136274659Y-68472292D01*
X136274659Y-68697708D01*
X136309739Y-68697708D01*
X136359024Y-68706921D01*
X136404236Y-68710876D01*
X136459731Y-68725746D01*
X136520565Y-68737118D01*
X136561830Y-68753104D01*
X136599847Y-68763291D01*
X136657400Y-68790128D01*
X136720559Y-68814596D01*
X136753157Y-68834779D01*
X136783391Y-68848878D01*
X136840426Y-68888814D01*
X136902912Y-68927504D01*
X136926862Y-68949337D01*
X136949269Y-68965027D01*
X137002869Y-69018627D01*
X137061413Y-69071997D01*
X137077371Y-69093129D01*
X137092472Y-69108230D01*
X137139570Y-69175494D01*
X137190665Y-69243154D01*
X137199820Y-69261539D01*
X137208621Y-69274109D01*
X137246094Y-69354471D01*
X137286266Y-69435147D01*
X137290260Y-69449186D01*
X137294208Y-69457652D01*
X137319095Y-69550532D01*
X137344960Y-69641437D01*
X137345756Y-69650029D01*
X137346623Y-69653264D01*
X137356199Y-69762726D01*
X137364750Y-69855000D01*
X137356198Y-69947281D01*
X137346623Y-70056735D01*
X137345756Y-70059969D01*
X137344960Y-70068563D01*
X137319091Y-70159483D01*
X137294208Y-70252347D01*
X137290261Y-70260810D01*
X137286266Y-70274853D01*
X137246091Y-70355535D01*
X137208621Y-70435891D01*
X137199820Y-70448459D01*
X137190665Y-70466846D01*
X137139564Y-70534513D01*
X137092472Y-70601769D01*
X137077374Y-70616866D01*
X137061413Y-70638003D01*
X137002857Y-70691383D01*
X136949269Y-70744972D01*
X136926867Y-70760657D01*
X136902912Y-70782496D01*
X136840414Y-70821192D01*
X136783391Y-70861121D01*
X136753163Y-70875216D01*
X136720559Y-70895404D01*
X136657387Y-70919876D01*
X136599847Y-70946708D01*
X136561838Y-70956892D01*
X136520565Y-70972882D01*
X136459719Y-70984256D01*
X136404236Y-70999123D01*
X136359031Y-71003077D01*
X136309739Y-71012292D01*
X136274659Y-71012292D01*
X136274659Y-71237708D01*
X136309739Y-71237708D01*
X136359024Y-71246921D01*
X136404236Y-71250876D01*
X136459731Y-71265746D01*
X136520565Y-71277118D01*
X136561830Y-71293104D01*
X136599847Y-71303291D01*
X136657400Y-71330128D01*
X136720559Y-71354596D01*
X136753157Y-71374779D01*
X136783391Y-71388878D01*
X136840426Y-71428814D01*
X136902912Y-71467504D01*
X136926862Y-71489337D01*
X136949269Y-71505027D01*
X137002869Y-71558627D01*
X137061413Y-71611997D01*
X137077371Y-71633129D01*
X137092472Y-71648230D01*
X137139570Y-71715494D01*
X137190665Y-71783154D01*
X137199820Y-71801539D01*
X137208621Y-71814109D01*
X137246094Y-71894471D01*
X137286266Y-71975147D01*
X137290260Y-71989186D01*
X137294208Y-71997652D01*
X137319095Y-72090532D01*
X137344960Y-72181437D01*
X137345756Y-72190029D01*
X137346623Y-72193264D01*
X137356199Y-72302726D01*
X137364750Y-72395000D01*
X137356198Y-72487281D01*
X137346623Y-72596735D01*
X137345756Y-72599969D01*
X137344960Y-72608563D01*
X137319091Y-72699483D01*
X137294208Y-72792347D01*
X137290261Y-72800810D01*
X137286266Y-72814853D01*
X137246091Y-72895535D01*
X137208621Y-72975891D01*
X137199820Y-72988459D01*
X137190665Y-73006846D01*
X137139564Y-73074513D01*
X137092472Y-73141769D01*
X137077374Y-73156866D01*
X137061413Y-73178003D01*
X137002857Y-73231383D01*
X136949269Y-73284972D01*
X136926867Y-73300657D01*
X136902912Y-73322496D01*
X136840414Y-73361192D01*
X136783391Y-73401121D01*
X136753163Y-73415216D01*
X136720559Y-73435404D01*
X136657387Y-73459876D01*
X136599847Y-73486708D01*
X136561838Y-73496892D01*
X136520565Y-73512882D01*
X136459719Y-73524256D01*
X136404236Y-73539123D01*
X136359031Y-73543077D01*
X136309739Y-73552292D01*
X136274659Y-73552292D01*
X136274659Y-73777708D01*
X136309739Y-73777708D01*
X136359024Y-73786921D01*
X136404236Y-73790876D01*
X136459731Y-73805746D01*
X136520565Y-73817118D01*
X136561830Y-73833104D01*
X136599847Y-73843291D01*
X136657400Y-73870128D01*
X136720559Y-73894596D01*
X136753157Y-73914779D01*
X136783391Y-73928878D01*
X136840426Y-73968814D01*
X136902912Y-74007504D01*
X136926862Y-74029337D01*
X136949269Y-74045027D01*
X137002869Y-74098627D01*
X137061413Y-74151997D01*
X137077371Y-74173129D01*
X137092472Y-74188230D01*
X137139570Y-74255494D01*
X137190665Y-74323154D01*
X137199820Y-74341539D01*
X137208621Y-74354109D01*
X137246094Y-74434471D01*
X137286266Y-74515147D01*
X137290260Y-74529186D01*
X137294208Y-74537652D01*
X137319095Y-74630532D01*
X137344960Y-74721437D01*
X137345756Y-74730029D01*
X137346623Y-74733264D01*
X137356199Y-74842726D01*
X137364750Y-74935000D01*
X137356198Y-75027281D01*
X137346623Y-75136735D01*
X137345756Y-75139969D01*
X137344960Y-75148563D01*
X137319091Y-75239483D01*
X137294208Y-75332347D01*
X137290261Y-75340810D01*
X137286266Y-75354853D01*
X137246091Y-75435535D01*
X137208621Y-75515891D01*
X137199820Y-75528459D01*
X137190665Y-75546846D01*
X137139564Y-75614513D01*
X137092472Y-75681769D01*
X137077374Y-75696866D01*
X137061413Y-75718003D01*
X137002857Y-75771383D01*
X136949269Y-75824972D01*
X136926867Y-75840657D01*
X136902912Y-75862496D01*
X136840414Y-75901192D01*
X136783391Y-75941121D01*
X136753163Y-75955216D01*
X136720559Y-75975404D01*
X136657387Y-75999876D01*
X136599847Y-76026708D01*
X136561838Y-76036892D01*
X136520565Y-76052882D01*
X136459719Y-76064256D01*
X136404236Y-76079123D01*
X136359031Y-76083077D01*
X136309739Y-76092292D01*
X136274659Y-76092292D01*
X136274659Y-76317708D01*
X136309739Y-76317708D01*
X136359024Y-76326921D01*
X136404236Y-76330876D01*
X136459731Y-76345746D01*
X136520565Y-76357118D01*
X136561830Y-76373104D01*
X136599847Y-76383291D01*
X136657400Y-76410128D01*
X136720559Y-76434596D01*
X136753157Y-76454779D01*
X136783391Y-76468878D01*
X136840426Y-76508814D01*
X136902912Y-76547504D01*
X136926862Y-76569337D01*
X136949269Y-76585027D01*
X137002869Y-76638627D01*
X137061413Y-76691997D01*
X137077371Y-76713129D01*
X137092472Y-76728230D01*
X137139570Y-76795494D01*
X137190665Y-76863154D01*
X137199820Y-76881539D01*
X137208621Y-76894109D01*
X137246094Y-76974471D01*
X137286266Y-77055147D01*
X137290260Y-77069186D01*
X137294208Y-77077652D01*
X137319095Y-77170532D01*
X137344960Y-77261437D01*
X137345756Y-77270029D01*
X137346623Y-77273264D01*
X137356199Y-77382726D01*
X137364750Y-77475000D01*
X137356198Y-77567281D01*
X137346623Y-77676735D01*
X137345756Y-77679969D01*
X137344960Y-77688563D01*
X137319091Y-77779483D01*
X137294208Y-77872347D01*
X137290261Y-77880810D01*
X137286266Y-77894853D01*
X137246091Y-77975535D01*
X137208621Y-78055891D01*
X137199820Y-78068459D01*
X137190665Y-78086846D01*
X137139564Y-78154513D01*
X137092472Y-78221769D01*
X137077374Y-78236866D01*
X137061413Y-78258003D01*
X137002857Y-78311383D01*
X136949269Y-78364972D01*
X136926867Y-78380657D01*
X136902912Y-78402496D01*
X136840414Y-78441192D01*
X136783391Y-78481121D01*
X136753163Y-78495216D01*
X136720559Y-78515404D01*
X136657387Y-78539876D01*
X136599847Y-78566708D01*
X136561838Y-78576892D01*
X136520565Y-78592882D01*
X136459719Y-78604256D01*
X136404236Y-78619123D01*
X136359031Y-78623077D01*
X136309739Y-78632292D01*
X136274659Y-78632292D01*
X136274659Y-78857708D01*
X136309739Y-78857708D01*
X136359024Y-78866921D01*
X136404236Y-78870876D01*
X136459731Y-78885746D01*
X136520565Y-78897118D01*
X136561830Y-78913104D01*
X136599847Y-78923291D01*
X136657400Y-78950128D01*
X136720559Y-78974596D01*
X136753157Y-78994779D01*
X136783391Y-79008878D01*
X136840426Y-79048814D01*
X136902912Y-79087504D01*
X136926862Y-79109337D01*
X136949269Y-79125027D01*
X137002869Y-79178627D01*
X137061413Y-79231997D01*
X137077371Y-79253129D01*
X137092472Y-79268230D01*
X137139570Y-79335494D01*
X137190665Y-79403154D01*
X137199820Y-79421539D01*
X137208621Y-79434109D01*
X137246094Y-79514471D01*
X137286266Y-79595147D01*
X137290260Y-79609186D01*
X137294208Y-79617652D01*
X137319095Y-79710532D01*
X137344960Y-79801437D01*
X137345756Y-79810029D01*
X137346623Y-79813264D01*
X137356199Y-79922726D01*
X137364750Y-80015000D01*
X137356198Y-80107281D01*
X137346623Y-80216735D01*
X137345756Y-80219969D01*
X137344960Y-80228563D01*
X137319091Y-80319483D01*
X137294208Y-80412347D01*
X137290261Y-80420810D01*
X137286266Y-80434853D01*
X137246091Y-80515535D01*
X137208621Y-80595891D01*
X137199820Y-80608459D01*
X137190665Y-80626846D01*
X137139564Y-80694513D01*
X137092472Y-80761769D01*
X137077374Y-80776866D01*
X137061413Y-80798003D01*
X137002857Y-80851383D01*
X136949269Y-80904972D01*
X136926867Y-80920657D01*
X136902912Y-80942496D01*
X136840414Y-80981192D01*
X136783391Y-81021121D01*
X136753163Y-81035216D01*
X136720559Y-81055404D01*
X136657387Y-81079876D01*
X136599847Y-81106708D01*
X136561838Y-81116892D01*
X136520565Y-81132882D01*
X136459716Y-81144256D01*
X136404235Y-81159123D01*
X136359031Y-81163077D01*
X136309739Y-81172292D01*
X136253708Y-81172292D01*
X136202500Y-81176772D01*
X136151292Y-81172292D01*
X136095261Y-81172292D01*
X136045969Y-81163077D01*
X136000764Y-81159123D01*
X135945279Y-81144255D01*
X135884435Y-81132882D01*
X135843163Y-81116893D01*
X135805152Y-81106708D01*
X135747606Y-81079874D01*
X135684441Y-81055404D01*
X135651839Y-81035217D01*
X135621608Y-81021121D01*
X135564577Y-80981187D01*
X135502088Y-80942496D01*
X135478136Y-80920660D01*
X135455730Y-80904972D01*
X135402130Y-80851372D01*
X135343587Y-80798003D01*
X135327628Y-80776870D01*
X135312527Y-80761769D01*
X135265421Y-80694495D01*
X135214335Y-80626846D01*
X135205182Y-80608464D01*
X135196378Y-80595891D01*
X135158893Y-80515503D01*
X135118734Y-80434853D01*
X135114740Y-80420816D01*
X135110791Y-80412347D01*
X135085891Y-80319423D01*
X135060040Y-80228563D01*
X135059244Y-80219975D01*
X135058376Y-80216735D01*
X135048784Y-80107097D01*
X135040250Y-80015000D01*
X135048781Y-79922928D01*
X135058376Y-79813264D01*
X135059244Y-79810023D01*
X135060040Y-79801437D01*
X135085887Y-79710593D01*
X135110791Y-79617652D01*
X135114740Y-79609181D01*
X135118734Y-79595147D01*
X135158890Y-79514502D01*
X135196378Y-79434109D01*
X135205182Y-79421534D01*
X135214335Y-79403154D01*
X135265415Y-79335512D01*
X135312527Y-79268230D01*
X135327631Y-79253125D01*
X135343587Y-79231997D01*
X135402119Y-79178637D01*
X135455730Y-79125027D01*
X135478140Y-79109335D01*
X135502088Y-79087504D01*
X135564570Y-79048816D01*
X135621609Y-79008878D01*
X135651843Y-78994779D01*
X135684441Y-78974596D01*
X135747595Y-78950129D01*
X135805152Y-78923291D01*
X135843171Y-78913103D01*
X135884435Y-78897118D01*
X135945267Y-78885746D01*
X136000764Y-78870876D01*
X136045979Y-78866920D01*
X136095261Y-78857708D01*
X136130340Y-78857708D01*
X136130340Y-78632292D01*
X136095261Y-78632292D01*
X136045972Y-78623078D01*
X136000764Y-78619123D01*
X135945279Y-78604255D01*
X135884435Y-78592882D01*
X135843163Y-78576893D01*
X135805152Y-78566708D01*
X135747606Y-78539874D01*
X135684441Y-78515404D01*
X135651839Y-78495217D01*
X135621608Y-78481121D01*
X135564577Y-78441187D01*
X135502088Y-78402496D01*
X135478136Y-78380660D01*
X135455730Y-78364972D01*
X135402130Y-78311372D01*
X135343587Y-78258003D01*
X135327628Y-78236870D01*
X135312527Y-78221769D01*
X135265421Y-78154495D01*
X135214335Y-78086846D01*
X135205182Y-78068464D01*
X135196378Y-78055891D01*
X135158893Y-77975503D01*
X135118734Y-77894853D01*
X135114740Y-77880816D01*
X135110791Y-77872347D01*
X135085891Y-77779423D01*
X135060040Y-77688563D01*
X135059244Y-77679975D01*
X135058376Y-77676735D01*
X135048784Y-77567097D01*
X135040250Y-77475000D01*
X135048781Y-77382928D01*
X135058376Y-77273264D01*
X135059244Y-77270023D01*
X135060040Y-77261437D01*
X135085887Y-77170593D01*
X135110791Y-77077652D01*
X135114740Y-77069181D01*
X135118734Y-77055147D01*
X135158890Y-76974502D01*
X135196378Y-76894109D01*
X135205182Y-76881534D01*
X135214335Y-76863154D01*
X135265415Y-76795512D01*
X135312527Y-76728230D01*
X135327631Y-76713125D01*
X135343587Y-76691997D01*
X135402119Y-76638637D01*
X135455730Y-76585027D01*
X135478140Y-76569335D01*
X135502088Y-76547504D01*
X135564570Y-76508816D01*
X135621609Y-76468878D01*
X135651843Y-76454779D01*
X135684441Y-76434596D01*
X135747595Y-76410129D01*
X135805152Y-76383291D01*
X135843171Y-76373103D01*
X135884435Y-76357118D01*
X135945267Y-76345746D01*
X136000764Y-76330876D01*
X136045979Y-76326920D01*
X136095261Y-76317708D01*
X136130340Y-76317708D01*
X136130340Y-76092292D01*
X136095261Y-76092292D01*
X136045972Y-76083078D01*
X136000764Y-76079123D01*
X135945279Y-76064255D01*
X135884435Y-76052882D01*
X135843163Y-76036893D01*
X135805152Y-76026708D01*
X135747606Y-75999874D01*
X135684441Y-75975404D01*
X135651839Y-75955217D01*
X135621608Y-75941121D01*
X135564577Y-75901187D01*
X135502088Y-75862496D01*
X135478136Y-75840660D01*
X135455730Y-75824972D01*
X135402130Y-75771372D01*
X135343587Y-75718003D01*
X135327628Y-75696870D01*
X135312527Y-75681769D01*
X135265421Y-75614495D01*
X135214335Y-75546846D01*
X135205182Y-75528464D01*
X135196378Y-75515891D01*
X135158893Y-75435503D01*
X135118734Y-75354853D01*
X135114740Y-75340816D01*
X135110791Y-75332347D01*
X135085891Y-75239423D01*
X135060040Y-75148563D01*
X135059244Y-75139975D01*
X135058376Y-75136735D01*
X135048784Y-75027097D01*
X135040250Y-74935000D01*
X135048781Y-74842928D01*
X135058376Y-74733264D01*
X135059244Y-74730023D01*
X135060040Y-74721437D01*
X135085887Y-74630593D01*
X135110791Y-74537652D01*
X135114740Y-74529181D01*
X135118734Y-74515147D01*
X135158890Y-74434502D01*
X135196378Y-74354109D01*
X135205182Y-74341534D01*
X135214335Y-74323154D01*
X135265415Y-74255512D01*
X135312527Y-74188230D01*
X135327631Y-74173125D01*
X135343587Y-74151997D01*
X135402119Y-74098637D01*
X135455730Y-74045027D01*
X135478140Y-74029335D01*
X135502088Y-74007504D01*
X135564570Y-73968816D01*
X135621609Y-73928878D01*
X135651843Y-73914779D01*
X135684441Y-73894596D01*
X135747595Y-73870129D01*
X135805152Y-73843291D01*
X135843171Y-73833103D01*
X135884435Y-73817118D01*
X135945267Y-73805746D01*
X136000764Y-73790876D01*
X136045979Y-73786920D01*
X136095261Y-73777708D01*
X136130340Y-73777708D01*
X136130340Y-73552292D01*
X136095261Y-73552292D01*
X136045972Y-73543078D01*
X136000764Y-73539123D01*
X135945279Y-73524255D01*
X135884435Y-73512882D01*
X135843163Y-73496893D01*
X135805152Y-73486708D01*
X135747606Y-73459874D01*
X135684441Y-73435404D01*
X135651839Y-73415217D01*
X135621608Y-73401121D01*
X135564577Y-73361187D01*
X135502088Y-73322496D01*
X135478136Y-73300660D01*
X135455730Y-73284972D01*
X135402130Y-73231372D01*
X135343587Y-73178003D01*
X135327628Y-73156870D01*
X135312527Y-73141769D01*
X135265421Y-73074495D01*
X135214335Y-73006846D01*
X135205182Y-72988464D01*
X135196378Y-72975891D01*
X135158893Y-72895503D01*
X135118734Y-72814853D01*
X135114740Y-72800816D01*
X135110791Y-72792347D01*
X135085891Y-72699423D01*
X135060040Y-72608563D01*
X135059244Y-72599975D01*
X135058376Y-72596735D01*
X135048784Y-72487097D01*
X135040250Y-72395000D01*
X135048781Y-72302928D01*
X135058376Y-72193264D01*
X135059244Y-72190023D01*
X135060040Y-72181437D01*
X135085887Y-72090593D01*
X135110791Y-71997652D01*
X135114740Y-71989181D01*
X135118734Y-71975147D01*
X135158890Y-71894502D01*
X135196378Y-71814109D01*
X135205182Y-71801534D01*
X135214335Y-71783154D01*
X135265415Y-71715512D01*
X135312527Y-71648230D01*
X135327631Y-71633125D01*
X135343587Y-71611997D01*
X135402119Y-71558637D01*
X135455730Y-71505027D01*
X135478140Y-71489335D01*
X135502088Y-71467504D01*
X135564570Y-71428816D01*
X135621609Y-71388878D01*
X135651843Y-71374779D01*
X135684441Y-71354596D01*
X135747595Y-71330129D01*
X135805152Y-71303291D01*
X135843171Y-71293103D01*
X135884435Y-71277118D01*
X135945267Y-71265746D01*
X136000764Y-71250876D01*
X136045979Y-71246920D01*
X136095261Y-71237708D01*
X136130340Y-71237708D01*
X136130340Y-71012292D01*
X136095261Y-71012292D01*
X136045972Y-71003078D01*
X136000764Y-70999123D01*
X135945279Y-70984255D01*
X135884435Y-70972882D01*
X135843163Y-70956893D01*
X135805152Y-70946708D01*
X135747606Y-70919874D01*
X135684441Y-70895404D01*
X135651839Y-70875217D01*
X135621608Y-70861121D01*
X135564577Y-70821187D01*
X135502088Y-70782496D01*
X135478136Y-70760660D01*
X135455730Y-70744972D01*
X135402130Y-70691372D01*
X135343587Y-70638003D01*
X135327628Y-70616870D01*
X135312527Y-70601769D01*
X135265421Y-70534495D01*
X135214335Y-70466846D01*
X135205182Y-70448464D01*
X135196378Y-70435891D01*
X135158893Y-70355503D01*
X135118734Y-70274853D01*
X135114740Y-70260816D01*
X135110791Y-70252347D01*
X135085891Y-70159423D01*
X135060040Y-70068563D01*
X135059244Y-70059975D01*
X135058376Y-70056735D01*
X135048784Y-69947097D01*
X135040250Y-69855000D01*
X135048781Y-69762928D01*
X135058376Y-69653264D01*
X135059244Y-69650023D01*
X135060040Y-69641437D01*
X135085887Y-69550593D01*
X135110791Y-69457652D01*
X135114740Y-69449181D01*
X135118734Y-69435147D01*
X135158890Y-69354502D01*
X135196378Y-69274109D01*
X135205182Y-69261534D01*
X135214335Y-69243154D01*
X135265415Y-69175512D01*
X135312527Y-69108230D01*
X135327631Y-69093125D01*
X135343587Y-69071997D01*
X135402119Y-69018637D01*
X135455730Y-68965027D01*
X135478140Y-68949335D01*
X135502088Y-68927504D01*
X135564570Y-68888816D01*
X135621609Y-68848878D01*
X135651843Y-68834779D01*
X135684441Y-68814596D01*
X135747595Y-68790129D01*
X135805152Y-68763291D01*
X135843171Y-68753103D01*
X135884435Y-68737118D01*
X135945267Y-68725746D01*
X136000764Y-68710876D01*
X136045979Y-68706920D01*
X136095261Y-68697708D01*
X136130340Y-68697708D01*
X136130340Y-68472292D01*
X136095261Y-68472292D01*
X136045972Y-68463078D01*
X136000764Y-68459123D01*
X135945279Y-68444255D01*
X135884435Y-68432882D01*
X135843163Y-68416893D01*
X135805152Y-68406708D01*
X135747606Y-68379874D01*
X135684441Y-68355404D01*
X135651839Y-68335217D01*
X135621608Y-68321121D01*
X135564577Y-68281187D01*
X135502088Y-68242496D01*
X135478136Y-68220660D01*
X135455730Y-68204972D01*
X135402130Y-68151372D01*
X135343587Y-68098003D01*
X135327628Y-68076870D01*
X135312527Y-68061769D01*
X135265421Y-67994495D01*
X135214335Y-67926846D01*
X135205182Y-67908464D01*
X135196378Y-67895891D01*
X135158893Y-67815503D01*
X135118734Y-67734853D01*
X135114740Y-67720816D01*
X135110791Y-67712347D01*
X135085891Y-67619423D01*
X135060040Y-67528563D01*
X135059244Y-67519975D01*
X135058376Y-67516735D01*
X135048784Y-67407097D01*
X135040250Y-67315000D01*
X135048781Y-67222928D01*
X135058376Y-67113264D01*
X135059244Y-67110023D01*
X135060040Y-67101437D01*
X135085887Y-67010593D01*
X135110791Y-66917652D01*
X135114740Y-66909181D01*
X135118734Y-66895147D01*
X135158890Y-66814502D01*
X135196378Y-66734109D01*
X135205182Y-66721534D01*
X135214335Y-66703154D01*
X135265415Y-66635512D01*
X135312527Y-66568230D01*
X135327631Y-66553125D01*
X135343587Y-66531997D01*
X135402119Y-66478637D01*
X135455730Y-66425027D01*
X135478140Y-66409335D01*
X135502088Y-66387504D01*
X135564570Y-66348816D01*
X135621609Y-66308878D01*
X135651843Y-66294779D01*
X135684441Y-66274596D01*
X135747595Y-66250129D01*
X135805152Y-66223291D01*
X135843171Y-66213103D01*
X135884435Y-66197118D01*
X135945267Y-66185746D01*
X136000764Y-66170876D01*
X136045979Y-66166920D01*
X136095261Y-66157708D01*
X136130340Y-66157708D01*
X136130340Y-65932292D01*
X136095261Y-65932292D01*
X136045972Y-65923078D01*
X136000764Y-65919123D01*
X135945279Y-65904255D01*
X135884435Y-65892882D01*
X135843163Y-65876893D01*
X135805152Y-65866708D01*
X135747606Y-65839874D01*
X135684441Y-65815404D01*
X135651839Y-65795217D01*
X135621608Y-65781121D01*
X135564577Y-65741187D01*
X135502088Y-65702496D01*
X135478136Y-65680660D01*
X135455730Y-65664972D01*
X135402130Y-65611372D01*
X135343587Y-65558003D01*
X135327628Y-65536870D01*
X135312527Y-65521769D01*
X135265421Y-65454495D01*
X135214335Y-65386846D01*
X135205182Y-65368464D01*
X135196378Y-65355891D01*
X135158893Y-65275503D01*
X135118734Y-65194853D01*
X135114740Y-65180816D01*
X135110791Y-65172347D01*
X135085891Y-65079423D01*
X135060040Y-64988563D01*
X135059244Y-64979975D01*
X135058376Y-64976735D01*
X135048784Y-64867097D01*
X135040250Y-64775000D01*
X135048781Y-64682928D01*
X135058376Y-64573264D01*
X135059244Y-64570023D01*
X135060040Y-64561437D01*
X135085887Y-64470593D01*
X135110791Y-64377652D01*
X135114740Y-64369181D01*
X135118734Y-64355147D01*
X135158890Y-64274502D01*
X135196378Y-64194109D01*
X135205182Y-64181534D01*
X135214335Y-64163154D01*
X135265415Y-64095512D01*
X135312527Y-64028230D01*
X135327631Y-64013125D01*
X135343587Y-63991997D01*
X135402119Y-63938637D01*
X135455730Y-63885027D01*
X135478140Y-63869335D01*
X135502088Y-63847504D01*
X135564570Y-63808816D01*
X135621609Y-63768878D01*
X135651843Y-63754779D01*
X135684441Y-63734596D01*
X135747595Y-63710129D01*
X135805152Y-63683291D01*
X135843171Y-63673103D01*
X135884435Y-63657118D01*
X135945267Y-63645746D01*
X136000764Y-63630876D01*
X136045979Y-63626920D01*
X136095261Y-63617708D01*
X136130340Y-63617708D01*
X136130340Y-63392292D01*
X136095261Y-63392292D01*
X136045972Y-63383078D01*
X136000764Y-63379123D01*
X135945279Y-63364255D01*
X135884435Y-63352882D01*
X135843163Y-63336893D01*
X135805152Y-63326708D01*
X135747606Y-63299874D01*
X135684441Y-63275404D01*
X135651839Y-63255217D01*
X135621608Y-63241121D01*
X135564577Y-63201187D01*
X135502088Y-63162496D01*
X135478136Y-63140660D01*
X135455730Y-63124972D01*
X135402130Y-63071372D01*
X135343587Y-63018003D01*
X135327628Y-62996870D01*
X135312527Y-62981769D01*
X135265421Y-62914495D01*
X135214335Y-62846846D01*
X135205182Y-62828464D01*
X135196378Y-62815891D01*
X135158893Y-62735503D01*
X135118734Y-62654853D01*
X135114740Y-62640816D01*
X135110791Y-62632347D01*
X135085891Y-62539423D01*
X135060040Y-62448563D01*
X135059244Y-62439975D01*
X135058376Y-62436735D01*
X135048784Y-62327097D01*
X135040250Y-62235000D01*
X135048781Y-62142928D01*
X135058376Y-62033264D01*
X135059244Y-62030023D01*
X135060040Y-62021437D01*
X135085887Y-61930593D01*
X135110791Y-61837652D01*
X135114740Y-61829181D01*
X135118734Y-61815147D01*
X135158890Y-61734502D01*
X135196378Y-61654109D01*
X135205182Y-61641534D01*
X135214335Y-61623154D01*
X135265415Y-61555512D01*
X135312527Y-61488230D01*
X135327631Y-61473125D01*
X135343587Y-61451997D01*
X135402119Y-61398637D01*
X135455730Y-61345027D01*
X135478140Y-61329335D01*
X135502088Y-61307504D01*
X135564570Y-61268816D01*
X135621609Y-61228878D01*
X135651843Y-61214779D01*
X135684441Y-61194596D01*
X135747595Y-61170129D01*
X135805152Y-61143291D01*
X135843171Y-61133103D01*
X135884435Y-61117118D01*
X135945267Y-61105746D01*
X136000764Y-61090876D01*
X136045979Y-61086920D01*
X136095261Y-61077708D01*
X136130340Y-61077708D01*
X136130340Y-60852292D01*
X136095261Y-60852292D01*
X136045972Y-60843078D01*
X136000764Y-60839123D01*
X135945279Y-60824255D01*
X135884435Y-60812882D01*
X135843163Y-60796893D01*
X135805152Y-60786708D01*
X135747606Y-60759874D01*
X135684441Y-60735404D01*
X135651839Y-60715217D01*
X135621608Y-60701121D01*
X135564577Y-60661187D01*
X135502088Y-60622496D01*
X135478136Y-60600660D01*
X135455730Y-60584972D01*
X135402130Y-60531372D01*
X135343587Y-60478003D01*
X135327628Y-60456870D01*
X135312527Y-60441769D01*
X135265421Y-60374495D01*
X135214335Y-60306846D01*
X135205182Y-60288464D01*
X135196378Y-60275891D01*
X135158893Y-60195503D01*
X135118734Y-60114853D01*
X135114740Y-60100816D01*
X135110791Y-60092347D01*
X135085891Y-59999423D01*
X135060040Y-59908563D01*
X135059244Y-59899975D01*
X135058376Y-59896735D01*
X135048784Y-59787097D01*
X135040250Y-59695000D01*
X135048781Y-59602928D01*
X135058376Y-59493264D01*
X135059244Y-59490023D01*
X135060040Y-59481437D01*
X135085887Y-59390593D01*
X135110791Y-59297652D01*
X135114740Y-59289181D01*
X135118734Y-59275147D01*
X135158890Y-59194502D01*
X135196378Y-59114109D01*
X135205182Y-59101534D01*
X135214335Y-59083154D01*
X135265415Y-59015512D01*
X135312527Y-58948230D01*
X135327631Y-58933125D01*
X135343587Y-58911997D01*
X135402119Y-58858637D01*
X135455730Y-58805027D01*
X135478140Y-58789335D01*
X135502088Y-58767504D01*
X135564570Y-58728816D01*
X135621609Y-58688878D01*
X135651843Y-58674779D01*
X135684441Y-58654596D01*
X135747595Y-58630129D01*
X135805152Y-58603291D01*
X135843171Y-58593103D01*
X135884435Y-58577118D01*
X135945267Y-58565746D01*
X136000764Y-58550876D01*
X136045979Y-58546920D01*
X136095261Y-58537708D01*
X136130340Y-58537708D01*
X136130340Y-58312292D01*
X136095261Y-58312292D01*
X136045972Y-58303078D01*
X136000764Y-58299123D01*
X135945279Y-58284255D01*
X135884435Y-58272882D01*
X135843163Y-58256893D01*
X135805152Y-58246708D01*
X135747606Y-58219874D01*
X135684441Y-58195404D01*
X135651839Y-58175217D01*
X135621608Y-58161121D01*
X135564577Y-58121187D01*
X135502088Y-58082496D01*
X135478136Y-58060660D01*
X135455730Y-58044972D01*
X135402130Y-57991372D01*
X135343587Y-57938003D01*
X135327628Y-57916870D01*
X135312527Y-57901769D01*
X135265421Y-57834495D01*
X135214335Y-57766846D01*
X135205182Y-57748464D01*
X135196378Y-57735891D01*
X135158893Y-57655503D01*
X135118734Y-57574853D01*
X135114740Y-57560816D01*
X135110791Y-57552347D01*
X135085891Y-57459423D01*
X135060040Y-57368563D01*
X135059244Y-57359975D01*
X135058376Y-57356735D01*
X135048784Y-57247097D01*
X135040250Y-57155000D01*
X135048781Y-57062928D01*
X135058376Y-56953264D01*
X135059244Y-56950023D01*
X135060040Y-56941437D01*
X135085887Y-56850593D01*
X135110791Y-56757652D01*
X135114740Y-56749181D01*
X135118734Y-56735147D01*
X135158890Y-56654502D01*
X135196378Y-56574109D01*
X135205182Y-56561534D01*
X135214335Y-56543154D01*
X135265415Y-56475512D01*
X135312527Y-56408230D01*
X135327631Y-56393125D01*
X135343587Y-56371997D01*
X135402119Y-56318637D01*
X135455730Y-56265027D01*
X135478140Y-56249335D01*
X135502088Y-56227504D01*
X135564570Y-56188816D01*
X135621609Y-56148878D01*
X135651843Y-56134779D01*
X135684441Y-56114596D01*
X135747595Y-56090129D01*
X135805152Y-56063291D01*
X135843171Y-56053103D01*
X135884435Y-56037118D01*
X135945267Y-56025746D01*
X136000764Y-56010876D01*
X136045979Y-56006920D01*
X136095261Y-55997708D01*
X136130340Y-55997708D01*
X136130340Y-55772292D01*
X136095261Y-55772292D01*
X136045972Y-55763078D01*
X136000764Y-55759123D01*
X135945279Y-55744255D01*
X135884435Y-55732882D01*
X135843163Y-55716893D01*
X135805152Y-55706708D01*
X135747606Y-55679874D01*
X135684441Y-55655404D01*
X135651839Y-55635217D01*
X135621608Y-55621121D01*
X135564577Y-55581187D01*
X135502088Y-55542496D01*
X135478136Y-55520660D01*
X135455730Y-55504972D01*
X135402130Y-55451372D01*
X135343587Y-55398003D01*
X135327628Y-55376870D01*
X135312527Y-55361769D01*
X135265421Y-55294495D01*
X135214335Y-55226846D01*
X135205182Y-55208464D01*
X135196378Y-55195891D01*
X135158893Y-55115503D01*
X135118734Y-55034853D01*
X135114740Y-55020816D01*
X135110791Y-55012347D01*
X135085891Y-54919423D01*
X135060040Y-54828563D01*
X135059244Y-54819975D01*
X135058376Y-54816735D01*
X135048784Y-54707097D01*
X135040250Y-54615000D01*
X135048781Y-54522928D01*
X135058376Y-54413264D01*
X135059244Y-54410023D01*
X135060040Y-54401437D01*
X135085887Y-54310593D01*
X135110791Y-54217652D01*
X135114740Y-54209181D01*
X135118734Y-54195147D01*
X135158890Y-54114502D01*
X135196378Y-54034109D01*
X135205182Y-54021534D01*
X135214335Y-54003154D01*
X135265415Y-53935512D01*
X135312527Y-53868230D01*
X135327631Y-53853125D01*
X135343587Y-53831997D01*
X135402119Y-53778637D01*
X135455730Y-53725027D01*
X135478140Y-53709335D01*
X135502088Y-53687504D01*
X135564570Y-53648816D01*
X135621609Y-53608878D01*
X135651843Y-53594779D01*
X135684441Y-53574596D01*
X135747595Y-53550129D01*
X135805152Y-53523291D01*
X135843171Y-53513103D01*
X135884435Y-53497118D01*
X135945267Y-53485746D01*
X136000764Y-53470876D01*
X136045979Y-53466920D01*
X136095261Y-53457708D01*
X136130340Y-53457708D01*
X136130340Y-53232292D01*
X136095261Y-53232292D01*
X136045972Y-53223078D01*
X136000764Y-53219123D01*
X135945279Y-53204255D01*
X135884435Y-53192882D01*
X135843163Y-53176893D01*
X135805152Y-53166708D01*
X135747606Y-53139874D01*
X135684441Y-53115404D01*
X135651839Y-53095217D01*
X135621608Y-53081121D01*
X135564577Y-53041187D01*
X135502088Y-53002496D01*
X135478136Y-52980660D01*
X135455730Y-52964972D01*
X135402130Y-52911372D01*
X135343587Y-52858003D01*
X135327628Y-52836870D01*
X135312527Y-52821769D01*
X135265421Y-52754495D01*
X135214335Y-52686846D01*
X135205182Y-52668464D01*
X135196378Y-52655891D01*
X135158893Y-52575503D01*
X135118734Y-52494853D01*
X135114740Y-52480816D01*
X135110791Y-52472347D01*
X135085891Y-52379423D01*
X135060040Y-52288563D01*
X135059244Y-52279975D01*
X135058376Y-52276735D01*
X135048784Y-52167097D01*
X135040250Y-52075000D01*
X135048781Y-51982928D01*
X135058376Y-51873264D01*
X135059244Y-51870023D01*
X135060040Y-51861437D01*
X135085887Y-51770593D01*
X135110791Y-51677652D01*
X135114740Y-51669181D01*
X135118734Y-51655147D01*
X135158890Y-51574502D01*
X135196378Y-51494109D01*
X135205182Y-51481534D01*
X135214335Y-51463154D01*
X135265415Y-51395512D01*
X135312527Y-51328230D01*
X135327631Y-51313125D01*
X135343587Y-51291997D01*
X135402119Y-51238637D01*
X135455730Y-51185027D01*
X135478140Y-51169335D01*
X135502088Y-51147504D01*
X135564570Y-51108816D01*
X135621609Y-51068878D01*
X135651843Y-51054779D01*
X135684441Y-51034596D01*
X135747595Y-51010129D01*
X135805152Y-50983291D01*
X135843171Y-50973103D01*
X135884435Y-50957118D01*
X135945267Y-50945746D01*
X136000764Y-50930876D01*
X136045979Y-50926920D01*
X136095261Y-50917708D01*
X136130340Y-50917708D01*
X136130340Y-50692292D01*
X136095261Y-50692292D01*
X136045972Y-50683078D01*
X136000764Y-50679123D01*
X135945279Y-50664255D01*
X135884435Y-50652882D01*
X135843163Y-50636893D01*
X135805152Y-50626708D01*
X135747606Y-50599874D01*
X135684441Y-50575404D01*
X135651839Y-50555217D01*
X135621608Y-50541121D01*
X135564577Y-50501187D01*
X135502088Y-50462496D01*
X135478136Y-50440660D01*
X135455730Y-50424972D01*
X135402130Y-50371372D01*
X135343587Y-50318003D01*
X135327628Y-50296870D01*
X135312527Y-50281769D01*
X135265421Y-50214495D01*
X135214335Y-50146846D01*
X135205182Y-50128464D01*
X135196378Y-50115891D01*
X135158893Y-50035503D01*
X135118734Y-49954853D01*
X135114740Y-49940816D01*
X135110791Y-49932347D01*
X135085891Y-49839423D01*
X135060040Y-49748563D01*
X135059244Y-49739975D01*
X135058376Y-49736735D01*
X135048784Y-49627097D01*
X135040250Y-49535000D01*
X135048781Y-49442928D01*
X135058376Y-49333264D01*
X135059244Y-49330023D01*
X135060040Y-49321437D01*
X135085887Y-49230593D01*
X135110791Y-49137652D01*
X135114740Y-49129181D01*
X135118734Y-49115147D01*
X135158890Y-49034502D01*
X135196378Y-48954109D01*
X135205182Y-48941534D01*
X135214335Y-48923154D01*
X135265415Y-48855512D01*
X135312527Y-48788230D01*
X135327631Y-48773125D01*
X135343587Y-48751997D01*
X135402119Y-48698637D01*
X135455730Y-48645027D01*
X135478140Y-48629335D01*
X135502088Y-48607504D01*
X135564570Y-48568816D01*
X135621609Y-48528878D01*
X135651843Y-48514779D01*
X135684441Y-48494596D01*
X135747595Y-48470129D01*
X135805152Y-48443291D01*
X135843171Y-48433103D01*
X135884435Y-48417118D01*
X135945267Y-48405746D01*
X136000764Y-48390876D01*
X136045979Y-48386920D01*
X136095261Y-48377708D01*
X136130340Y-48377708D01*
X136130340Y-48152292D01*
X136095261Y-48152292D01*
X136045972Y-48143078D01*
X136000764Y-48139123D01*
X135945279Y-48124255D01*
X135884435Y-48112882D01*
X135843163Y-48096893D01*
X135805152Y-48086708D01*
X135747606Y-48059874D01*
X135684441Y-48035404D01*
X135651839Y-48015217D01*
X135621608Y-48001121D01*
X135564577Y-47961187D01*
X135502088Y-47922496D01*
X135478136Y-47900660D01*
X135455730Y-47884972D01*
X135402130Y-47831372D01*
X135343587Y-47778003D01*
X135327628Y-47756870D01*
X135312527Y-47741769D01*
X135265421Y-47674495D01*
X135214335Y-47606846D01*
X135205182Y-47588464D01*
X135196378Y-47575891D01*
X135158893Y-47495503D01*
X135118734Y-47414853D01*
X135114740Y-47400816D01*
X135110791Y-47392347D01*
X135085891Y-47299423D01*
X135060040Y-47208563D01*
X135059244Y-47199975D01*
X135058376Y-47196735D01*
X135048784Y-47087097D01*
X135040250Y-46995000D01*
X135048781Y-46902928D01*
X135058376Y-46793264D01*
X135059244Y-46790023D01*
X135060040Y-46781437D01*
X135085887Y-46690593D01*
X135110791Y-46597652D01*
X135114740Y-46589181D01*
X135118734Y-46575147D01*
X135158890Y-46494502D01*
X135196378Y-46414109D01*
X135205182Y-46401534D01*
X135214335Y-46383154D01*
X135265415Y-46315512D01*
X135312527Y-46248230D01*
X135327631Y-46233125D01*
X135343587Y-46211997D01*
X135402119Y-46158637D01*
X135455730Y-46105027D01*
X135478140Y-46089335D01*
X135502088Y-46067504D01*
X135564570Y-46028816D01*
X135621609Y-45988878D01*
X135651843Y-45974779D01*
X135684441Y-45954596D01*
X135747595Y-45930129D01*
X135805152Y-45903291D01*
X135843171Y-45893103D01*
X135884435Y-45877118D01*
X135945267Y-45865746D01*
X136000764Y-45850876D01*
X136045979Y-45846920D01*
X136095261Y-45837708D01*
X136130340Y-45837708D01*
X136130340Y-45612292D01*
X136095261Y-45612292D01*
X136045972Y-45603078D01*
X136000764Y-45599123D01*
X135945279Y-45584255D01*
X135884435Y-45572882D01*
X135843163Y-45556893D01*
X135805152Y-45546708D01*
X135747606Y-45519874D01*
X135684441Y-45495404D01*
X135651839Y-45475217D01*
X135621608Y-45461121D01*
X135564577Y-45421187D01*
X135502088Y-45382496D01*
X135478136Y-45360660D01*
X135455730Y-45344972D01*
X135402130Y-45291372D01*
X135343587Y-45238003D01*
X135327628Y-45216870D01*
X135312527Y-45201769D01*
X135265421Y-45134495D01*
X135214335Y-45066846D01*
X135205182Y-45048464D01*
X135196378Y-45035891D01*
X135158893Y-44955503D01*
X135118734Y-44874853D01*
X135114740Y-44860816D01*
X135110791Y-44852347D01*
X135085891Y-44759423D01*
X135060040Y-44668563D01*
X135059244Y-44659975D01*
X135058376Y-44656735D01*
X135048784Y-44547097D01*
X135040250Y-44455000D01*
X135048781Y-44362928D01*
X135058376Y-44253264D01*
X135059244Y-44250023D01*
X135060040Y-44241437D01*
X135085887Y-44150593D01*
X135110791Y-44057652D01*
X135114740Y-44049181D01*
X135118734Y-44035147D01*
X135158890Y-43954502D01*
X135196378Y-43874109D01*
X135205182Y-43861534D01*
X135214335Y-43843154D01*
X135265415Y-43775512D01*
X135312527Y-43708230D01*
X135327631Y-43693125D01*
X135343587Y-43671997D01*
X135402119Y-43618637D01*
X135455730Y-43565027D01*
X135478140Y-43549335D01*
X135502088Y-43527504D01*
X135564570Y-43488816D01*
X135621609Y-43448878D01*
X135651843Y-43434779D01*
X135684441Y-43414596D01*
X135747595Y-43390129D01*
X135805152Y-43363291D01*
X135843171Y-43353103D01*
X135884435Y-43337118D01*
X135945267Y-43325746D01*
X136000764Y-43310876D01*
X136045979Y-43306920D01*
X136095261Y-43297708D01*
X136130340Y-43297708D01*
X136130340Y-43072292D01*
X136095261Y-43072292D01*
X136045972Y-43063078D01*
X136000764Y-43059123D01*
X135945279Y-43044255D01*
X135884435Y-43032882D01*
X135843163Y-43016893D01*
X135805152Y-43006708D01*
X135747606Y-42979874D01*
X135684441Y-42955404D01*
X135651839Y-42935217D01*
X135621608Y-42921121D01*
X135564577Y-42881187D01*
X135502088Y-42842496D01*
X135478136Y-42820660D01*
X135455730Y-42804972D01*
X135402130Y-42751372D01*
X135343587Y-42698003D01*
X135327628Y-42676870D01*
X135312527Y-42661769D01*
X135265421Y-42594495D01*
X135214335Y-42526846D01*
X135205182Y-42508464D01*
X135196378Y-42495891D01*
X135158893Y-42415503D01*
X135118734Y-42334853D01*
X135114740Y-42320816D01*
X135110791Y-42312347D01*
X135085891Y-42219423D01*
X135060040Y-42128563D01*
X135059244Y-42119975D01*
X135058376Y-42116735D01*
X135048784Y-42007097D01*
X135040250Y-41915000D01*
X135048781Y-41822928D01*
X135058376Y-41713264D01*
X135059244Y-41710023D01*
X135060040Y-41701437D01*
X135085887Y-41610593D01*
X135110791Y-41517652D01*
X135114740Y-41509181D01*
X135118734Y-41495147D01*
X135158890Y-41414502D01*
X135196378Y-41334109D01*
X135205182Y-41321534D01*
X135214335Y-41303154D01*
X135265415Y-41235512D01*
X135312527Y-41168230D01*
X135327631Y-41153125D01*
X135343587Y-41131997D01*
X135402119Y-41078637D01*
X135455730Y-41025027D01*
X135478140Y-41009335D01*
X135502088Y-40987504D01*
X135564570Y-40948816D01*
X135621609Y-40908878D01*
X135651843Y-40894779D01*
X135684441Y-40874596D01*
X135747595Y-40850129D01*
X135805152Y-40823291D01*
X135843171Y-40813103D01*
X135884435Y-40797118D01*
X135945267Y-40785746D01*
X136000764Y-40770876D01*
X136045979Y-40766920D01*
X136095261Y-40757708D01*
X136130340Y-40757708D01*
X136130340Y-40532292D01*
X136095261Y-40532292D01*
X136045972Y-40523078D01*
X136000764Y-40519123D01*
X135945279Y-40504255D01*
X135884435Y-40492882D01*
X135843163Y-40476893D01*
X135805152Y-40466708D01*
X135747606Y-40439874D01*
X135684441Y-40415404D01*
X135651839Y-40395217D01*
X135621608Y-40381121D01*
X135564577Y-40341187D01*
X135502088Y-40302496D01*
X135478136Y-40280660D01*
X135455730Y-40264972D01*
X135402130Y-40211372D01*
X135343587Y-40158003D01*
X135327628Y-40136870D01*
X135312527Y-40121769D01*
X135265421Y-40054495D01*
X135214335Y-39986846D01*
X135205182Y-39968464D01*
X135196378Y-39955891D01*
X135158893Y-39875503D01*
X135118734Y-39794853D01*
X135114740Y-39780816D01*
X135110791Y-39772347D01*
X135085891Y-39679423D01*
X135060040Y-39588563D01*
X135059244Y-39579975D01*
X135058376Y-39576735D01*
X135048784Y-39467097D01*
X135040250Y-39375000D01*
X135048781Y-39282928D01*
X135058376Y-39173264D01*
X135059244Y-39170023D01*
X135060040Y-39161437D01*
X135085887Y-39070593D01*
X135110791Y-38977652D01*
X135114740Y-38969181D01*
X135118734Y-38955147D01*
X135158890Y-38874502D01*
X135196378Y-38794109D01*
X135205182Y-38781534D01*
X135214335Y-38763154D01*
X135265415Y-38695512D01*
X135312527Y-38628230D01*
X135327631Y-38613125D01*
X135343587Y-38591997D01*
X135402119Y-38538637D01*
X135455730Y-38485027D01*
X135478140Y-38469335D01*
X135502088Y-38447504D01*
X135564570Y-38408816D01*
X135621609Y-38368878D01*
X135651843Y-38354779D01*
X135684441Y-38334596D01*
X135747595Y-38310129D01*
X135805152Y-38283291D01*
X135843171Y-38273103D01*
X135884435Y-38257118D01*
X135945267Y-38245746D01*
X136000764Y-38230876D01*
X136045979Y-38226920D01*
X136095261Y-38217708D01*
X136130340Y-38217708D01*
X136130340Y-37992292D01*
X136095261Y-37992292D01*
X136045972Y-37983078D01*
X136000764Y-37979123D01*
X135945279Y-37964255D01*
X135884435Y-37952882D01*
X135843163Y-37936893D01*
X135805152Y-37926708D01*
X135747606Y-37899874D01*
X135684441Y-37875404D01*
X135651839Y-37855217D01*
X135621608Y-37841121D01*
X135564577Y-37801187D01*
X135502088Y-37762496D01*
X135478136Y-37740660D01*
X135455730Y-37724972D01*
X135402130Y-37671372D01*
X135343587Y-37618003D01*
X135327628Y-37596870D01*
X135312527Y-37581769D01*
X135265421Y-37514495D01*
X135214335Y-37446846D01*
X135205182Y-37428464D01*
X135196378Y-37415891D01*
X135158893Y-37335503D01*
X135118734Y-37254853D01*
X135114740Y-37240816D01*
X135110791Y-37232347D01*
X135085891Y-37139423D01*
X135060040Y-37048563D01*
X135059244Y-37039975D01*
X135058376Y-37036735D01*
X135048784Y-36927097D01*
X135040250Y-36835000D01*
X135048781Y-36742928D01*
X135058376Y-36633264D01*
X135059244Y-36630023D01*
X135060040Y-36621437D01*
X135085887Y-36530593D01*
X135110791Y-36437652D01*
X135114740Y-36429181D01*
X135118734Y-36415147D01*
X135158890Y-36334502D01*
X135196378Y-36254109D01*
X135205182Y-36241534D01*
X135214335Y-36223154D01*
X135265415Y-36155512D01*
X135312527Y-36088230D01*
X135327631Y-36073125D01*
X135343587Y-36051997D01*
X135402119Y-35998637D01*
X135455730Y-35945027D01*
X135478140Y-35929335D01*
X135502088Y-35907504D01*
X135564570Y-35868816D01*
X135621609Y-35828878D01*
X135651843Y-35814779D01*
X135684441Y-35794596D01*
X135747595Y-35770129D01*
X135805152Y-35743291D01*
X135843171Y-35733103D01*
X135884435Y-35717118D01*
X135945267Y-35705746D01*
X136000764Y-35690876D01*
X136045979Y-35686920D01*
X136095261Y-35677708D01*
X136130340Y-35677708D01*
X136130340Y-35452292D01*
X136095261Y-35452292D01*
X136045972Y-35443078D01*
X136000764Y-35439123D01*
X135945279Y-35424255D01*
X135884435Y-35412882D01*
X135843163Y-35396893D01*
X135805152Y-35386708D01*
X135747606Y-35359874D01*
X135684441Y-35335404D01*
X135651839Y-35315217D01*
X135621608Y-35301121D01*
X135564577Y-35261187D01*
X135502088Y-35222496D01*
X135478136Y-35200660D01*
X135455730Y-35184972D01*
X135402130Y-35131372D01*
X135343587Y-35078003D01*
X135327628Y-35056870D01*
X135312527Y-35041769D01*
X135265421Y-34974495D01*
X135214335Y-34906846D01*
X135205182Y-34888464D01*
X135196378Y-34875891D01*
X135158893Y-34795503D01*
X135118734Y-34714853D01*
X135114740Y-34700816D01*
X135110791Y-34692347D01*
X135085891Y-34599423D01*
X135060040Y-34508563D01*
X135059244Y-34499975D01*
X135058376Y-34496735D01*
X135048784Y-34387097D01*
X135040250Y-34295000D01*
X135048781Y-34202928D01*
X135058376Y-34093264D01*
X135059244Y-34090023D01*
X135060040Y-34081437D01*
X135085887Y-33990593D01*
X135110791Y-33897652D01*
X135114740Y-33889181D01*
X135118734Y-33875147D01*
X135158890Y-33794502D01*
X135196378Y-33714109D01*
X135205182Y-33701534D01*
X135214335Y-33683154D01*
X135265415Y-33615512D01*
X135312527Y-33548230D01*
X135327631Y-33533125D01*
X135343587Y-33511997D01*
X135402119Y-33458637D01*
X135455730Y-33405027D01*
X135478140Y-33389335D01*
X135502088Y-33367504D01*
X135564570Y-33328816D01*
X135621609Y-33288878D01*
X135651843Y-33274779D01*
X135684441Y-33254596D01*
X135747591Y-33230131D01*
X135805151Y-33203291D01*
X135843174Y-33193102D01*
X135884435Y-33177118D01*
X135945261Y-33165747D01*
X136061447Y-33134615D01*
X136032830Y-32917250D01*
X135091250Y-32917250D01*
X135071733Y-32913368D01*
X135055188Y-32902312D01*
X135044132Y-32885767D01*
X135040250Y-32866250D01*
X135040250Y-30643750D01*
X135044132Y-30624233D01*
X135055188Y-30607688D01*
X135071733Y-30596632D01*
X135091250Y-30592750D01*
X137313750Y-30592750D01*
X137333267Y-30596632D01*
G37*
G36*
X151493720Y-30597708D02*
G01*
X151549739Y-30597708D01*
X151599021Y-30606920D01*
X151644235Y-30610876D01*
X151699729Y-30625745D01*
X151760565Y-30637118D01*
X151801830Y-30653104D01*
X151839847Y-30663291D01*
X151897400Y-30690128D01*
X151960559Y-30714596D01*
X151993157Y-30734779D01*
X152023391Y-30748878D01*
X152080426Y-30788814D01*
X152142912Y-30827504D01*
X152166862Y-30849337D01*
X152189269Y-30865027D01*
X152242869Y-30918627D01*
X152301413Y-30971997D01*
X152317371Y-30993129D01*
X152332472Y-31008230D01*
X152379570Y-31075494D01*
X152430665Y-31143154D01*
X152439820Y-31161539D01*
X152448621Y-31174109D01*
X152486094Y-31254471D01*
X152526266Y-31335147D01*
X152530260Y-31349186D01*
X152534208Y-31357652D01*
X152559095Y-31450532D01*
X152584960Y-31541437D01*
X152585756Y-31550029D01*
X152586623Y-31553264D01*
X152596199Y-31662726D01*
X152604750Y-31755000D01*
X152596198Y-31847281D01*
X152586623Y-31956735D01*
X152585756Y-31959969D01*
X152584960Y-31968563D01*
X152559091Y-32059483D01*
X152534208Y-32152347D01*
X152530261Y-32160810D01*
X152526266Y-32174853D01*
X152486091Y-32255535D01*
X152448621Y-32335891D01*
X152439820Y-32348459D01*
X152430665Y-32366846D01*
X152379564Y-32434513D01*
X152332472Y-32501769D01*
X152317374Y-32516866D01*
X152301413Y-32538003D01*
X152242857Y-32591383D01*
X152189269Y-32644972D01*
X152166867Y-32660657D01*
X152142912Y-32682496D01*
X152080414Y-32721192D01*
X152023391Y-32761121D01*
X151993163Y-32775216D01*
X151960559Y-32795404D01*
X151897387Y-32819876D01*
X151839847Y-32846708D01*
X151801838Y-32856892D01*
X151760565Y-32872882D01*
X151699719Y-32884256D01*
X151644236Y-32899123D01*
X151599031Y-32903077D01*
X151549739Y-32912292D01*
X151514659Y-32912292D01*
X151514659Y-33137708D01*
X151549739Y-33137708D01*
X151599024Y-33146921D01*
X151644236Y-33150876D01*
X151699731Y-33165746D01*
X151760565Y-33177118D01*
X151801830Y-33193104D01*
X151839847Y-33203291D01*
X151897400Y-33230128D01*
X151960559Y-33254596D01*
X151993157Y-33274779D01*
X152023391Y-33288878D01*
X152080426Y-33328814D01*
X152142912Y-33367504D01*
X152166862Y-33389337D01*
X152189269Y-33405027D01*
X152242869Y-33458627D01*
X152301413Y-33511997D01*
X152317371Y-33533129D01*
X152332472Y-33548230D01*
X152379570Y-33615494D01*
X152430665Y-33683154D01*
X152439820Y-33701539D01*
X152448621Y-33714109D01*
X152486094Y-33794471D01*
X152526266Y-33875147D01*
X152530260Y-33889186D01*
X152534208Y-33897652D01*
X152559095Y-33990532D01*
X152584960Y-34081437D01*
X152585756Y-34090029D01*
X152586623Y-34093264D01*
X152596199Y-34202726D01*
X152604750Y-34295000D01*
X152596198Y-34387281D01*
X152586623Y-34496735D01*
X152585756Y-34499969D01*
X152584960Y-34508563D01*
X152559091Y-34599483D01*
X152534208Y-34692347D01*
X152530261Y-34700810D01*
X152526266Y-34714853D01*
X152486091Y-34795535D01*
X152448621Y-34875891D01*
X152439820Y-34888459D01*
X152430665Y-34906846D01*
X152379564Y-34974513D01*
X152332472Y-35041769D01*
X152317374Y-35056866D01*
X152301413Y-35078003D01*
X152242857Y-35131383D01*
X152189269Y-35184972D01*
X152166867Y-35200657D01*
X152142912Y-35222496D01*
X152080414Y-35261192D01*
X152023391Y-35301121D01*
X151993163Y-35315216D01*
X151960559Y-35335404D01*
X151897387Y-35359876D01*
X151839847Y-35386708D01*
X151801838Y-35396892D01*
X151760565Y-35412882D01*
X151699719Y-35424256D01*
X151644236Y-35439123D01*
X151599031Y-35443077D01*
X151549739Y-35452292D01*
X151514659Y-35452292D01*
X151514659Y-35677708D01*
X151549739Y-35677708D01*
X151599024Y-35686921D01*
X151644236Y-35690876D01*
X151699731Y-35705746D01*
X151760565Y-35717118D01*
X151801830Y-35733104D01*
X151839847Y-35743291D01*
X151897400Y-35770128D01*
X151960559Y-35794596D01*
X151993157Y-35814779D01*
X152023391Y-35828878D01*
X152080426Y-35868814D01*
X152142912Y-35907504D01*
X152166862Y-35929337D01*
X152189269Y-35945027D01*
X152242869Y-35998627D01*
X152301413Y-36051997D01*
X152317371Y-36073129D01*
X152332472Y-36088230D01*
X152379570Y-36155494D01*
X152430665Y-36223154D01*
X152439820Y-36241539D01*
X152448621Y-36254109D01*
X152486094Y-36334471D01*
X152526266Y-36415147D01*
X152530260Y-36429186D01*
X152534208Y-36437652D01*
X152559095Y-36530532D01*
X152584960Y-36621437D01*
X152585756Y-36630029D01*
X152586623Y-36633264D01*
X152596199Y-36742726D01*
X152604750Y-36835000D01*
X152596198Y-36927281D01*
X152586623Y-37036735D01*
X152585756Y-37039969D01*
X152584960Y-37048563D01*
X152559091Y-37139483D01*
X152534208Y-37232347D01*
X152530261Y-37240810D01*
X152526266Y-37254853D01*
X152486091Y-37335535D01*
X152448621Y-37415891D01*
X152439820Y-37428459D01*
X152430665Y-37446846D01*
X152379564Y-37514513D01*
X152332472Y-37581769D01*
X152317374Y-37596866D01*
X152301413Y-37618003D01*
X152242857Y-37671383D01*
X152189269Y-37724972D01*
X152166867Y-37740657D01*
X152142912Y-37762496D01*
X152080414Y-37801192D01*
X152023391Y-37841121D01*
X151993163Y-37855216D01*
X151960559Y-37875404D01*
X151897387Y-37899876D01*
X151839847Y-37926708D01*
X151801838Y-37936892D01*
X151760565Y-37952882D01*
X151699719Y-37964256D01*
X151644236Y-37979123D01*
X151599031Y-37983077D01*
X151549739Y-37992292D01*
X151514659Y-37992292D01*
X151514659Y-38217708D01*
X151549739Y-38217708D01*
X151599024Y-38226921D01*
X151644236Y-38230876D01*
X151699731Y-38245746D01*
X151760565Y-38257118D01*
X151801830Y-38273104D01*
X151839847Y-38283291D01*
X151897400Y-38310128D01*
X151960559Y-38334596D01*
X151993157Y-38354779D01*
X152023391Y-38368878D01*
X152080426Y-38408814D01*
X152142912Y-38447504D01*
X152166862Y-38469337D01*
X152189269Y-38485027D01*
X152242869Y-38538627D01*
X152301413Y-38591997D01*
X152317371Y-38613129D01*
X152332472Y-38628230D01*
X152379570Y-38695494D01*
X152430665Y-38763154D01*
X152439820Y-38781539D01*
X152448621Y-38794109D01*
X152486094Y-38874471D01*
X152526266Y-38955147D01*
X152530260Y-38969186D01*
X152534208Y-38977652D01*
X152559095Y-39070532D01*
X152584960Y-39161437D01*
X152585756Y-39170029D01*
X152586623Y-39173264D01*
X152596199Y-39282726D01*
X152604750Y-39375000D01*
X152596198Y-39467281D01*
X152586623Y-39576735D01*
X152585756Y-39579969D01*
X152584960Y-39588563D01*
X152559091Y-39679483D01*
X152534208Y-39772347D01*
X152530261Y-39780810D01*
X152526266Y-39794853D01*
X152486091Y-39875535D01*
X152448621Y-39955891D01*
X152439820Y-39968459D01*
X152430665Y-39986846D01*
X152379564Y-40054513D01*
X152332472Y-40121769D01*
X152317374Y-40136866D01*
X152301413Y-40158003D01*
X152242857Y-40211383D01*
X152189269Y-40264972D01*
X152166867Y-40280657D01*
X152142912Y-40302496D01*
X152080414Y-40341192D01*
X152023391Y-40381121D01*
X151993163Y-40395216D01*
X151960559Y-40415404D01*
X151897387Y-40439876D01*
X151839847Y-40466708D01*
X151801838Y-40476892D01*
X151760565Y-40492882D01*
X151699719Y-40504256D01*
X151644236Y-40519123D01*
X151599031Y-40523077D01*
X151549739Y-40532292D01*
X151514659Y-40532292D01*
X151514659Y-40757708D01*
X151549739Y-40757708D01*
X151599024Y-40766921D01*
X151644236Y-40770876D01*
X151699731Y-40785746D01*
X151760565Y-40797118D01*
X151801830Y-40813104D01*
X151839847Y-40823291D01*
X151897400Y-40850128D01*
X151960559Y-40874596D01*
X151993157Y-40894779D01*
X152023391Y-40908878D01*
X152080426Y-40948814D01*
X152142912Y-40987504D01*
X152166862Y-41009337D01*
X152189269Y-41025027D01*
X152242869Y-41078627D01*
X152301413Y-41131997D01*
X152317371Y-41153129D01*
X152332472Y-41168230D01*
X152379570Y-41235494D01*
X152430665Y-41303154D01*
X152439820Y-41321539D01*
X152448621Y-41334109D01*
X152486094Y-41414471D01*
X152526266Y-41495147D01*
X152530260Y-41509186D01*
X152534208Y-41517652D01*
X152559095Y-41610532D01*
X152584960Y-41701437D01*
X152585756Y-41710029D01*
X152586623Y-41713264D01*
X152596199Y-41822726D01*
X152604750Y-41915000D01*
X152596198Y-42007281D01*
X152586623Y-42116735D01*
X152585756Y-42119969D01*
X152584960Y-42128563D01*
X152559091Y-42219483D01*
X152534208Y-42312347D01*
X152530261Y-42320810D01*
X152526266Y-42334853D01*
X152486091Y-42415535D01*
X152448621Y-42495891D01*
X152439820Y-42508459D01*
X152430665Y-42526846D01*
X152379564Y-42594513D01*
X152332472Y-42661769D01*
X152317374Y-42676866D01*
X152301413Y-42698003D01*
X152242857Y-42751383D01*
X152189269Y-42804972D01*
X152166867Y-42820657D01*
X152142912Y-42842496D01*
X152080414Y-42881192D01*
X152023391Y-42921121D01*
X151993163Y-42935216D01*
X151960559Y-42955404D01*
X151897387Y-42979876D01*
X151839847Y-43006708D01*
X151801838Y-43016892D01*
X151760565Y-43032882D01*
X151699719Y-43044256D01*
X151644236Y-43059123D01*
X151599031Y-43063077D01*
X151549739Y-43072292D01*
X151514659Y-43072292D01*
X151514659Y-43297708D01*
X151549739Y-43297708D01*
X151599024Y-43306921D01*
X151644236Y-43310876D01*
X151699731Y-43325746D01*
X151760565Y-43337118D01*
X151801830Y-43353104D01*
X151839847Y-43363291D01*
X151897400Y-43390128D01*
X151960559Y-43414596D01*
X151993157Y-43434779D01*
X152023391Y-43448878D01*
X152080426Y-43488814D01*
X152142912Y-43527504D01*
X152166862Y-43549337D01*
X152189269Y-43565027D01*
X152242869Y-43618627D01*
X152301413Y-43671997D01*
X152317371Y-43693129D01*
X152332472Y-43708230D01*
X152379570Y-43775494D01*
X152430665Y-43843154D01*
X152439820Y-43861539D01*
X152448621Y-43874109D01*
X152486094Y-43954471D01*
X152526266Y-44035147D01*
X152530260Y-44049186D01*
X152534208Y-44057652D01*
X152559095Y-44150532D01*
X152584960Y-44241437D01*
X152585756Y-44250029D01*
X152586623Y-44253264D01*
X152596199Y-44362726D01*
X152604750Y-44455000D01*
X152596198Y-44547281D01*
X152586623Y-44656735D01*
X152585756Y-44659969D01*
X152584960Y-44668563D01*
X152559091Y-44759483D01*
X152534208Y-44852347D01*
X152530261Y-44860810D01*
X152526266Y-44874853D01*
X152486091Y-44955535D01*
X152448621Y-45035891D01*
X152439820Y-45048459D01*
X152430665Y-45066846D01*
X152379564Y-45134513D01*
X152332472Y-45201769D01*
X152317374Y-45216866D01*
X152301413Y-45238003D01*
X152242857Y-45291383D01*
X152189269Y-45344972D01*
X152166867Y-45360657D01*
X152142912Y-45382496D01*
X152080414Y-45421192D01*
X152023391Y-45461121D01*
X151993163Y-45475216D01*
X151960559Y-45495404D01*
X151897387Y-45519876D01*
X151839847Y-45546708D01*
X151801838Y-45556892D01*
X151760565Y-45572882D01*
X151699719Y-45584256D01*
X151644236Y-45599123D01*
X151599031Y-45603077D01*
X151549739Y-45612292D01*
X151514659Y-45612292D01*
X151514659Y-45837708D01*
X151549739Y-45837708D01*
X151599024Y-45846921D01*
X151644236Y-45850876D01*
X151699731Y-45865746D01*
X151760565Y-45877118D01*
X151801830Y-45893104D01*
X151839847Y-45903291D01*
X151897400Y-45930128D01*
X151960559Y-45954596D01*
X151993157Y-45974779D01*
X152023391Y-45988878D01*
X152080426Y-46028814D01*
X152142912Y-46067504D01*
X152166862Y-46089337D01*
X152189269Y-46105027D01*
X152242869Y-46158627D01*
X152301413Y-46211997D01*
X152317371Y-46233129D01*
X152332472Y-46248230D01*
X152379570Y-46315494D01*
X152430665Y-46383154D01*
X152439820Y-46401539D01*
X152448621Y-46414109D01*
X152486094Y-46494471D01*
X152526266Y-46575147D01*
X152530260Y-46589186D01*
X152534208Y-46597652D01*
X152559095Y-46690532D01*
X152584960Y-46781437D01*
X152585756Y-46790029D01*
X152586623Y-46793264D01*
X152596199Y-46902726D01*
X152604750Y-46995000D01*
X152596198Y-47087281D01*
X152586623Y-47196735D01*
X152585756Y-47199969D01*
X152584960Y-47208563D01*
X152559091Y-47299483D01*
X152534208Y-47392347D01*
X152530261Y-47400810D01*
X152526266Y-47414853D01*
X152486091Y-47495535D01*
X152448621Y-47575891D01*
X152439820Y-47588459D01*
X152430665Y-47606846D01*
X152379564Y-47674513D01*
X152332472Y-47741769D01*
X152317374Y-47756866D01*
X152301413Y-47778003D01*
X152242857Y-47831383D01*
X152189269Y-47884972D01*
X152166867Y-47900657D01*
X152142912Y-47922496D01*
X152080414Y-47961192D01*
X152023391Y-48001121D01*
X151993163Y-48015216D01*
X151960559Y-48035404D01*
X151897387Y-48059876D01*
X151839847Y-48086708D01*
X151801838Y-48096892D01*
X151760565Y-48112882D01*
X151699719Y-48124256D01*
X151644236Y-48139123D01*
X151599031Y-48143077D01*
X151549739Y-48152292D01*
X151514659Y-48152292D01*
X151514659Y-48377708D01*
X151549739Y-48377708D01*
X151599024Y-48386921D01*
X151644236Y-48390876D01*
X151699731Y-48405746D01*
X151760565Y-48417118D01*
X151801830Y-48433104D01*
X151839847Y-48443291D01*
X151897400Y-48470128D01*
X151960559Y-48494596D01*
X151993157Y-48514779D01*
X152023391Y-48528878D01*
X152080426Y-48568814D01*
X152142912Y-48607504D01*
X152166862Y-48629337D01*
X152189269Y-48645027D01*
X152242869Y-48698627D01*
X152301413Y-48751997D01*
X152317371Y-48773129D01*
X152332472Y-48788230D01*
X152379570Y-48855494D01*
X152430665Y-48923154D01*
X152439820Y-48941539D01*
X152448621Y-48954109D01*
X152486094Y-49034471D01*
X152526266Y-49115147D01*
X152530260Y-49129186D01*
X152534208Y-49137652D01*
X152559095Y-49230532D01*
X152584960Y-49321437D01*
X152585756Y-49330029D01*
X152586623Y-49333264D01*
X152596199Y-49442726D01*
X152604750Y-49535000D01*
X152596198Y-49627281D01*
X152586623Y-49736735D01*
X152585756Y-49739969D01*
X152584960Y-49748563D01*
X152559091Y-49839483D01*
X152534208Y-49932347D01*
X152530261Y-49940810D01*
X152526266Y-49954853D01*
X152486091Y-50035535D01*
X152448621Y-50115891D01*
X152439820Y-50128459D01*
X152430665Y-50146846D01*
X152379564Y-50214513D01*
X152332472Y-50281769D01*
X152317374Y-50296866D01*
X152301413Y-50318003D01*
X152242857Y-50371383D01*
X152189269Y-50424972D01*
X152166867Y-50440657D01*
X152142912Y-50462496D01*
X152080414Y-50501192D01*
X152023391Y-50541121D01*
X151993163Y-50555216D01*
X151960559Y-50575404D01*
X151897387Y-50599876D01*
X151839847Y-50626708D01*
X151801838Y-50636892D01*
X151760565Y-50652882D01*
X151699719Y-50664256D01*
X151644236Y-50679123D01*
X151599031Y-50683077D01*
X151549739Y-50692292D01*
X151514659Y-50692292D01*
X151514659Y-50917708D01*
X151549739Y-50917708D01*
X151599024Y-50926921D01*
X151644236Y-50930876D01*
X151699731Y-50945746D01*
X151760565Y-50957118D01*
X151801830Y-50973104D01*
X151839847Y-50983291D01*
X151897400Y-51010128D01*
X151960559Y-51034596D01*
X151993157Y-51054779D01*
X152023391Y-51068878D01*
X152080426Y-51108814D01*
X152142912Y-51147504D01*
X152166862Y-51169337D01*
X152189269Y-51185027D01*
X152242869Y-51238627D01*
X152301413Y-51291997D01*
X152317371Y-51313129D01*
X152332472Y-51328230D01*
X152379570Y-51395494D01*
X152430665Y-51463154D01*
X152439820Y-51481539D01*
X152448621Y-51494109D01*
X152486094Y-51574471D01*
X152526266Y-51655147D01*
X152530260Y-51669186D01*
X152534208Y-51677652D01*
X152559095Y-51770532D01*
X152584960Y-51861437D01*
X152585756Y-51870029D01*
X152586623Y-51873264D01*
X152596199Y-51982726D01*
X152604750Y-52075000D01*
X152596198Y-52167281D01*
X152586623Y-52276735D01*
X152585756Y-52279969D01*
X152584960Y-52288563D01*
X152559091Y-52379483D01*
X152534208Y-52472347D01*
X152530261Y-52480810D01*
X152526266Y-52494853D01*
X152486091Y-52575535D01*
X152448621Y-52655891D01*
X152439820Y-52668459D01*
X152430665Y-52686846D01*
X152379564Y-52754513D01*
X152332472Y-52821769D01*
X152317374Y-52836866D01*
X152301413Y-52858003D01*
X152242857Y-52911383D01*
X152189269Y-52964972D01*
X152166867Y-52980657D01*
X152142912Y-53002496D01*
X152080414Y-53041192D01*
X152023391Y-53081121D01*
X151993163Y-53095216D01*
X151960559Y-53115404D01*
X151897387Y-53139876D01*
X151839847Y-53166708D01*
X151801838Y-53176892D01*
X151760565Y-53192882D01*
X151699719Y-53204256D01*
X151644236Y-53219123D01*
X151599031Y-53223077D01*
X151549739Y-53232292D01*
X151514659Y-53232292D01*
X151514659Y-53457708D01*
X151549739Y-53457708D01*
X151599024Y-53466921D01*
X151644236Y-53470876D01*
X151699731Y-53485746D01*
X151760565Y-53497118D01*
X151801830Y-53513104D01*
X151839847Y-53523291D01*
X151897400Y-53550128D01*
X151960559Y-53574596D01*
X151993157Y-53594779D01*
X152023391Y-53608878D01*
X152080426Y-53648814D01*
X152142912Y-53687504D01*
X152166862Y-53709337D01*
X152189269Y-53725027D01*
X152242869Y-53778627D01*
X152301413Y-53831997D01*
X152317371Y-53853129D01*
X152332472Y-53868230D01*
X152379570Y-53935494D01*
X152430665Y-54003154D01*
X152439820Y-54021539D01*
X152448621Y-54034109D01*
X152486094Y-54114471D01*
X152526266Y-54195147D01*
X152530260Y-54209186D01*
X152534208Y-54217652D01*
X152559095Y-54310532D01*
X152584960Y-54401437D01*
X152585756Y-54410029D01*
X152586623Y-54413264D01*
X152596199Y-54522726D01*
X152604750Y-54615000D01*
X152596198Y-54707281D01*
X152586623Y-54816735D01*
X152585756Y-54819969D01*
X152584960Y-54828563D01*
X152559091Y-54919483D01*
X152534208Y-55012347D01*
X152530261Y-55020810D01*
X152526266Y-55034853D01*
X152486091Y-55115535D01*
X152448621Y-55195891D01*
X152439820Y-55208459D01*
X152430665Y-55226846D01*
X152379564Y-55294513D01*
X152332472Y-55361769D01*
X152317374Y-55376866D01*
X152301413Y-55398003D01*
X152242857Y-55451383D01*
X152189269Y-55504972D01*
X152166867Y-55520657D01*
X152142912Y-55542496D01*
X152080414Y-55581192D01*
X152023391Y-55621121D01*
X151993163Y-55635216D01*
X151960559Y-55655404D01*
X151897387Y-55679876D01*
X151839847Y-55706708D01*
X151801838Y-55716892D01*
X151760565Y-55732882D01*
X151699719Y-55744256D01*
X151644236Y-55759123D01*
X151599031Y-55763077D01*
X151549739Y-55772292D01*
X151514659Y-55772292D01*
X151514659Y-55997708D01*
X151549739Y-55997708D01*
X151599024Y-56006921D01*
X151644236Y-56010876D01*
X151699731Y-56025746D01*
X151760565Y-56037118D01*
X151801830Y-56053104D01*
X151839847Y-56063291D01*
X151897400Y-56090128D01*
X151960559Y-56114596D01*
X151993157Y-56134779D01*
X152023391Y-56148878D01*
X152080426Y-56188814D01*
X152142912Y-56227504D01*
X152166862Y-56249337D01*
X152189269Y-56265027D01*
X152242869Y-56318627D01*
X152301413Y-56371997D01*
X152317371Y-56393129D01*
X152332472Y-56408230D01*
X152379570Y-56475494D01*
X152430665Y-56543154D01*
X152439820Y-56561539D01*
X152448621Y-56574109D01*
X152486094Y-56654471D01*
X152526266Y-56735147D01*
X152530260Y-56749186D01*
X152534208Y-56757652D01*
X152559095Y-56850532D01*
X152584960Y-56941437D01*
X152585756Y-56950029D01*
X152586623Y-56953264D01*
X152596199Y-57062726D01*
X152604750Y-57155000D01*
X152596198Y-57247281D01*
X152586623Y-57356735D01*
X152585756Y-57359969D01*
X152584960Y-57368563D01*
X152559091Y-57459483D01*
X152534208Y-57552347D01*
X152530261Y-57560810D01*
X152526266Y-57574853D01*
X152486091Y-57655535D01*
X152448621Y-57735891D01*
X152439820Y-57748459D01*
X152430665Y-57766846D01*
X152379564Y-57834513D01*
X152332472Y-57901769D01*
X152317374Y-57916866D01*
X152301413Y-57938003D01*
X152242857Y-57991383D01*
X152189269Y-58044972D01*
X152166867Y-58060657D01*
X152142912Y-58082496D01*
X152080414Y-58121192D01*
X152023391Y-58161121D01*
X151993163Y-58175216D01*
X151960559Y-58195404D01*
X151897387Y-58219876D01*
X151839847Y-58246708D01*
X151801838Y-58256892D01*
X151760565Y-58272882D01*
X151699719Y-58284256D01*
X151644236Y-58299123D01*
X151599031Y-58303077D01*
X151549739Y-58312292D01*
X151514659Y-58312292D01*
X151514659Y-58537708D01*
X151549739Y-58537708D01*
X151599024Y-58546921D01*
X151644236Y-58550876D01*
X151699731Y-58565746D01*
X151760565Y-58577118D01*
X151801830Y-58593104D01*
X151839847Y-58603291D01*
X151897400Y-58630128D01*
X151960559Y-58654596D01*
X151993157Y-58674779D01*
X152023391Y-58688878D01*
X152080426Y-58728814D01*
X152142912Y-58767504D01*
X152166862Y-58789337D01*
X152189269Y-58805027D01*
X152242869Y-58858627D01*
X152301413Y-58911997D01*
X152317371Y-58933129D01*
X152332472Y-58948230D01*
X152379570Y-59015494D01*
X152430665Y-59083154D01*
X152439820Y-59101539D01*
X152448621Y-59114109D01*
X152486094Y-59194471D01*
X152526266Y-59275147D01*
X152530260Y-59289186D01*
X152534208Y-59297652D01*
X152559095Y-59390532D01*
X152584960Y-59481437D01*
X152585756Y-59490029D01*
X152586623Y-59493264D01*
X152596199Y-59602726D01*
X152604750Y-59695000D01*
X152596198Y-59787281D01*
X152586623Y-59896735D01*
X152585756Y-59899969D01*
X152584960Y-59908563D01*
X152559091Y-59999483D01*
X152534208Y-60092347D01*
X152530261Y-60100810D01*
X152526266Y-60114853D01*
X152486091Y-60195535D01*
X152448621Y-60275891D01*
X152439820Y-60288459D01*
X152430665Y-60306846D01*
X152379564Y-60374513D01*
X152332472Y-60441769D01*
X152317374Y-60456866D01*
X152301413Y-60478003D01*
X152242857Y-60531383D01*
X152189269Y-60584972D01*
X152166867Y-60600657D01*
X152142912Y-60622496D01*
X152080414Y-60661192D01*
X152023391Y-60701121D01*
X151993163Y-60715216D01*
X151960559Y-60735404D01*
X151897387Y-60759876D01*
X151839847Y-60786708D01*
X151801838Y-60796892D01*
X151760565Y-60812882D01*
X151699719Y-60824256D01*
X151644236Y-60839123D01*
X151599031Y-60843077D01*
X151549739Y-60852292D01*
X151514659Y-60852292D01*
X151514659Y-61077708D01*
X151549739Y-61077708D01*
X151599024Y-61086921D01*
X151644236Y-61090876D01*
X151699731Y-61105746D01*
X151760565Y-61117118D01*
X151801830Y-61133104D01*
X151839847Y-61143291D01*
X151897400Y-61170128D01*
X151960559Y-61194596D01*
X151993157Y-61214779D01*
X152023391Y-61228878D01*
X152080426Y-61268814D01*
X152142912Y-61307504D01*
X152166862Y-61329337D01*
X152189269Y-61345027D01*
X152242869Y-61398627D01*
X152301413Y-61451997D01*
X152317371Y-61473129D01*
X152332472Y-61488230D01*
X152379570Y-61555494D01*
X152430665Y-61623154D01*
X152439820Y-61641539D01*
X152448621Y-61654109D01*
X152486094Y-61734471D01*
X152526266Y-61815147D01*
X152530260Y-61829186D01*
X152534208Y-61837652D01*
X152559095Y-61930532D01*
X152584960Y-62021437D01*
X152585756Y-62030029D01*
X152586623Y-62033264D01*
X152596199Y-62142726D01*
X152604750Y-62235000D01*
X152596198Y-62327281D01*
X152586623Y-62436735D01*
X152585756Y-62439969D01*
X152584960Y-62448563D01*
X152559091Y-62539483D01*
X152534208Y-62632347D01*
X152530261Y-62640810D01*
X152526266Y-62654853D01*
X152486091Y-62735535D01*
X152448621Y-62815891D01*
X152439820Y-62828459D01*
X152430665Y-62846846D01*
X152379564Y-62914513D01*
X152332472Y-62981769D01*
X152317374Y-62996866D01*
X152301413Y-63018003D01*
X152242857Y-63071383D01*
X152189269Y-63124972D01*
X152166867Y-63140657D01*
X152142912Y-63162496D01*
X152080414Y-63201192D01*
X152023391Y-63241121D01*
X151993163Y-63255216D01*
X151960559Y-63275404D01*
X151897387Y-63299876D01*
X151839847Y-63326708D01*
X151801838Y-63336892D01*
X151760565Y-63352882D01*
X151699719Y-63364256D01*
X151644236Y-63379123D01*
X151599031Y-63383077D01*
X151549739Y-63392292D01*
X151514659Y-63392292D01*
X151514659Y-63617708D01*
X151549739Y-63617708D01*
X151599024Y-63626921D01*
X151644236Y-63630876D01*
X151699731Y-63645746D01*
X151760565Y-63657118D01*
X151801830Y-63673104D01*
X151839847Y-63683291D01*
X151897400Y-63710128D01*
X151960559Y-63734596D01*
X151993157Y-63754779D01*
X152023391Y-63768878D01*
X152080426Y-63808814D01*
X152142912Y-63847504D01*
X152166862Y-63869337D01*
X152189269Y-63885027D01*
X152242869Y-63938627D01*
X152301413Y-63991997D01*
X152317371Y-64013129D01*
X152332472Y-64028230D01*
X152379570Y-64095494D01*
X152430665Y-64163154D01*
X152439820Y-64181539D01*
X152448621Y-64194109D01*
X152486094Y-64274471D01*
X152526266Y-64355147D01*
X152530260Y-64369186D01*
X152534208Y-64377652D01*
X152559095Y-64470532D01*
X152584960Y-64561437D01*
X152585756Y-64570029D01*
X152586623Y-64573264D01*
X152596199Y-64682726D01*
X152604750Y-64775000D01*
X152596198Y-64867281D01*
X152586623Y-64976735D01*
X152585756Y-64979969D01*
X152584960Y-64988563D01*
X152559091Y-65079483D01*
X152534208Y-65172347D01*
X152530261Y-65180810D01*
X152526266Y-65194853D01*
X152486091Y-65275535D01*
X152448621Y-65355891D01*
X152439820Y-65368459D01*
X152430665Y-65386846D01*
X152379564Y-65454513D01*
X152332472Y-65521769D01*
X152317374Y-65536866D01*
X152301413Y-65558003D01*
X152242857Y-65611383D01*
X152189269Y-65664972D01*
X152166867Y-65680657D01*
X152142912Y-65702496D01*
X152080414Y-65741192D01*
X152023391Y-65781121D01*
X151993163Y-65795216D01*
X151960559Y-65815404D01*
X151897387Y-65839876D01*
X151839847Y-65866708D01*
X151801838Y-65876892D01*
X151760565Y-65892882D01*
X151699719Y-65904256D01*
X151644236Y-65919123D01*
X151599031Y-65923077D01*
X151549739Y-65932292D01*
X151514659Y-65932292D01*
X151514659Y-66157708D01*
X151549739Y-66157708D01*
X151599024Y-66166921D01*
X151644236Y-66170876D01*
X151699731Y-66185746D01*
X151760565Y-66197118D01*
X151801830Y-66213104D01*
X151839847Y-66223291D01*
X151897400Y-66250128D01*
X151960559Y-66274596D01*
X151993157Y-66294779D01*
X152023391Y-66308878D01*
X152080426Y-66348814D01*
X152142912Y-66387504D01*
X152166862Y-66409337D01*
X152189269Y-66425027D01*
X152242869Y-66478627D01*
X152301413Y-66531997D01*
X152317371Y-66553129D01*
X152332472Y-66568230D01*
X152379570Y-66635494D01*
X152430665Y-66703154D01*
X152439820Y-66721539D01*
X152448621Y-66734109D01*
X152486094Y-66814471D01*
X152526266Y-66895147D01*
X152530260Y-66909186D01*
X152534208Y-66917652D01*
X152559095Y-67010532D01*
X152584960Y-67101437D01*
X152585756Y-67110029D01*
X152586623Y-67113264D01*
X152596199Y-67222726D01*
X152604750Y-67315000D01*
X152596198Y-67407281D01*
X152586623Y-67516735D01*
X152585756Y-67519969D01*
X152584960Y-67528563D01*
X152559091Y-67619483D01*
X152534208Y-67712347D01*
X152530261Y-67720810D01*
X152526266Y-67734853D01*
X152486091Y-67815535D01*
X152448621Y-67895891D01*
X152439820Y-67908459D01*
X152430665Y-67926846D01*
X152379564Y-67994513D01*
X152332472Y-68061769D01*
X152317374Y-68076866D01*
X152301413Y-68098003D01*
X152242857Y-68151383D01*
X152189269Y-68204972D01*
X152166867Y-68220657D01*
X152142912Y-68242496D01*
X152080414Y-68281192D01*
X152023391Y-68321121D01*
X151993163Y-68335216D01*
X151960559Y-68355404D01*
X151897387Y-68379876D01*
X151839847Y-68406708D01*
X151801838Y-68416892D01*
X151760565Y-68432882D01*
X151699719Y-68444256D01*
X151644236Y-68459123D01*
X151599031Y-68463077D01*
X151549739Y-68472292D01*
X151514659Y-68472292D01*
X151514659Y-68697708D01*
X151549739Y-68697708D01*
X151599024Y-68706921D01*
X151644236Y-68710876D01*
X151699731Y-68725746D01*
X151760565Y-68737118D01*
X151801830Y-68753104D01*
X151839847Y-68763291D01*
X151897400Y-68790128D01*
X151960559Y-68814596D01*
X151993157Y-68834779D01*
X152023391Y-68848878D01*
X152080426Y-68888814D01*
X152142912Y-68927504D01*
X152166862Y-68949337D01*
X152189269Y-68965027D01*
X152242869Y-69018627D01*
X152301413Y-69071997D01*
X152317371Y-69093129D01*
X152332472Y-69108230D01*
X152379570Y-69175494D01*
X152430665Y-69243154D01*
X152439820Y-69261539D01*
X152448621Y-69274109D01*
X152486094Y-69354471D01*
X152526266Y-69435147D01*
X152530260Y-69449186D01*
X152534208Y-69457652D01*
X152559095Y-69550532D01*
X152584960Y-69641437D01*
X152585756Y-69650029D01*
X152586623Y-69653264D01*
X152596199Y-69762726D01*
X152604750Y-69855000D01*
X152596198Y-69947281D01*
X152586623Y-70056735D01*
X152585756Y-70059969D01*
X152584960Y-70068563D01*
X152559091Y-70159483D01*
X152534208Y-70252347D01*
X152530261Y-70260810D01*
X152526266Y-70274853D01*
X152486091Y-70355535D01*
X152448621Y-70435891D01*
X152439820Y-70448459D01*
X152430665Y-70466846D01*
X152379564Y-70534513D01*
X152332472Y-70601769D01*
X152317374Y-70616866D01*
X152301413Y-70638003D01*
X152242857Y-70691383D01*
X152189269Y-70744972D01*
X152166867Y-70760657D01*
X152142912Y-70782496D01*
X152080414Y-70821192D01*
X152023391Y-70861121D01*
X151993163Y-70875216D01*
X151960559Y-70895404D01*
X151897387Y-70919876D01*
X151839847Y-70946708D01*
X151801838Y-70956892D01*
X151760565Y-70972882D01*
X151699719Y-70984256D01*
X151644236Y-70999123D01*
X151599031Y-71003077D01*
X151549739Y-71012292D01*
X151514659Y-71012292D01*
X151514659Y-71237708D01*
X151549739Y-71237708D01*
X151599024Y-71246921D01*
X151644236Y-71250876D01*
X151699731Y-71265746D01*
X151760565Y-71277118D01*
X151801830Y-71293104D01*
X151839847Y-71303291D01*
X151897400Y-71330128D01*
X151960559Y-71354596D01*
X151993157Y-71374779D01*
X152023391Y-71388878D01*
X152080426Y-71428814D01*
X152142912Y-71467504D01*
X152166862Y-71489337D01*
X152189269Y-71505027D01*
X152242869Y-71558627D01*
X152301413Y-71611997D01*
X152317371Y-71633129D01*
X152332472Y-71648230D01*
X152379570Y-71715494D01*
X152430665Y-71783154D01*
X152439820Y-71801539D01*
X152448621Y-71814109D01*
X152486094Y-71894471D01*
X152526266Y-71975147D01*
X152530260Y-71989186D01*
X152534208Y-71997652D01*
X152559095Y-72090532D01*
X152584960Y-72181437D01*
X152585756Y-72190029D01*
X152586623Y-72193264D01*
X152596199Y-72302726D01*
X152604750Y-72395000D01*
X152596198Y-72487281D01*
X152586623Y-72596735D01*
X152585756Y-72599969D01*
X152584960Y-72608563D01*
X152559091Y-72699483D01*
X152534208Y-72792347D01*
X152530261Y-72800810D01*
X152526266Y-72814853D01*
X152486091Y-72895535D01*
X152448621Y-72975891D01*
X152439820Y-72988459D01*
X152430665Y-73006846D01*
X152379564Y-73074513D01*
X152332472Y-73141769D01*
X152317374Y-73156866D01*
X152301413Y-73178003D01*
X152242857Y-73231383D01*
X152189269Y-73284972D01*
X152166867Y-73300657D01*
X152142912Y-73322496D01*
X152080414Y-73361192D01*
X152023391Y-73401121D01*
X151993163Y-73415216D01*
X151960559Y-73435404D01*
X151897387Y-73459876D01*
X151839847Y-73486708D01*
X151801838Y-73496892D01*
X151760565Y-73512882D01*
X151699719Y-73524256D01*
X151644236Y-73539123D01*
X151599031Y-73543077D01*
X151549739Y-73552292D01*
X151514659Y-73552292D01*
X151514659Y-73777708D01*
X151549739Y-73777708D01*
X151599024Y-73786921D01*
X151644236Y-73790876D01*
X151699731Y-73805746D01*
X151760565Y-73817118D01*
X151801830Y-73833104D01*
X151839847Y-73843291D01*
X151897400Y-73870128D01*
X151960559Y-73894596D01*
X151993157Y-73914779D01*
X152023391Y-73928878D01*
X152080426Y-73968814D01*
X152142912Y-74007504D01*
X152166862Y-74029337D01*
X152189269Y-74045027D01*
X152242869Y-74098627D01*
X152301413Y-74151997D01*
X152317371Y-74173129D01*
X152332472Y-74188230D01*
X152379570Y-74255494D01*
X152430665Y-74323154D01*
X152439820Y-74341539D01*
X152448621Y-74354109D01*
X152486094Y-74434471D01*
X152526266Y-74515147D01*
X152530260Y-74529186D01*
X152534208Y-74537652D01*
X152559095Y-74630532D01*
X152584960Y-74721437D01*
X152585756Y-74730029D01*
X152586623Y-74733264D01*
X152596199Y-74842726D01*
X152604750Y-74935000D01*
X152596198Y-75027281D01*
X152586623Y-75136735D01*
X152585756Y-75139969D01*
X152584960Y-75148563D01*
X152559091Y-75239483D01*
X152534208Y-75332347D01*
X152530261Y-75340810D01*
X152526266Y-75354853D01*
X152486091Y-75435535D01*
X152448621Y-75515891D01*
X152439820Y-75528459D01*
X152430665Y-75546846D01*
X152379564Y-75614513D01*
X152332472Y-75681769D01*
X152317374Y-75696866D01*
X152301413Y-75718003D01*
X152242857Y-75771383D01*
X152189269Y-75824972D01*
X152166867Y-75840657D01*
X152142912Y-75862496D01*
X152080414Y-75901192D01*
X152023391Y-75941121D01*
X151993163Y-75955216D01*
X151960559Y-75975404D01*
X151897387Y-75999876D01*
X151839847Y-76026708D01*
X151801838Y-76036892D01*
X151760565Y-76052882D01*
X151699719Y-76064256D01*
X151644236Y-76079123D01*
X151599031Y-76083077D01*
X151549739Y-76092292D01*
X151514659Y-76092292D01*
X151514659Y-76317708D01*
X151549739Y-76317708D01*
X151599024Y-76326921D01*
X151644236Y-76330876D01*
X151699731Y-76345746D01*
X151760565Y-76357118D01*
X151801830Y-76373104D01*
X151839847Y-76383291D01*
X151897400Y-76410128D01*
X151960559Y-76434596D01*
X151993157Y-76454779D01*
X152023391Y-76468878D01*
X152080426Y-76508814D01*
X152142912Y-76547504D01*
X152166862Y-76569337D01*
X152189269Y-76585027D01*
X152242869Y-76638627D01*
X152301413Y-76691997D01*
X152317371Y-76713129D01*
X152332472Y-76728230D01*
X152379570Y-76795494D01*
X152430665Y-76863154D01*
X152439820Y-76881539D01*
X152448621Y-76894109D01*
X152486094Y-76974471D01*
X152526266Y-77055147D01*
X152530260Y-77069186D01*
X152534208Y-77077652D01*
X152559095Y-77170532D01*
X152584960Y-77261437D01*
X152585756Y-77270029D01*
X152586623Y-77273264D01*
X152596199Y-77382726D01*
X152604750Y-77475000D01*
X152596198Y-77567281D01*
X152586623Y-77676735D01*
X152585756Y-77679969D01*
X152584960Y-77688563D01*
X152559091Y-77779483D01*
X152534208Y-77872347D01*
X152530261Y-77880810D01*
X152526266Y-77894853D01*
X152486091Y-77975535D01*
X152448621Y-78055891D01*
X152439820Y-78068459D01*
X152430665Y-78086846D01*
X152379564Y-78154513D01*
X152332472Y-78221769D01*
X152317374Y-78236866D01*
X152301413Y-78258003D01*
X152242857Y-78311383D01*
X152189269Y-78364972D01*
X152166867Y-78380657D01*
X152142912Y-78402496D01*
X152080414Y-78441192D01*
X152023391Y-78481121D01*
X151993163Y-78495216D01*
X151960559Y-78515404D01*
X151897387Y-78539876D01*
X151839847Y-78566708D01*
X151801838Y-78576892D01*
X151760565Y-78592882D01*
X151699719Y-78604256D01*
X151644236Y-78619123D01*
X151599031Y-78623077D01*
X151549739Y-78632292D01*
X151514659Y-78632292D01*
X151514659Y-78857708D01*
X151549739Y-78857708D01*
X151599024Y-78866921D01*
X151644236Y-78870876D01*
X151699731Y-78885746D01*
X151760565Y-78897118D01*
X151801830Y-78913104D01*
X151839847Y-78923291D01*
X151897400Y-78950128D01*
X151960559Y-78974596D01*
X151993157Y-78994779D01*
X152023391Y-79008878D01*
X152080426Y-79048814D01*
X152142912Y-79087504D01*
X152166862Y-79109337D01*
X152189269Y-79125027D01*
X152242869Y-79178627D01*
X152301413Y-79231997D01*
X152317371Y-79253129D01*
X152332472Y-79268230D01*
X152379570Y-79335494D01*
X152430665Y-79403154D01*
X152439820Y-79421539D01*
X152448621Y-79434109D01*
X152486094Y-79514471D01*
X152526266Y-79595147D01*
X152530260Y-79609186D01*
X152534208Y-79617652D01*
X152559095Y-79710532D01*
X152584960Y-79801437D01*
X152585756Y-79810029D01*
X152586623Y-79813264D01*
X152596199Y-79922726D01*
X152604750Y-80015000D01*
X152596198Y-80107281D01*
X152586623Y-80216735D01*
X152585756Y-80219969D01*
X152584960Y-80228563D01*
X152559091Y-80319483D01*
X152534208Y-80412347D01*
X152530261Y-80420810D01*
X152526266Y-80434853D01*
X152486091Y-80515535D01*
X152448621Y-80595891D01*
X152439820Y-80608459D01*
X152430665Y-80626846D01*
X152379564Y-80694513D01*
X152332472Y-80761769D01*
X152317374Y-80776866D01*
X152301413Y-80798003D01*
X152242857Y-80851383D01*
X152189269Y-80904972D01*
X152166867Y-80920657D01*
X152142912Y-80942496D01*
X152080414Y-80981192D01*
X152023391Y-81021121D01*
X151993163Y-81035216D01*
X151960559Y-81055404D01*
X151897387Y-81079876D01*
X151839847Y-81106708D01*
X151801838Y-81116892D01*
X151760565Y-81132882D01*
X151699716Y-81144256D01*
X151644235Y-81159123D01*
X151599031Y-81163077D01*
X151549739Y-81172292D01*
X151493708Y-81172292D01*
X151442500Y-81176772D01*
X151391292Y-81172292D01*
X151335261Y-81172292D01*
X151285969Y-81163077D01*
X151240764Y-81159123D01*
X151185279Y-81144255D01*
X151124435Y-81132882D01*
X151083163Y-81116893D01*
X151045152Y-81106708D01*
X150987606Y-81079874D01*
X150924441Y-81055404D01*
X150891839Y-81035217D01*
X150861608Y-81021121D01*
X150804577Y-80981187D01*
X150742088Y-80942496D01*
X150718136Y-80920660D01*
X150695730Y-80904972D01*
X150642130Y-80851372D01*
X150583587Y-80798003D01*
X150567628Y-80776870D01*
X150552527Y-80761769D01*
X150505421Y-80694495D01*
X150454335Y-80626846D01*
X150445182Y-80608464D01*
X150436378Y-80595891D01*
X150398893Y-80515503D01*
X150358734Y-80434853D01*
X150354740Y-80420816D01*
X150350791Y-80412347D01*
X150325891Y-80319423D01*
X150300040Y-80228563D01*
X150299244Y-80219975D01*
X150298376Y-80216735D01*
X150288784Y-80107097D01*
X150280250Y-80015000D01*
X150288781Y-79922928D01*
X150298376Y-79813264D01*
X150299244Y-79810023D01*
X150300040Y-79801437D01*
X150325887Y-79710593D01*
X150350791Y-79617652D01*
X150354740Y-79609181D01*
X150358734Y-79595147D01*
X150398890Y-79514502D01*
X150436378Y-79434109D01*
X150445182Y-79421534D01*
X150454335Y-79403154D01*
X150505415Y-79335512D01*
X150552527Y-79268230D01*
X150567631Y-79253125D01*
X150583587Y-79231997D01*
X150642119Y-79178637D01*
X150695730Y-79125027D01*
X150718140Y-79109335D01*
X150742088Y-79087504D01*
X150804570Y-79048816D01*
X150861609Y-79008878D01*
X150891843Y-78994779D01*
X150924441Y-78974596D01*
X150987595Y-78950129D01*
X151045152Y-78923291D01*
X151083171Y-78913103D01*
X151124435Y-78897118D01*
X151185267Y-78885746D01*
X151240764Y-78870876D01*
X151285979Y-78866920D01*
X151335261Y-78857708D01*
X151370340Y-78857708D01*
X151370340Y-78632292D01*
X151335261Y-78632292D01*
X151285972Y-78623078D01*
X151240764Y-78619123D01*
X151185279Y-78604255D01*
X151124435Y-78592882D01*
X151083163Y-78576893D01*
X151045152Y-78566708D01*
X150987606Y-78539874D01*
X150924441Y-78515404D01*
X150891839Y-78495217D01*
X150861608Y-78481121D01*
X150804577Y-78441187D01*
X150742088Y-78402496D01*
X150718136Y-78380660D01*
X150695730Y-78364972D01*
X150642130Y-78311372D01*
X150583587Y-78258003D01*
X150567628Y-78236870D01*
X150552527Y-78221769D01*
X150505421Y-78154495D01*
X150454335Y-78086846D01*
X150445182Y-78068464D01*
X150436378Y-78055891D01*
X150398893Y-77975503D01*
X150358734Y-77894853D01*
X150354740Y-77880816D01*
X150350791Y-77872347D01*
X150325891Y-77779423D01*
X150300040Y-77688563D01*
X150299244Y-77679975D01*
X150298376Y-77676735D01*
X150288784Y-77567097D01*
X150280250Y-77475000D01*
X150288781Y-77382928D01*
X150298376Y-77273264D01*
X150299244Y-77270023D01*
X150300040Y-77261437D01*
X150325887Y-77170593D01*
X150350791Y-77077652D01*
X150354740Y-77069181D01*
X150358734Y-77055147D01*
X150398890Y-76974502D01*
X150436378Y-76894109D01*
X150445182Y-76881534D01*
X150454335Y-76863154D01*
X150505415Y-76795512D01*
X150552527Y-76728230D01*
X150567631Y-76713125D01*
X150583587Y-76691997D01*
X150642119Y-76638637D01*
X150695730Y-76585027D01*
X150718140Y-76569335D01*
X150742088Y-76547504D01*
X150804570Y-76508816D01*
X150861609Y-76468878D01*
X150891843Y-76454779D01*
X150924441Y-76434596D01*
X150987595Y-76410129D01*
X151045152Y-76383291D01*
X151083171Y-76373103D01*
X151124435Y-76357118D01*
X151185267Y-76345746D01*
X151240764Y-76330876D01*
X151285979Y-76326920D01*
X151335261Y-76317708D01*
X151370340Y-76317708D01*
X151370340Y-76092292D01*
X151335261Y-76092292D01*
X151285972Y-76083078D01*
X151240764Y-76079123D01*
X151185279Y-76064255D01*
X151124435Y-76052882D01*
X151083163Y-76036893D01*
X151045152Y-76026708D01*
X150987606Y-75999874D01*
X150924441Y-75975404D01*
X150891839Y-75955217D01*
X150861608Y-75941121D01*
X150804577Y-75901187D01*
X150742088Y-75862496D01*
X150718136Y-75840660D01*
X150695730Y-75824972D01*
X150642130Y-75771372D01*
X150583587Y-75718003D01*
X150567628Y-75696870D01*
X150552527Y-75681769D01*
X150505421Y-75614495D01*
X150454335Y-75546846D01*
X150445182Y-75528464D01*
X150436378Y-75515891D01*
X150398893Y-75435503D01*
X150358734Y-75354853D01*
X150354740Y-75340816D01*
X150350791Y-75332347D01*
X150325891Y-75239423D01*
X150300040Y-75148563D01*
X150299244Y-75139975D01*
X150298376Y-75136735D01*
X150288784Y-75027097D01*
X150280250Y-74935000D01*
X150288781Y-74842928D01*
X150298376Y-74733264D01*
X150299244Y-74730023D01*
X150300040Y-74721437D01*
X150325887Y-74630593D01*
X150350791Y-74537652D01*
X150354740Y-74529181D01*
X150358734Y-74515147D01*
X150398890Y-74434502D01*
X150436378Y-74354109D01*
X150445182Y-74341534D01*
X150454335Y-74323154D01*
X150505415Y-74255512D01*
X150552527Y-74188230D01*
X150567631Y-74173125D01*
X150583587Y-74151997D01*
X150642119Y-74098637D01*
X150695730Y-74045027D01*
X150718140Y-74029335D01*
X150742088Y-74007504D01*
X150804570Y-73968816D01*
X150861609Y-73928878D01*
X150891843Y-73914779D01*
X150924441Y-73894596D01*
X150987595Y-73870129D01*
X151045152Y-73843291D01*
X151083171Y-73833103D01*
X151124435Y-73817118D01*
X151185267Y-73805746D01*
X151240764Y-73790876D01*
X151285979Y-73786920D01*
X151335261Y-73777708D01*
X151370340Y-73777708D01*
X151370340Y-73552292D01*
X151335261Y-73552292D01*
X151285972Y-73543078D01*
X151240764Y-73539123D01*
X151185279Y-73524255D01*
X151124435Y-73512882D01*
X151083163Y-73496893D01*
X151045152Y-73486708D01*
X150987606Y-73459874D01*
X150924441Y-73435404D01*
X150891839Y-73415217D01*
X150861608Y-73401121D01*
X150804577Y-73361187D01*
X150742088Y-73322496D01*
X150718136Y-73300660D01*
X150695730Y-73284972D01*
X150642130Y-73231372D01*
X150583587Y-73178003D01*
X150567628Y-73156870D01*
X150552527Y-73141769D01*
X150505421Y-73074495D01*
X150454335Y-73006846D01*
X150445182Y-72988464D01*
X150436378Y-72975891D01*
X150398893Y-72895503D01*
X150358734Y-72814853D01*
X150354740Y-72800816D01*
X150350791Y-72792347D01*
X150325891Y-72699423D01*
X150300040Y-72608563D01*
X150299244Y-72599975D01*
X150298376Y-72596735D01*
X150288784Y-72487097D01*
X150280250Y-72395000D01*
X150288781Y-72302928D01*
X150298376Y-72193264D01*
X150299244Y-72190023D01*
X150300040Y-72181437D01*
X150325887Y-72090593D01*
X150350791Y-71997652D01*
X150354740Y-71989181D01*
X150358734Y-71975147D01*
X150398890Y-71894502D01*
X150436378Y-71814109D01*
X150445182Y-71801534D01*
X150454335Y-71783154D01*
X150505415Y-71715512D01*
X150552527Y-71648230D01*
X150567631Y-71633125D01*
X150583587Y-71611997D01*
X150642119Y-71558637D01*
X150695730Y-71505027D01*
X150718140Y-71489335D01*
X150742088Y-71467504D01*
X150804570Y-71428816D01*
X150861609Y-71388878D01*
X150891843Y-71374779D01*
X150924441Y-71354596D01*
X150987595Y-71330129D01*
X151045152Y-71303291D01*
X151083171Y-71293103D01*
X151124435Y-71277118D01*
X151185267Y-71265746D01*
X151240764Y-71250876D01*
X151285979Y-71246920D01*
X151335261Y-71237708D01*
X151370340Y-71237708D01*
X151370340Y-71012292D01*
X151335261Y-71012292D01*
X151285972Y-71003078D01*
X151240764Y-70999123D01*
X151185279Y-70984255D01*
X151124435Y-70972882D01*
X151083163Y-70956893D01*
X151045152Y-70946708D01*
X150987606Y-70919874D01*
X150924441Y-70895404D01*
X150891839Y-70875217D01*
X150861608Y-70861121D01*
X150804577Y-70821187D01*
X150742088Y-70782496D01*
X150718136Y-70760660D01*
X150695730Y-70744972D01*
X150642130Y-70691372D01*
X150583587Y-70638003D01*
X150567628Y-70616870D01*
X150552527Y-70601769D01*
X150505421Y-70534495D01*
X150454335Y-70466846D01*
X150445182Y-70448464D01*
X150436378Y-70435891D01*
X150398893Y-70355503D01*
X150358734Y-70274853D01*
X150354740Y-70260816D01*
X150350791Y-70252347D01*
X150325891Y-70159423D01*
X150300040Y-70068563D01*
X150299244Y-70059975D01*
X150298376Y-70056735D01*
X150288784Y-69947097D01*
X150280250Y-69855000D01*
X150288781Y-69762928D01*
X150298376Y-69653264D01*
X150299244Y-69650023D01*
X150300040Y-69641437D01*
X150325887Y-69550593D01*
X150350791Y-69457652D01*
X150354740Y-69449181D01*
X150358734Y-69435147D01*
X150398890Y-69354502D01*
X150436378Y-69274109D01*
X150445182Y-69261534D01*
X150454335Y-69243154D01*
X150505415Y-69175512D01*
X150552527Y-69108230D01*
X150567631Y-69093125D01*
X150583587Y-69071997D01*
X150642119Y-69018637D01*
X150695730Y-68965027D01*
X150718140Y-68949335D01*
X150742088Y-68927504D01*
X150804570Y-68888816D01*
X150861609Y-68848878D01*
X150891843Y-68834779D01*
X150924441Y-68814596D01*
X150987595Y-68790129D01*
X151045152Y-68763291D01*
X151083171Y-68753103D01*
X151124435Y-68737118D01*
X151185267Y-68725746D01*
X151240764Y-68710876D01*
X151285979Y-68706920D01*
X151335261Y-68697708D01*
X151370340Y-68697708D01*
X151370340Y-68472292D01*
X151335261Y-68472292D01*
X151285972Y-68463078D01*
X151240764Y-68459123D01*
X151185279Y-68444255D01*
X151124435Y-68432882D01*
X151083163Y-68416893D01*
X151045152Y-68406708D01*
X150987606Y-68379874D01*
X150924441Y-68355404D01*
X150891839Y-68335217D01*
X150861608Y-68321121D01*
X150804577Y-68281187D01*
X150742088Y-68242496D01*
X150718136Y-68220660D01*
X150695730Y-68204972D01*
X150642130Y-68151372D01*
X150583587Y-68098003D01*
X150567628Y-68076870D01*
X150552527Y-68061769D01*
X150505421Y-67994495D01*
X150454335Y-67926846D01*
X150445182Y-67908464D01*
X150436378Y-67895891D01*
X150398893Y-67815503D01*
X150358734Y-67734853D01*
X150354740Y-67720816D01*
X150350791Y-67712347D01*
X150325891Y-67619423D01*
X150300040Y-67528563D01*
X150299244Y-67519975D01*
X150298376Y-67516735D01*
X150288784Y-67407097D01*
X150280250Y-67315000D01*
X150288781Y-67222928D01*
X150298376Y-67113264D01*
X150299244Y-67110023D01*
X150300040Y-67101437D01*
X150325887Y-67010593D01*
X150350791Y-66917652D01*
X150354740Y-66909181D01*
X150358734Y-66895147D01*
X150398890Y-66814502D01*
X150436378Y-66734109D01*
X150445182Y-66721534D01*
X150454335Y-66703154D01*
X150505415Y-66635512D01*
X150552527Y-66568230D01*
X150567631Y-66553125D01*
X150583587Y-66531997D01*
X150642119Y-66478637D01*
X150695730Y-66425027D01*
X150718140Y-66409335D01*
X150742088Y-66387504D01*
X150804570Y-66348816D01*
X150861609Y-66308878D01*
X150891843Y-66294779D01*
X150924441Y-66274596D01*
X150987595Y-66250129D01*
X151045152Y-66223291D01*
X151083171Y-66213103D01*
X151124435Y-66197118D01*
X151185267Y-66185746D01*
X151240764Y-66170876D01*
X151285979Y-66166920D01*
X151335261Y-66157708D01*
X151370340Y-66157708D01*
X151370340Y-65932292D01*
X151335261Y-65932292D01*
X151285972Y-65923078D01*
X151240764Y-65919123D01*
X151185279Y-65904255D01*
X151124435Y-65892882D01*
X151083163Y-65876893D01*
X151045152Y-65866708D01*
X150987606Y-65839874D01*
X150924441Y-65815404D01*
X150891839Y-65795217D01*
X150861608Y-65781121D01*
X150804577Y-65741187D01*
X150742088Y-65702496D01*
X150718136Y-65680660D01*
X150695730Y-65664972D01*
X150642130Y-65611372D01*
X150583587Y-65558003D01*
X150567628Y-65536870D01*
X150552527Y-65521769D01*
X150505421Y-65454495D01*
X150454335Y-65386846D01*
X150445182Y-65368464D01*
X150436378Y-65355891D01*
X150398893Y-65275503D01*
X150358734Y-65194853D01*
X150354740Y-65180816D01*
X150350791Y-65172347D01*
X150325891Y-65079423D01*
X150300040Y-64988563D01*
X150299244Y-64979975D01*
X150298376Y-64976735D01*
X150288784Y-64867097D01*
X150280250Y-64775000D01*
X150288781Y-64682928D01*
X150298376Y-64573264D01*
X150299244Y-64570023D01*
X150300040Y-64561437D01*
X150325887Y-64470593D01*
X150350791Y-64377652D01*
X150354740Y-64369181D01*
X150358734Y-64355147D01*
X150398890Y-64274502D01*
X150436378Y-64194109D01*
X150445182Y-64181534D01*
X150454335Y-64163154D01*
X150505415Y-64095512D01*
X150552527Y-64028230D01*
X150567631Y-64013125D01*
X150583587Y-63991997D01*
X150642119Y-63938637D01*
X150695730Y-63885027D01*
X150718140Y-63869335D01*
X150742088Y-63847504D01*
X150804570Y-63808816D01*
X150861609Y-63768878D01*
X150891843Y-63754779D01*
X150924441Y-63734596D01*
X150987595Y-63710129D01*
X151045152Y-63683291D01*
X151083171Y-63673103D01*
X151124435Y-63657118D01*
X151185267Y-63645746D01*
X151240764Y-63630876D01*
X151285979Y-63626920D01*
X151335261Y-63617708D01*
X151370340Y-63617708D01*
X151370340Y-63392292D01*
X151335261Y-63392292D01*
X151285972Y-63383078D01*
X151240764Y-63379123D01*
X151185279Y-63364255D01*
X151124435Y-63352882D01*
X151083163Y-63336893D01*
X151045152Y-63326708D01*
X150987606Y-63299874D01*
X150924441Y-63275404D01*
X150891839Y-63255217D01*
X150861608Y-63241121D01*
X150804577Y-63201187D01*
X150742088Y-63162496D01*
X150718136Y-63140660D01*
X150695730Y-63124972D01*
X150642130Y-63071372D01*
X150583587Y-63018003D01*
X150567628Y-62996870D01*
X150552527Y-62981769D01*
X150505421Y-62914495D01*
X150454335Y-62846846D01*
X150445182Y-62828464D01*
X150436378Y-62815891D01*
X150398893Y-62735503D01*
X150358734Y-62654853D01*
X150354740Y-62640816D01*
X150350791Y-62632347D01*
X150325891Y-62539423D01*
X150300040Y-62448563D01*
X150299244Y-62439975D01*
X150298376Y-62436735D01*
X150288784Y-62327097D01*
X150280250Y-62235000D01*
X150288781Y-62142928D01*
X150298376Y-62033264D01*
X150299244Y-62030023D01*
X150300040Y-62021437D01*
X150325887Y-61930593D01*
X150350791Y-61837652D01*
X150354740Y-61829181D01*
X150358734Y-61815147D01*
X150398890Y-61734502D01*
X150436378Y-61654109D01*
X150445182Y-61641534D01*
X150454335Y-61623154D01*
X150505415Y-61555512D01*
X150552527Y-61488230D01*
X150567631Y-61473125D01*
X150583587Y-61451997D01*
X150642119Y-61398637D01*
X150695730Y-61345027D01*
X150718140Y-61329335D01*
X150742088Y-61307504D01*
X150804570Y-61268816D01*
X150861609Y-61228878D01*
X150891843Y-61214779D01*
X150924441Y-61194596D01*
X150987595Y-61170129D01*
X151045152Y-61143291D01*
X151083171Y-61133103D01*
X151124435Y-61117118D01*
X151185267Y-61105746D01*
X151240764Y-61090876D01*
X151285979Y-61086920D01*
X151335261Y-61077708D01*
X151370340Y-61077708D01*
X151370340Y-60852292D01*
X151335261Y-60852292D01*
X151285972Y-60843078D01*
X151240764Y-60839123D01*
X151185279Y-60824255D01*
X151124435Y-60812882D01*
X151083163Y-60796893D01*
X151045152Y-60786708D01*
X150987606Y-60759874D01*
X150924441Y-60735404D01*
X150891839Y-60715217D01*
X150861608Y-60701121D01*
X150804577Y-60661187D01*
X150742088Y-60622496D01*
X150718136Y-60600660D01*
X150695730Y-60584972D01*
X150642130Y-60531372D01*
X150583587Y-60478003D01*
X150567628Y-60456870D01*
X150552527Y-60441769D01*
X150505421Y-60374495D01*
X150454335Y-60306846D01*
X150445182Y-60288464D01*
X150436378Y-60275891D01*
X150398893Y-60195503D01*
X150358734Y-60114853D01*
X150354740Y-60100816D01*
X150350791Y-60092347D01*
X150325891Y-59999423D01*
X150300040Y-59908563D01*
X150299244Y-59899975D01*
X150298376Y-59896735D01*
X150288784Y-59787097D01*
X150280250Y-59695000D01*
X150288781Y-59602928D01*
X150298376Y-59493264D01*
X150299244Y-59490023D01*
X150300040Y-59481437D01*
X150325887Y-59390593D01*
X150350791Y-59297652D01*
X150354740Y-59289181D01*
X150358734Y-59275147D01*
X150398890Y-59194502D01*
X150436378Y-59114109D01*
X150445182Y-59101534D01*
X150454335Y-59083154D01*
X150505415Y-59015512D01*
X150552527Y-58948230D01*
X150567631Y-58933125D01*
X150583587Y-58911997D01*
X150642119Y-58858637D01*
X150695730Y-58805027D01*
X150718140Y-58789335D01*
X150742088Y-58767504D01*
X150804570Y-58728816D01*
X150861609Y-58688878D01*
X150891843Y-58674779D01*
X150924441Y-58654596D01*
X150987595Y-58630129D01*
X151045152Y-58603291D01*
X151083171Y-58593103D01*
X151124435Y-58577118D01*
X151185267Y-58565746D01*
X151240764Y-58550876D01*
X151285979Y-58546920D01*
X151335261Y-58537708D01*
X151370340Y-58537708D01*
X151370340Y-58312292D01*
X151335261Y-58312292D01*
X151285972Y-58303078D01*
X151240764Y-58299123D01*
X151185279Y-58284255D01*
X151124435Y-58272882D01*
X151083163Y-58256893D01*
X151045152Y-58246708D01*
X150987606Y-58219874D01*
X150924441Y-58195404D01*
X150891839Y-58175217D01*
X150861608Y-58161121D01*
X150804577Y-58121187D01*
X150742088Y-58082496D01*
X150718136Y-58060660D01*
X150695730Y-58044972D01*
X150642130Y-57991372D01*
X150583587Y-57938003D01*
X150567628Y-57916870D01*
X150552527Y-57901769D01*
X150505421Y-57834495D01*
X150454335Y-57766846D01*
X150445182Y-57748464D01*
X150436378Y-57735891D01*
X150398893Y-57655503D01*
X150358734Y-57574853D01*
X150354740Y-57560816D01*
X150350791Y-57552347D01*
X150325891Y-57459423D01*
X150300040Y-57368563D01*
X150299244Y-57359975D01*
X150298376Y-57356735D01*
X150288784Y-57247097D01*
X150280250Y-57155000D01*
X150288781Y-57062928D01*
X150298376Y-56953264D01*
X150299244Y-56950023D01*
X150300040Y-56941437D01*
X150325887Y-56850593D01*
X150350791Y-56757652D01*
X150354740Y-56749181D01*
X150358734Y-56735147D01*
X150398890Y-56654502D01*
X150436378Y-56574109D01*
X150445182Y-56561534D01*
X150454335Y-56543154D01*
X150505415Y-56475512D01*
X150552527Y-56408230D01*
X150567631Y-56393125D01*
X150583587Y-56371997D01*
X150642119Y-56318637D01*
X150695730Y-56265027D01*
X150718140Y-56249335D01*
X150742088Y-56227504D01*
X150804570Y-56188816D01*
X150861609Y-56148878D01*
X150891843Y-56134779D01*
X150924441Y-56114596D01*
X150987595Y-56090129D01*
X151045152Y-56063291D01*
X151083171Y-56053103D01*
X151124435Y-56037118D01*
X151185267Y-56025746D01*
X151240764Y-56010876D01*
X151285979Y-56006920D01*
X151335261Y-55997708D01*
X151370340Y-55997708D01*
X151370340Y-55772292D01*
X151335261Y-55772292D01*
X151285972Y-55763078D01*
X151240764Y-55759123D01*
X151185279Y-55744255D01*
X151124435Y-55732882D01*
X151083163Y-55716893D01*
X151045152Y-55706708D01*
X150987606Y-55679874D01*
X150924441Y-55655404D01*
X150891839Y-55635217D01*
X150861608Y-55621121D01*
X150804577Y-55581187D01*
X150742088Y-55542496D01*
X150718136Y-55520660D01*
X150695730Y-55504972D01*
X150642130Y-55451372D01*
X150583587Y-55398003D01*
X150567628Y-55376870D01*
X150552527Y-55361769D01*
X150505421Y-55294495D01*
X150454335Y-55226846D01*
X150445182Y-55208464D01*
X150436378Y-55195891D01*
X150398893Y-55115503D01*
X150358734Y-55034853D01*
X150354740Y-55020816D01*
X150350791Y-55012347D01*
X150325891Y-54919423D01*
X150300040Y-54828563D01*
X150299244Y-54819975D01*
X150298376Y-54816735D01*
X150288784Y-54707097D01*
X150280250Y-54615000D01*
X150288781Y-54522928D01*
X150298376Y-54413264D01*
X150299244Y-54410023D01*
X150300040Y-54401437D01*
X150325887Y-54310593D01*
X150350791Y-54217652D01*
X150354740Y-54209181D01*
X150358734Y-54195147D01*
X150398890Y-54114502D01*
X150436378Y-54034109D01*
X150445182Y-54021534D01*
X150454335Y-54003154D01*
X150505415Y-53935512D01*
X150552527Y-53868230D01*
X150567631Y-53853125D01*
X150583587Y-53831997D01*
X150642119Y-53778637D01*
X150695730Y-53725027D01*
X150718140Y-53709335D01*
X150742088Y-53687504D01*
X150804570Y-53648816D01*
X150861609Y-53608878D01*
X150891843Y-53594779D01*
X150924441Y-53574596D01*
X150987595Y-53550129D01*
X151045152Y-53523291D01*
X151083171Y-53513103D01*
X151124435Y-53497118D01*
X151185267Y-53485746D01*
X151240764Y-53470876D01*
X151285979Y-53466920D01*
X151335261Y-53457708D01*
X151370340Y-53457708D01*
X151370340Y-53232292D01*
X151335261Y-53232292D01*
X151285972Y-53223078D01*
X151240764Y-53219123D01*
X151185279Y-53204255D01*
X151124435Y-53192882D01*
X151083163Y-53176893D01*
X151045152Y-53166708D01*
X150987606Y-53139874D01*
X150924441Y-53115404D01*
X150891839Y-53095217D01*
X150861608Y-53081121D01*
X150804577Y-53041187D01*
X150742088Y-53002496D01*
X150718136Y-52980660D01*
X150695730Y-52964972D01*
X150642130Y-52911372D01*
X150583587Y-52858003D01*
X150567628Y-52836870D01*
X150552527Y-52821769D01*
X150505421Y-52754495D01*
X150454335Y-52686846D01*
X150445182Y-52668464D01*
X150436378Y-52655891D01*
X150398893Y-52575503D01*
X150358734Y-52494853D01*
X150354740Y-52480816D01*
X150350791Y-52472347D01*
X150325891Y-52379423D01*
X150300040Y-52288563D01*
X150299244Y-52279975D01*
X150298376Y-52276735D01*
X150288784Y-52167097D01*
X150280250Y-52075000D01*
X150288781Y-51982928D01*
X150298376Y-51873264D01*
X150299244Y-51870023D01*
X150300040Y-51861437D01*
X150325887Y-51770593D01*
X150350791Y-51677652D01*
X150354740Y-51669181D01*
X150358734Y-51655147D01*
X150398890Y-51574502D01*
X150436378Y-51494109D01*
X150445182Y-51481534D01*
X150454335Y-51463154D01*
X150505415Y-51395512D01*
X150552527Y-51328230D01*
X150567631Y-51313125D01*
X150583587Y-51291997D01*
X150642119Y-51238637D01*
X150695730Y-51185027D01*
X150718140Y-51169335D01*
X150742088Y-51147504D01*
X150804570Y-51108816D01*
X150861609Y-51068878D01*
X150891843Y-51054779D01*
X150924441Y-51034596D01*
X150987595Y-51010129D01*
X151045152Y-50983291D01*
X151083171Y-50973103D01*
X151124435Y-50957118D01*
X151185267Y-50945746D01*
X151240764Y-50930876D01*
X151285979Y-50926920D01*
X151335261Y-50917708D01*
X151370340Y-50917708D01*
X151370340Y-50692292D01*
X151335261Y-50692292D01*
X151285972Y-50683078D01*
X151240764Y-50679123D01*
X151185279Y-50664255D01*
X151124435Y-50652882D01*
X151083163Y-50636893D01*
X151045152Y-50626708D01*
X150987606Y-50599874D01*
X150924441Y-50575404D01*
X150891839Y-50555217D01*
X150861608Y-50541121D01*
X150804577Y-50501187D01*
X150742088Y-50462496D01*
X150718136Y-50440660D01*
X150695730Y-50424972D01*
X150642130Y-50371372D01*
X150583587Y-50318003D01*
X150567628Y-50296870D01*
X150552527Y-50281769D01*
X150505421Y-50214495D01*
X150454335Y-50146846D01*
X150445182Y-50128464D01*
X150436378Y-50115891D01*
X150398893Y-50035503D01*
X150358734Y-49954853D01*
X150354740Y-49940816D01*
X150350791Y-49932347D01*
X150325891Y-49839423D01*
X150300040Y-49748563D01*
X150299244Y-49739975D01*
X150298376Y-49736735D01*
X150288784Y-49627097D01*
X150280250Y-49535000D01*
X150288781Y-49442928D01*
X150298376Y-49333264D01*
X150299244Y-49330023D01*
X150300040Y-49321437D01*
X150325887Y-49230593D01*
X150350791Y-49137652D01*
X150354740Y-49129181D01*
X150358734Y-49115147D01*
X150398890Y-49034502D01*
X150436378Y-48954109D01*
X150445182Y-48941534D01*
X150454335Y-48923154D01*
X150505415Y-48855512D01*
X150552527Y-48788230D01*
X150567631Y-48773125D01*
X150583587Y-48751997D01*
X150642119Y-48698637D01*
X150695730Y-48645027D01*
X150718140Y-48629335D01*
X150742088Y-48607504D01*
X150804570Y-48568816D01*
X150861609Y-48528878D01*
X150891843Y-48514779D01*
X150924441Y-48494596D01*
X150987595Y-48470129D01*
X151045152Y-48443291D01*
X151083171Y-48433103D01*
X151124435Y-48417118D01*
X151185267Y-48405746D01*
X151240764Y-48390876D01*
X151285979Y-48386920D01*
X151335261Y-48377708D01*
X151370340Y-48377708D01*
X151370340Y-48152292D01*
X151335261Y-48152292D01*
X151285972Y-48143078D01*
X151240764Y-48139123D01*
X151185279Y-48124255D01*
X151124435Y-48112882D01*
X151083163Y-48096893D01*
X151045152Y-48086708D01*
X150987606Y-48059874D01*
X150924441Y-48035404D01*
X150891839Y-48015217D01*
X150861608Y-48001121D01*
X150804577Y-47961187D01*
X150742088Y-47922496D01*
X150718136Y-47900660D01*
X150695730Y-47884972D01*
X150642130Y-47831372D01*
X150583587Y-47778003D01*
X150567628Y-47756870D01*
X150552527Y-47741769D01*
X150505421Y-47674495D01*
X150454335Y-47606846D01*
X150445182Y-47588464D01*
X150436378Y-47575891D01*
X150398893Y-47495503D01*
X150358734Y-47414853D01*
X150354740Y-47400816D01*
X150350791Y-47392347D01*
X150325891Y-47299423D01*
X150300040Y-47208563D01*
X150299244Y-47199975D01*
X150298376Y-47196735D01*
X150288784Y-47087097D01*
X150280250Y-46995000D01*
X150288781Y-46902928D01*
X150298376Y-46793264D01*
X150299244Y-46790023D01*
X150300040Y-46781437D01*
X150325887Y-46690593D01*
X150350791Y-46597652D01*
X150354740Y-46589181D01*
X150358734Y-46575147D01*
X150398890Y-46494502D01*
X150436378Y-46414109D01*
X150445182Y-46401534D01*
X150454335Y-46383154D01*
X150505415Y-46315512D01*
X150552527Y-46248230D01*
X150567631Y-46233125D01*
X150583587Y-46211997D01*
X150642119Y-46158637D01*
X150695730Y-46105027D01*
X150718140Y-46089335D01*
X150742088Y-46067504D01*
X150804570Y-46028816D01*
X150861609Y-45988878D01*
X150891843Y-45974779D01*
X150924441Y-45954596D01*
X150987595Y-45930129D01*
X151045152Y-45903291D01*
X151083171Y-45893103D01*
X151124435Y-45877118D01*
X151185267Y-45865746D01*
X151240764Y-45850876D01*
X151285979Y-45846920D01*
X151335261Y-45837708D01*
X151370340Y-45837708D01*
X151370340Y-45612292D01*
X151335261Y-45612292D01*
X151285972Y-45603078D01*
X151240764Y-45599123D01*
X151185279Y-45584255D01*
X151124435Y-45572882D01*
X151083163Y-45556893D01*
X151045152Y-45546708D01*
X150987606Y-45519874D01*
X150924441Y-45495404D01*
X150891839Y-45475217D01*
X150861608Y-45461121D01*
X150804577Y-45421187D01*
X150742088Y-45382496D01*
X150718136Y-45360660D01*
X150695730Y-45344972D01*
X150642130Y-45291372D01*
X150583587Y-45238003D01*
X150567628Y-45216870D01*
X150552527Y-45201769D01*
X150505421Y-45134495D01*
X150454335Y-45066846D01*
X150445182Y-45048464D01*
X150436378Y-45035891D01*
X150398893Y-44955503D01*
X150358734Y-44874853D01*
X150354740Y-44860816D01*
X150350791Y-44852347D01*
X150325891Y-44759423D01*
X150300040Y-44668563D01*
X150299244Y-44659975D01*
X150298376Y-44656735D01*
X150288784Y-44547097D01*
X150280250Y-44455000D01*
X150288781Y-44362928D01*
X150298376Y-44253264D01*
X150299244Y-44250023D01*
X150300040Y-44241437D01*
X150325887Y-44150593D01*
X150350791Y-44057652D01*
X150354740Y-44049181D01*
X150358734Y-44035147D01*
X150398890Y-43954502D01*
X150436378Y-43874109D01*
X150445182Y-43861534D01*
X150454335Y-43843154D01*
X150505415Y-43775512D01*
X150552527Y-43708230D01*
X150567631Y-43693125D01*
X150583587Y-43671997D01*
X150642119Y-43618637D01*
X150695730Y-43565027D01*
X150718140Y-43549335D01*
X150742088Y-43527504D01*
X150804570Y-43488816D01*
X150861609Y-43448878D01*
X150891843Y-43434779D01*
X150924441Y-43414596D01*
X150987595Y-43390129D01*
X151045152Y-43363291D01*
X151083171Y-43353103D01*
X151124435Y-43337118D01*
X151185267Y-43325746D01*
X151240764Y-43310876D01*
X151285979Y-43306920D01*
X151335261Y-43297708D01*
X151370340Y-43297708D01*
X151370340Y-43072292D01*
X151335261Y-43072292D01*
X151285972Y-43063078D01*
X151240764Y-43059123D01*
X151185279Y-43044255D01*
X151124435Y-43032882D01*
X151083163Y-43016893D01*
X151045152Y-43006708D01*
X150987606Y-42979874D01*
X150924441Y-42955404D01*
X150891839Y-42935217D01*
X150861608Y-42921121D01*
X150804577Y-42881187D01*
X150742088Y-42842496D01*
X150718136Y-42820660D01*
X150695730Y-42804972D01*
X150642130Y-42751372D01*
X150583587Y-42698003D01*
X150567628Y-42676870D01*
X150552527Y-42661769D01*
X150505421Y-42594495D01*
X150454335Y-42526846D01*
X150445182Y-42508464D01*
X150436378Y-42495891D01*
X150398893Y-42415503D01*
X150358734Y-42334853D01*
X150354740Y-42320816D01*
X150350791Y-42312347D01*
X150325891Y-42219423D01*
X150300040Y-42128563D01*
X150299244Y-42119975D01*
X150298376Y-42116735D01*
X150288784Y-42007097D01*
X150280250Y-41915000D01*
X150288781Y-41822928D01*
X150298376Y-41713264D01*
X150299244Y-41710023D01*
X150300040Y-41701437D01*
X150325887Y-41610593D01*
X150350791Y-41517652D01*
X150354740Y-41509181D01*
X150358734Y-41495147D01*
X150398890Y-41414502D01*
X150436378Y-41334109D01*
X150445182Y-41321534D01*
X150454335Y-41303154D01*
X150505415Y-41235512D01*
X150552527Y-41168230D01*
X150567631Y-41153125D01*
X150583587Y-41131997D01*
X150642119Y-41078637D01*
X150695730Y-41025027D01*
X150718140Y-41009335D01*
X150742088Y-40987504D01*
X150804570Y-40948816D01*
X150861609Y-40908878D01*
X150891843Y-40894779D01*
X150924441Y-40874596D01*
X150987595Y-40850129D01*
X151045152Y-40823291D01*
X151083171Y-40813103D01*
X151124435Y-40797118D01*
X151185267Y-40785746D01*
X151240764Y-40770876D01*
X151285979Y-40766920D01*
X151335261Y-40757708D01*
X151370340Y-40757708D01*
X151370340Y-40532292D01*
X151335261Y-40532292D01*
X151285972Y-40523078D01*
X151240764Y-40519123D01*
X151185279Y-40504255D01*
X151124435Y-40492882D01*
X151083163Y-40476893D01*
X151045152Y-40466708D01*
X150987606Y-40439874D01*
X150924441Y-40415404D01*
X150891839Y-40395217D01*
X150861608Y-40381121D01*
X150804577Y-40341187D01*
X150742088Y-40302496D01*
X150718136Y-40280660D01*
X150695730Y-40264972D01*
X150642130Y-40211372D01*
X150583587Y-40158003D01*
X150567628Y-40136870D01*
X150552527Y-40121769D01*
X150505421Y-40054495D01*
X150454335Y-39986846D01*
X150445182Y-39968464D01*
X150436378Y-39955891D01*
X150398893Y-39875503D01*
X150358734Y-39794853D01*
X150354740Y-39780816D01*
X150350791Y-39772347D01*
X150325891Y-39679423D01*
X150300040Y-39588563D01*
X150299244Y-39579975D01*
X150298376Y-39576735D01*
X150288784Y-39467097D01*
X150280250Y-39375000D01*
X150288781Y-39282928D01*
X150298376Y-39173264D01*
X150299244Y-39170023D01*
X150300040Y-39161437D01*
X150325887Y-39070593D01*
X150350791Y-38977652D01*
X150354740Y-38969181D01*
X150358734Y-38955147D01*
X150398890Y-38874502D01*
X150436378Y-38794109D01*
X150445182Y-38781534D01*
X150454335Y-38763154D01*
X150505415Y-38695512D01*
X150552527Y-38628230D01*
X150567631Y-38613125D01*
X150583587Y-38591997D01*
X150642119Y-38538637D01*
X150695730Y-38485027D01*
X150718140Y-38469335D01*
X150742088Y-38447504D01*
X150804570Y-38408816D01*
X150861609Y-38368878D01*
X150891843Y-38354779D01*
X150924441Y-38334596D01*
X150987595Y-38310129D01*
X151045152Y-38283291D01*
X151083171Y-38273103D01*
X151124435Y-38257118D01*
X151185267Y-38245746D01*
X151240764Y-38230876D01*
X151285979Y-38226920D01*
X151335261Y-38217708D01*
X151370340Y-38217708D01*
X151370340Y-37992292D01*
X151335261Y-37992292D01*
X151285972Y-37983078D01*
X151240764Y-37979123D01*
X151185279Y-37964255D01*
X151124435Y-37952882D01*
X151083163Y-37936893D01*
X151045152Y-37926708D01*
X150987606Y-37899874D01*
X150924441Y-37875404D01*
X150891839Y-37855217D01*
X150861608Y-37841121D01*
X150804577Y-37801187D01*
X150742088Y-37762496D01*
X150718136Y-37740660D01*
X150695730Y-37724972D01*
X150642130Y-37671372D01*
X150583587Y-37618003D01*
X150567628Y-37596870D01*
X150552527Y-37581769D01*
X150505421Y-37514495D01*
X150454335Y-37446846D01*
X150445182Y-37428464D01*
X150436378Y-37415891D01*
X150398893Y-37335503D01*
X150358734Y-37254853D01*
X150354740Y-37240816D01*
X150350791Y-37232347D01*
X150325891Y-37139423D01*
X150300040Y-37048563D01*
X150299244Y-37039975D01*
X150298376Y-37036735D01*
X150288784Y-36927097D01*
X150280250Y-36835000D01*
X150288781Y-36742928D01*
X150298376Y-36633264D01*
X150299244Y-36630023D01*
X150300040Y-36621437D01*
X150325887Y-36530593D01*
X150350791Y-36437652D01*
X150354740Y-36429181D01*
X150358734Y-36415147D01*
X150398890Y-36334502D01*
X150436378Y-36254109D01*
X150445182Y-36241534D01*
X150454335Y-36223154D01*
X150505415Y-36155512D01*
X150552527Y-36088230D01*
X150567631Y-36073125D01*
X150583587Y-36051997D01*
X150642119Y-35998637D01*
X150695730Y-35945027D01*
X150718140Y-35929335D01*
X150742088Y-35907504D01*
X150804570Y-35868816D01*
X150861609Y-35828878D01*
X150891843Y-35814779D01*
X150924441Y-35794596D01*
X150987595Y-35770129D01*
X151045152Y-35743291D01*
X151083171Y-35733103D01*
X151124435Y-35717118D01*
X151185267Y-35705746D01*
X151240764Y-35690876D01*
X151285979Y-35686920D01*
X151335261Y-35677708D01*
X151370340Y-35677708D01*
X151370340Y-35452292D01*
X151335261Y-35452292D01*
X151285972Y-35443078D01*
X151240764Y-35439123D01*
X151185279Y-35424255D01*
X151124435Y-35412882D01*
X151083163Y-35396893D01*
X151045152Y-35386708D01*
X150987606Y-35359874D01*
X150924441Y-35335404D01*
X150891839Y-35315217D01*
X150861608Y-35301121D01*
X150804577Y-35261187D01*
X150742088Y-35222496D01*
X150718136Y-35200660D01*
X150695730Y-35184972D01*
X150642130Y-35131372D01*
X150583587Y-35078003D01*
X150567628Y-35056870D01*
X150552527Y-35041769D01*
X150505421Y-34974495D01*
X150454335Y-34906846D01*
X150445182Y-34888464D01*
X150436378Y-34875891D01*
X150398893Y-34795503D01*
X150358734Y-34714853D01*
X150354740Y-34700816D01*
X150350791Y-34692347D01*
X150325891Y-34599423D01*
X150300040Y-34508563D01*
X150299244Y-34499975D01*
X150298376Y-34496735D01*
X150288784Y-34387097D01*
X150280250Y-34295000D01*
X150288781Y-34202928D01*
X150298376Y-34093264D01*
X150299244Y-34090023D01*
X150300040Y-34081437D01*
X150325887Y-33990593D01*
X150350791Y-33897652D01*
X150354740Y-33889181D01*
X150358734Y-33875147D01*
X150398890Y-33794502D01*
X150436378Y-33714109D01*
X150445182Y-33701534D01*
X150454335Y-33683154D01*
X150505415Y-33615512D01*
X150552527Y-33548230D01*
X150567631Y-33533125D01*
X150583587Y-33511997D01*
X150642119Y-33458637D01*
X150695730Y-33405027D01*
X150718140Y-33389335D01*
X150742088Y-33367504D01*
X150804570Y-33328816D01*
X150861609Y-33288878D01*
X150891843Y-33274779D01*
X150924441Y-33254596D01*
X150987595Y-33230129D01*
X151045152Y-33203291D01*
X151083171Y-33193103D01*
X151124435Y-33177118D01*
X151185267Y-33165746D01*
X151240764Y-33150876D01*
X151285979Y-33146920D01*
X151335261Y-33137708D01*
X151370340Y-33137708D01*
X151370340Y-32912292D01*
X151335261Y-32912292D01*
X151285972Y-32903078D01*
X151240764Y-32899123D01*
X151185279Y-32884255D01*
X151124435Y-32872882D01*
X151083163Y-32856893D01*
X151045152Y-32846708D01*
X150987606Y-32819874D01*
X150924441Y-32795404D01*
X150891839Y-32775217D01*
X150861608Y-32761121D01*
X150804577Y-32721187D01*
X150742088Y-32682496D01*
X150718136Y-32660660D01*
X150695730Y-32644972D01*
X150642130Y-32591372D01*
X150583587Y-32538003D01*
X150567628Y-32516870D01*
X150552527Y-32501769D01*
X150505421Y-32434495D01*
X150454335Y-32366846D01*
X150445182Y-32348464D01*
X150436378Y-32335891D01*
X150398893Y-32255503D01*
X150358734Y-32174853D01*
X150354740Y-32160816D01*
X150350791Y-32152347D01*
X150325891Y-32059423D01*
X150300040Y-31968563D01*
X150299244Y-31959975D01*
X150298376Y-31956735D01*
X150288784Y-31847097D01*
X150280250Y-31755000D01*
X150288781Y-31662928D01*
X150298376Y-31553264D01*
X150299244Y-31550023D01*
X150300040Y-31541437D01*
X150325887Y-31450593D01*
X150350791Y-31357652D01*
X150354740Y-31349181D01*
X150358734Y-31335147D01*
X150398890Y-31254502D01*
X150436378Y-31174109D01*
X150445182Y-31161534D01*
X150454335Y-31143154D01*
X150505415Y-31075512D01*
X150552527Y-31008230D01*
X150567631Y-30993125D01*
X150583587Y-30971997D01*
X150642119Y-30918637D01*
X150695730Y-30865027D01*
X150718140Y-30849335D01*
X150742088Y-30827504D01*
X150804570Y-30788816D01*
X150861609Y-30748878D01*
X150891843Y-30734779D01*
X150924441Y-30714596D01*
X150987595Y-30690129D01*
X151045152Y-30663291D01*
X151083171Y-30653103D01*
X151124435Y-30637118D01*
X151185267Y-30625746D01*
X151240764Y-30610876D01*
X151285979Y-30606920D01*
X151335261Y-30597708D01*
X151391280Y-30597708D01*
X151442500Y-30593227D01*
X151493720Y-30597708D01*
G37*
G36*
X141207785Y-73085494D02*
G01*
X141256773Y-73118227D01*
X141289506Y-73167215D01*
X141290730Y-73173369D01*
X141308187Y-73199495D01*
X141441813Y-73199495D01*
X141459270Y-73173368D01*
X141460494Y-73167215D01*
X141493227Y-73118227D01*
X141542215Y-73085494D01*
X141600000Y-73074000D01*
X141800000Y-73074000D01*
X141857785Y-73085494D01*
X141906773Y-73118227D01*
X141939506Y-73167215D01*
X141940730Y-73173369D01*
X141958187Y-73199495D01*
X142091813Y-73199495D01*
X142109270Y-73173368D01*
X142110494Y-73167215D01*
X142143227Y-73118227D01*
X142192215Y-73085494D01*
X142250000Y-73074000D01*
X142450000Y-73074000D01*
X142507785Y-73085494D01*
X142556773Y-73118227D01*
X142589506Y-73167215D01*
X142590730Y-73173369D01*
X142608187Y-73199495D01*
X142741813Y-73199495D01*
X142759270Y-73173368D01*
X142760494Y-73167215D01*
X142793227Y-73118227D01*
X142842215Y-73085494D01*
X142900000Y-73074000D01*
X143100000Y-73074000D01*
X143157785Y-73085494D01*
X143206773Y-73118227D01*
X143239506Y-73167215D01*
X143240730Y-73173369D01*
X143258187Y-73199495D01*
X143391813Y-73199495D01*
X143409270Y-73173368D01*
X143410494Y-73167215D01*
X143443227Y-73118227D01*
X143492215Y-73085494D01*
X143550000Y-73074000D01*
X143750000Y-73074000D01*
X143807785Y-73085494D01*
X143856773Y-73118227D01*
X143889506Y-73167215D01*
X143890730Y-73173369D01*
X143908187Y-73199495D01*
X144041813Y-73199495D01*
X144059270Y-73173368D01*
X144060494Y-73167215D01*
X144093227Y-73118227D01*
X144142215Y-73085494D01*
X144200000Y-73074000D01*
X144400000Y-73074000D01*
X144457785Y-73085494D01*
X144506773Y-73118227D01*
X144539506Y-73167215D01*
X144540730Y-73173369D01*
X144558187Y-73199495D01*
X144691813Y-73199495D01*
X144709270Y-73173368D01*
X144710494Y-73167215D01*
X144743227Y-73118227D01*
X144792215Y-73085494D01*
X144850000Y-73074000D01*
X145050000Y-73074000D01*
X145107785Y-73085494D01*
X145156773Y-73118227D01*
X145189506Y-73167215D01*
X145201000Y-73225000D01*
X145201000Y-74500000D01*
X145189506Y-74557785D01*
X145156773Y-74606773D01*
X145107785Y-74639506D01*
X145050000Y-74651000D01*
X144850000Y-74651000D01*
X144792215Y-74639506D01*
X144743227Y-74606773D01*
X144710494Y-74557785D01*
X144709269Y-74551628D01*
X144691814Y-74525504D01*
X144558186Y-74525504D01*
X144540730Y-74551628D01*
X144539506Y-74557785D01*
X144506773Y-74606773D01*
X144457785Y-74639506D01*
X144400000Y-74651000D01*
X144200000Y-74651000D01*
X144142215Y-74639506D01*
X144093227Y-74606773D01*
X144060494Y-74557785D01*
X144059269Y-74551628D01*
X144041814Y-74525504D01*
X143908186Y-74525504D01*
X143890730Y-74551628D01*
X143889506Y-74557785D01*
X143856773Y-74606773D01*
X143807785Y-74639506D01*
X143750000Y-74651000D01*
X143550000Y-74651000D01*
X143492215Y-74639506D01*
X143443227Y-74606773D01*
X143410494Y-74557785D01*
X143409269Y-74551628D01*
X143391814Y-74525504D01*
X143258186Y-74525504D01*
X143240730Y-74551628D01*
X143239506Y-74557785D01*
X143206773Y-74606773D01*
X143157785Y-74639506D01*
X143100000Y-74651000D01*
X142900000Y-74651000D01*
X142842215Y-74639506D01*
X142793227Y-74606773D01*
X142760494Y-74557785D01*
X142759269Y-74551628D01*
X142741814Y-74525504D01*
X142608186Y-74525504D01*
X142590730Y-74551628D01*
X142589506Y-74557785D01*
X142556773Y-74606773D01*
X142507785Y-74639506D01*
X142450000Y-74651000D01*
X142250000Y-74651000D01*
X142192215Y-74639506D01*
X142143227Y-74606773D01*
X142110494Y-74557785D01*
X142109269Y-74551628D01*
X142091814Y-74525504D01*
X141958186Y-74525504D01*
X141940730Y-74551628D01*
X141939506Y-74557785D01*
X141906773Y-74606773D01*
X141857785Y-74639506D01*
X141800000Y-74651000D01*
X141600000Y-74651000D01*
X141542215Y-74639506D01*
X141493227Y-74606773D01*
X141460494Y-74557785D01*
X141459269Y-74551628D01*
X141441814Y-74525504D01*
X141308186Y-74525504D01*
X141290730Y-74551628D01*
X141289506Y-74557785D01*
X141256773Y-74606773D01*
X141207785Y-74639506D01*
X141150000Y-74651000D01*
X140950000Y-74651000D01*
X140892215Y-74639506D01*
X140843227Y-74606773D01*
X140810494Y-74557785D01*
X140799000Y-74500000D01*
X140799000Y-73225000D01*
X140810494Y-73167215D01*
X140843227Y-73118227D01*
X140892215Y-73085494D01*
X140950000Y-73074000D01*
X141150000Y-73074000D01*
X141207785Y-73085494D01*
G37*
G36*
X141207785Y-67360494D02*
G01*
X141256773Y-67393227D01*
X141289506Y-67442215D01*
X141290730Y-67448369D01*
X141308187Y-67474495D01*
X141441813Y-67474495D01*
X141459270Y-67448368D01*
X141460494Y-67442215D01*
X141493227Y-67393227D01*
X141542215Y-67360494D01*
X141600000Y-67349000D01*
X141800000Y-67349000D01*
X141857785Y-67360494D01*
X141906773Y-67393227D01*
X141939506Y-67442215D01*
X141940730Y-67448369D01*
X141958187Y-67474495D01*
X142091813Y-67474495D01*
X142109270Y-67448368D01*
X142110494Y-67442215D01*
X142143227Y-67393227D01*
X142192215Y-67360494D01*
X142250000Y-67349000D01*
X142450000Y-67349000D01*
X142507785Y-67360494D01*
X142556773Y-67393227D01*
X142589506Y-67442215D01*
X142590730Y-67448369D01*
X142608187Y-67474495D01*
X142741813Y-67474495D01*
X142759270Y-67448368D01*
X142760494Y-67442215D01*
X142793227Y-67393227D01*
X142842215Y-67360494D01*
X142900000Y-67349000D01*
X143100000Y-67349000D01*
X143157785Y-67360494D01*
X143206773Y-67393227D01*
X143239506Y-67442215D01*
X143240730Y-67448369D01*
X143258187Y-67474495D01*
X143391813Y-67474495D01*
X143409270Y-67448368D01*
X143410494Y-67442215D01*
X143443227Y-67393227D01*
X143492215Y-67360494D01*
X143550000Y-67349000D01*
X143750000Y-67349000D01*
X143807785Y-67360494D01*
X143856773Y-67393227D01*
X143889506Y-67442215D01*
X143890730Y-67448369D01*
X143908187Y-67474495D01*
X144041813Y-67474495D01*
X144059270Y-67448368D01*
X144060494Y-67442215D01*
X144093227Y-67393227D01*
X144142215Y-67360494D01*
X144200000Y-67349000D01*
X144400000Y-67349000D01*
X144457785Y-67360494D01*
X144506773Y-67393227D01*
X144539506Y-67442215D01*
X144540730Y-67448369D01*
X144558187Y-67474495D01*
X144691813Y-67474495D01*
X144709270Y-67448368D01*
X144710494Y-67442215D01*
X144743227Y-67393227D01*
X144792215Y-67360494D01*
X144850000Y-67349000D01*
X145050000Y-67349000D01*
X145107785Y-67360494D01*
X145156773Y-67393227D01*
X145189506Y-67442215D01*
X145201000Y-67500000D01*
X145201000Y-68775000D01*
X145189506Y-68832785D01*
X145156773Y-68881773D01*
X145107785Y-68914506D01*
X145050000Y-68926000D01*
X144850000Y-68926000D01*
X144792215Y-68914506D01*
X144743227Y-68881773D01*
X144710494Y-68832785D01*
X144709269Y-68826628D01*
X144691814Y-68800504D01*
X144558186Y-68800504D01*
X144540730Y-68826628D01*
X144539506Y-68832785D01*
X144506773Y-68881773D01*
X144457785Y-68914506D01*
X144400000Y-68926000D01*
X144200000Y-68926000D01*
X144142215Y-68914506D01*
X144093227Y-68881773D01*
X144060494Y-68832785D01*
X144059269Y-68826628D01*
X144041814Y-68800504D01*
X143908186Y-68800504D01*
X143890730Y-68826628D01*
X143889506Y-68832785D01*
X143856773Y-68881773D01*
X143807785Y-68914506D01*
X143750000Y-68926000D01*
X143550000Y-68926000D01*
X143492215Y-68914506D01*
X143443227Y-68881773D01*
X143410494Y-68832785D01*
X143409269Y-68826628D01*
X143391814Y-68800504D01*
X143258186Y-68800504D01*
X143240730Y-68826628D01*
X143239506Y-68832785D01*
X143206773Y-68881773D01*
X143157785Y-68914506D01*
X143100000Y-68926000D01*
X142900000Y-68926000D01*
X142842215Y-68914506D01*
X142793227Y-68881773D01*
X142760494Y-68832785D01*
X142759269Y-68826628D01*
X142741814Y-68800504D01*
X142608186Y-68800504D01*
X142590730Y-68826628D01*
X142589506Y-68832785D01*
X142556773Y-68881773D01*
X142507785Y-68914506D01*
X142450000Y-68926000D01*
X142250000Y-68926000D01*
X142192215Y-68914506D01*
X142143227Y-68881773D01*
X142110494Y-68832785D01*
X142109269Y-68826628D01*
X142091814Y-68800504D01*
X141958186Y-68800504D01*
X141940730Y-68826628D01*
X141939506Y-68832785D01*
X141906773Y-68881773D01*
X141857785Y-68914506D01*
X141800000Y-68926000D01*
X141600000Y-68926000D01*
X141542215Y-68914506D01*
X141493227Y-68881773D01*
X141460494Y-68832785D01*
X141459269Y-68826628D01*
X141441814Y-68800504D01*
X141308186Y-68800504D01*
X141290730Y-68826628D01*
X141289506Y-68832785D01*
X141256773Y-68881773D01*
X141207785Y-68914506D01*
X141150000Y-68926000D01*
X140950000Y-68926000D01*
X140892215Y-68914506D01*
X140843227Y-68881773D01*
X140810494Y-68832785D01*
X140799000Y-68775000D01*
X140799000Y-67500000D01*
X140810494Y-67442215D01*
X140843227Y-67393227D01*
X140892215Y-67360494D01*
X140950000Y-67349000D01*
X141150000Y-67349000D01*
X141207785Y-67360494D01*
G37*
G36*
X141100914Y-64001995D02*
G01*
X141116726Y-64008976D01*
X141124531Y-64010213D01*
X141157039Y-64026776D01*
X141202106Y-64046676D01*
X141280324Y-64124894D01*
X141300226Y-64169967D01*
X141316786Y-64202468D01*
X141318021Y-64210270D01*
X141325005Y-64226086D01*
X141333000Y-64295000D01*
X141333000Y-65245000D01*
X141325005Y-65313914D01*
X141318021Y-65329729D01*
X141316786Y-65337531D01*
X141300229Y-65370024D01*
X141280324Y-65415106D01*
X141202106Y-65493324D01*
X141157024Y-65513229D01*
X141124531Y-65529786D01*
X141116729Y-65531021D01*
X141100914Y-65538005D01*
X141032000Y-65546000D01*
X140357000Y-65546000D01*
X140288086Y-65538005D01*
X140272270Y-65531021D01*
X140264468Y-65529786D01*
X140231967Y-65513226D01*
X140186894Y-65493324D01*
X140108676Y-65415106D01*
X140088776Y-65370039D01*
X140072213Y-65337531D01*
X140070976Y-65329726D01*
X140063995Y-65313914D01*
X140056000Y-65245000D01*
X140056000Y-64295000D01*
X140063995Y-64226086D01*
X140070976Y-64210274D01*
X140072213Y-64202468D01*
X140088780Y-64169953D01*
X140108676Y-64124894D01*
X140186894Y-64046676D01*
X140231953Y-64026780D01*
X140264468Y-64010213D01*
X140272274Y-64008976D01*
X140288086Y-64001995D01*
X140357000Y-63994000D01*
X141032000Y-63994000D01*
X141100914Y-64001995D01*
G37*
G36*
X143175914Y-64001995D02*
G01*
X143191726Y-64008976D01*
X143199531Y-64010213D01*
X143232039Y-64026776D01*
X143277106Y-64046676D01*
X143355324Y-64124894D01*
X143375226Y-64169967D01*
X143391786Y-64202468D01*
X143393021Y-64210270D01*
X143400005Y-64226086D01*
X143408000Y-64295000D01*
X143408000Y-65245000D01*
X143400005Y-65313914D01*
X143393021Y-65329729D01*
X143391786Y-65337531D01*
X143375229Y-65370024D01*
X143355324Y-65415106D01*
X143277106Y-65493324D01*
X143232024Y-65513229D01*
X143199531Y-65529786D01*
X143191729Y-65531021D01*
X143175914Y-65538005D01*
X143107000Y-65546000D01*
X142432000Y-65546000D01*
X142363086Y-65538005D01*
X142347270Y-65531021D01*
X142339468Y-65529786D01*
X142306967Y-65513226D01*
X142261894Y-65493324D01*
X142183676Y-65415106D01*
X142163776Y-65370039D01*
X142147213Y-65337531D01*
X142145976Y-65329726D01*
X142138995Y-65313914D01*
X142131000Y-65245000D01*
X142131000Y-64295000D01*
X142138995Y-64226086D01*
X142145976Y-64210274D01*
X142147213Y-64202468D01*
X142163780Y-64169953D01*
X142183676Y-64124894D01*
X142261894Y-64046676D01*
X142306953Y-64026780D01*
X142339468Y-64010213D01*
X142347274Y-64008976D01*
X142363086Y-64001995D01*
X142432000Y-63994000D01*
X143107000Y-63994000D01*
X143175914Y-64001995D01*
G37*
G36*
X141122414Y-41903995D02*
G01*
X141138226Y-41910976D01*
X141146031Y-41912213D01*
X141178539Y-41928776D01*
X141223606Y-41948676D01*
X141301824Y-42026894D01*
X141321726Y-42071967D01*
X141338286Y-42104468D01*
X141339521Y-42112270D01*
X141346505Y-42128086D01*
X141354500Y-42197000D01*
X141354500Y-43147000D01*
X141346505Y-43215914D01*
X141339521Y-43231729D01*
X141338286Y-43239531D01*
X141321729Y-43272024D01*
X141301824Y-43317106D01*
X141223606Y-43395324D01*
X141178524Y-43415229D01*
X141146031Y-43431786D01*
X141138229Y-43433021D01*
X141122414Y-43440005D01*
X141053500Y-43448000D01*
X140378500Y-43448000D01*
X140309586Y-43440005D01*
X140293770Y-43433021D01*
X140285968Y-43431786D01*
X140253467Y-43415226D01*
X140208394Y-43395324D01*
X140130176Y-43317106D01*
X140110276Y-43272039D01*
X140093713Y-43239531D01*
X140092476Y-43231726D01*
X140085495Y-43215914D01*
X140077500Y-43147000D01*
X140077500Y-42197000D01*
X140085495Y-42128086D01*
X140092476Y-42112274D01*
X140093713Y-42104468D01*
X140110280Y-42071953D01*
X140130176Y-42026894D01*
X140208394Y-41948676D01*
X140253453Y-41928780D01*
X140285968Y-41912213D01*
X140293774Y-41910976D01*
X140309586Y-41903995D01*
X140378500Y-41896000D01*
X141053500Y-41896000D01*
X141122414Y-41903995D01*
G37*
G36*
X143197414Y-41903995D02*
G01*
X143213226Y-41910976D01*
X143221031Y-41912213D01*
X143253539Y-41928776D01*
X143298606Y-41948676D01*
X143376824Y-42026894D01*
X143396726Y-42071967D01*
X143413286Y-42104468D01*
X143414521Y-42112270D01*
X143421505Y-42128086D01*
X143429500Y-42197000D01*
X143429500Y-43147000D01*
X143421505Y-43215914D01*
X143414521Y-43231729D01*
X143413286Y-43239531D01*
X143396729Y-43272024D01*
X143376824Y-43317106D01*
X143298606Y-43395324D01*
X143253524Y-43415229D01*
X143221031Y-43431786D01*
X143213229Y-43433021D01*
X143197414Y-43440005D01*
X143128500Y-43448000D01*
X142453500Y-43448000D01*
X142384586Y-43440005D01*
X142368770Y-43433021D01*
X142360968Y-43431786D01*
X142328467Y-43415226D01*
X142283394Y-43395324D01*
X142205176Y-43317106D01*
X142185276Y-43272039D01*
X142168713Y-43239531D01*
X142167476Y-43231726D01*
X142160495Y-43215914D01*
X142152500Y-43147000D01*
X142152500Y-42197000D01*
X142160495Y-42128086D01*
X142167476Y-42112274D01*
X142168713Y-42104468D01*
X142185280Y-42071953D01*
X142205176Y-42026894D01*
X142283394Y-41948676D01*
X142328453Y-41928780D01*
X142360968Y-41912213D01*
X142368774Y-41910976D01*
X142384586Y-41903995D01*
X142453500Y-41896000D01*
X143128500Y-41896000D01*
X143197414Y-41903995D01*
G37*
G36*
X140870285Y-37585494D02*
G01*
X140919273Y-37618227D01*
X140952006Y-37667215D01*
X140953230Y-37673369D01*
X140970687Y-37699495D01*
X141104313Y-37699495D01*
X141121770Y-37673368D01*
X141122994Y-37667215D01*
X141155727Y-37618227D01*
X141204715Y-37585494D01*
X141262500Y-37574000D01*
X141462500Y-37574000D01*
X141520285Y-37585494D01*
X141569273Y-37618227D01*
X141602006Y-37667215D01*
X141603230Y-37673369D01*
X141620687Y-37699495D01*
X141754313Y-37699495D01*
X141771770Y-37673368D01*
X141772994Y-37667215D01*
X141805727Y-37618227D01*
X141854715Y-37585494D01*
X141912500Y-37574000D01*
X142112500Y-37574000D01*
X142170285Y-37585494D01*
X142219273Y-37618227D01*
X142252006Y-37667215D01*
X142253230Y-37673369D01*
X142270687Y-37699495D01*
X142404313Y-37699495D01*
X142421770Y-37673368D01*
X142422994Y-37667215D01*
X142455727Y-37618227D01*
X142504715Y-37585494D01*
X142562500Y-37574000D01*
X142762500Y-37574000D01*
X142820285Y-37585494D01*
X142869273Y-37618227D01*
X142902006Y-37667215D01*
X142903230Y-37673369D01*
X142920687Y-37699495D01*
X143054313Y-37699495D01*
X143071770Y-37673368D01*
X143072994Y-37667215D01*
X143105727Y-37618227D01*
X143154715Y-37585494D01*
X143212500Y-37574000D01*
X143412500Y-37574000D01*
X143470285Y-37585494D01*
X143519273Y-37618227D01*
X143552006Y-37667215D01*
X143553230Y-37673369D01*
X143570687Y-37699495D01*
X143704313Y-37699495D01*
X143721770Y-37673368D01*
X143722994Y-37667215D01*
X143755727Y-37618227D01*
X143804715Y-37585494D01*
X143862500Y-37574000D01*
X144062500Y-37574000D01*
X144120285Y-37585494D01*
X144169273Y-37618227D01*
X144202006Y-37667215D01*
X144203230Y-37673373D01*
X144220684Y-37699494D01*
X144354310Y-37699496D01*
X144371770Y-37673365D01*
X144372994Y-37667215D01*
X144405727Y-37618227D01*
X144454715Y-37585494D01*
X144512500Y-37574000D01*
X144712500Y-37574000D01*
X144770285Y-37585494D01*
X144819273Y-37618227D01*
X144852006Y-37667215D01*
X144853230Y-37673369D01*
X144870687Y-37699495D01*
X145004313Y-37699495D01*
X145021770Y-37673368D01*
X145022994Y-37667215D01*
X145055727Y-37618227D01*
X145104715Y-37585494D01*
X145162500Y-37574000D01*
X145362500Y-37574000D01*
X145420285Y-37585494D01*
X145469273Y-37618227D01*
X145502006Y-37667215D01*
X145503230Y-37673369D01*
X145520687Y-37699495D01*
X145654313Y-37699495D01*
X145671770Y-37673368D01*
X145672994Y-37667215D01*
X145705727Y-37618227D01*
X145754715Y-37585494D01*
X145812500Y-37574000D01*
X146012500Y-37574000D01*
X146070285Y-37585494D01*
X146119273Y-37618227D01*
X146152006Y-37667215D01*
X146153230Y-37673369D01*
X146170687Y-37699495D01*
X146304313Y-37699495D01*
X146321770Y-37673368D01*
X146322994Y-37667215D01*
X146355727Y-37618227D01*
X146404715Y-37585494D01*
X146462500Y-37574000D01*
X146662500Y-37574000D01*
X146720285Y-37585494D01*
X146769273Y-37618227D01*
X146802006Y-37667215D01*
X146813500Y-37725000D01*
X146813500Y-39000000D01*
X146802006Y-39057785D01*
X146769273Y-39106773D01*
X146720285Y-39139506D01*
X146662500Y-39151000D01*
X146462500Y-39151000D01*
X146404715Y-39139506D01*
X146355727Y-39106773D01*
X146322994Y-39057785D01*
X146321769Y-39051628D01*
X146304314Y-39025504D01*
X146170686Y-39025504D01*
X146153230Y-39051628D01*
X146152006Y-39057785D01*
X146119273Y-39106773D01*
X146070285Y-39139506D01*
X146012500Y-39151000D01*
X145812500Y-39151000D01*
X145754715Y-39139506D01*
X145705727Y-39106773D01*
X145672994Y-39057785D01*
X145671769Y-39051628D01*
X145654314Y-39025504D01*
X145520686Y-39025504D01*
X145503230Y-39051628D01*
X145502006Y-39057785D01*
X145469273Y-39106773D01*
X145420285Y-39139506D01*
X145362500Y-39151000D01*
X145162500Y-39151000D01*
X145104715Y-39139506D01*
X145055727Y-39106773D01*
X145022994Y-39057785D01*
X145021769Y-39051628D01*
X145004314Y-39025504D01*
X144870686Y-39025504D01*
X144853230Y-39051628D01*
X144852006Y-39057785D01*
X144819273Y-39106773D01*
X144770285Y-39139506D01*
X144712500Y-39151000D01*
X144512500Y-39151000D01*
X144454715Y-39139506D01*
X144405727Y-39106773D01*
X144372994Y-39057785D01*
X144371769Y-39051628D01*
X144354314Y-39025504D01*
X144220686Y-39025504D01*
X144203230Y-39051628D01*
X144202006Y-39057785D01*
X144169273Y-39106773D01*
X144120285Y-39139506D01*
X144062500Y-39151000D01*
X143862500Y-39151000D01*
X143804715Y-39139506D01*
X143755727Y-39106773D01*
X143722994Y-39057785D01*
X143721769Y-39051628D01*
X143704314Y-39025504D01*
X143570686Y-39025504D01*
X143553230Y-39051628D01*
X143552006Y-39057785D01*
X143519273Y-39106773D01*
X143470285Y-39139506D01*
X143412500Y-39151000D01*
X143212500Y-39151000D01*
X143154715Y-39139506D01*
X143105727Y-39106773D01*
X143072994Y-39057785D01*
X143071769Y-39051628D01*
X143054314Y-39025504D01*
X142920686Y-39025504D01*
X142903230Y-39051628D01*
X142902006Y-39057785D01*
X142869273Y-39106773D01*
X142820285Y-39139506D01*
X142762500Y-39151000D01*
X142562500Y-39151000D01*
X142504715Y-39139506D01*
X142455727Y-39106773D01*
X142422994Y-39057785D01*
X142421769Y-39051628D01*
X142404314Y-39025504D01*
X142270686Y-39025504D01*
X142253230Y-39051628D01*
X142252006Y-39057785D01*
X142219273Y-39106773D01*
X142170285Y-39139506D01*
X142112500Y-39151000D01*
X141912500Y-39151000D01*
X141854715Y-39139506D01*
X141805727Y-39106773D01*
X141772994Y-39057785D01*
X141771769Y-39051628D01*
X141754314Y-39025504D01*
X141620686Y-39025504D01*
X141603230Y-39051628D01*
X141602006Y-39057785D01*
X141569273Y-39106773D01*
X141520285Y-39139506D01*
X141462500Y-39151000D01*
X141262500Y-39151000D01*
X141204715Y-39139506D01*
X141155727Y-39106773D01*
X141122994Y-39057785D01*
X141121769Y-39051628D01*
X141104314Y-39025504D01*
X140970686Y-39025504D01*
X140953230Y-39051628D01*
X140952006Y-39057785D01*
X140919273Y-39106773D01*
X140870285Y-39139506D01*
X140812500Y-39151000D01*
X140612500Y-39151000D01*
X140554715Y-39139506D01*
X140505727Y-39106773D01*
X140472994Y-39057785D01*
X140461500Y-39000000D01*
X140461500Y-37725000D01*
X140472994Y-37667215D01*
X140505727Y-37618227D01*
X140554715Y-37585494D01*
X140612500Y-37574000D01*
X140812500Y-37574000D01*
X140870285Y-37585494D01*
G37*
G36*
X140870285Y-31860494D02*
G01*
X140919273Y-31893227D01*
X140952006Y-31942215D01*
X140953230Y-31948369D01*
X140970687Y-31974495D01*
X141104313Y-31974495D01*
X141121770Y-31948368D01*
X141122994Y-31942215D01*
X141155727Y-31893227D01*
X141204715Y-31860494D01*
X141262500Y-31849000D01*
X141462500Y-31849000D01*
X141520285Y-31860494D01*
X141569273Y-31893227D01*
X141602006Y-31942215D01*
X141603230Y-31948369D01*
X141620687Y-31974495D01*
X141754313Y-31974495D01*
X141771770Y-31948368D01*
X141772994Y-31942215D01*
X141805727Y-31893227D01*
X141854715Y-31860494D01*
X141912500Y-31849000D01*
X142112500Y-31849000D01*
X142170285Y-31860494D01*
X142219273Y-31893227D01*
X142252006Y-31942215D01*
X142253230Y-31948369D01*
X142270687Y-31974495D01*
X142404313Y-31974495D01*
X142421770Y-31948368D01*
X142422994Y-31942215D01*
X142455727Y-31893227D01*
X142504715Y-31860494D01*
X142562500Y-31849000D01*
X142762500Y-31849000D01*
X142820285Y-31860494D01*
X142869273Y-31893227D01*
X142902006Y-31942215D01*
X142903230Y-31948369D01*
X142920687Y-31974495D01*
X143054313Y-31974495D01*
X143071770Y-31948368D01*
X143072994Y-31942215D01*
X143105727Y-31893227D01*
X143154715Y-31860494D01*
X143212500Y-31849000D01*
X143412500Y-31849000D01*
X143470285Y-31860494D01*
X143519273Y-31893227D01*
X143552006Y-31942215D01*
X143553230Y-31948369D01*
X143570687Y-31974495D01*
X143704313Y-31974495D01*
X143721770Y-31948368D01*
X143722994Y-31942215D01*
X143755727Y-31893227D01*
X143804715Y-31860494D01*
X143862500Y-31849000D01*
X144062500Y-31849000D01*
X144120285Y-31860494D01*
X144169273Y-31893227D01*
X144202006Y-31942215D01*
X144203230Y-31948373D01*
X144220684Y-31974494D01*
X144354310Y-31974496D01*
X144371770Y-31948365D01*
X144372994Y-31942215D01*
X144405727Y-31893227D01*
X144454715Y-31860494D01*
X144512500Y-31849000D01*
X144712500Y-31849000D01*
X144770285Y-31860494D01*
X144819273Y-31893227D01*
X144852006Y-31942215D01*
X144853230Y-31948369D01*
X144870687Y-31974495D01*
X145004313Y-31974495D01*
X145021770Y-31948368D01*
X145022994Y-31942215D01*
X145055727Y-31893227D01*
X145104715Y-31860494D01*
X145162500Y-31849000D01*
X145362500Y-31849000D01*
X145420285Y-31860494D01*
X145469273Y-31893227D01*
X145502006Y-31942215D01*
X145503230Y-31948369D01*
X145520687Y-31974495D01*
X145654313Y-31974495D01*
X145671770Y-31948368D01*
X145672994Y-31942215D01*
X145705727Y-31893227D01*
X145754715Y-31860494D01*
X145812500Y-31849000D01*
X146012500Y-31849000D01*
X146070285Y-31860494D01*
X146119273Y-31893227D01*
X146152006Y-31942215D01*
X146153230Y-31948369D01*
X146170687Y-31974495D01*
X146304313Y-31974495D01*
X146321770Y-31948368D01*
X146322994Y-31942215D01*
X146355727Y-31893227D01*
X146404715Y-31860494D01*
X146462500Y-31849000D01*
X146662500Y-31849000D01*
X146720285Y-31860494D01*
X146769273Y-31893227D01*
X146802006Y-31942215D01*
X146813500Y-32000000D01*
X146813500Y-33275000D01*
X146802006Y-33332785D01*
X146769273Y-33381773D01*
X146720285Y-33414506D01*
X146662500Y-33426000D01*
X146462500Y-33426000D01*
X146404715Y-33414506D01*
X146355727Y-33381773D01*
X146322994Y-33332785D01*
X146321769Y-33326628D01*
X146304314Y-33300504D01*
X146170686Y-33300504D01*
X146153230Y-33326628D01*
X146152006Y-33332785D01*
X146119273Y-33381773D01*
X146070285Y-33414506D01*
X146012500Y-33426000D01*
X145812500Y-33426000D01*
X145754715Y-33414506D01*
X145705727Y-33381773D01*
X145672994Y-33332785D01*
X145671769Y-33326628D01*
X145654314Y-33300504D01*
X145520686Y-33300504D01*
X145503230Y-33326628D01*
X145502006Y-33332785D01*
X145469273Y-33381773D01*
X145420285Y-33414506D01*
X145362500Y-33426000D01*
X145162500Y-33426000D01*
X145104715Y-33414506D01*
X145055727Y-33381773D01*
X145022994Y-33332785D01*
X145021769Y-33326628D01*
X145004314Y-33300504D01*
X144870686Y-33300504D01*
X144853230Y-33326628D01*
X144852006Y-33332785D01*
X144819273Y-33381773D01*
X144770285Y-33414506D01*
X144712500Y-33426000D01*
X144512500Y-33426000D01*
X144454715Y-33414506D01*
X144405727Y-33381773D01*
X144372994Y-33332785D01*
X144371769Y-33326628D01*
X144354314Y-33300504D01*
X144220686Y-33300504D01*
X144203230Y-33326628D01*
X144202006Y-33332785D01*
X144169273Y-33381773D01*
X144120285Y-33414506D01*
X144062500Y-33426000D01*
X143862500Y-33426000D01*
X143804715Y-33414506D01*
X143755727Y-33381773D01*
X143722994Y-33332785D01*
X143721769Y-33326628D01*
X143704314Y-33300504D01*
X143570686Y-33300504D01*
X143553230Y-33326628D01*
X143552006Y-33332785D01*
X143519273Y-33381773D01*
X143470285Y-33414506D01*
X143412500Y-33426000D01*
X143212500Y-33426000D01*
X143154715Y-33414506D01*
X143105727Y-33381773D01*
X143072994Y-33332785D01*
X143071769Y-33326628D01*
X143054314Y-33300504D01*
X142920686Y-33300504D01*
X142903230Y-33326628D01*
X142902006Y-33332785D01*
X142869273Y-33381773D01*
X142820285Y-33414506D01*
X142762500Y-33426000D01*
X142562500Y-33426000D01*
X142504715Y-33414506D01*
X142455727Y-33381773D01*
X142422994Y-33332785D01*
X142421769Y-33326628D01*
X142404314Y-33300504D01*
X142270686Y-33300504D01*
X142253230Y-33326628D01*
X142252006Y-33332785D01*
X142219273Y-33381773D01*
X142170285Y-33414506D01*
X142112500Y-33426000D01*
X141912500Y-33426000D01*
X141854715Y-33414506D01*
X141805727Y-33381773D01*
X141772994Y-33332785D01*
X141771769Y-33326628D01*
X141754314Y-33300504D01*
X141620686Y-33300504D01*
X141603230Y-33326628D01*
X141602006Y-33332785D01*
X141569273Y-33381773D01*
X141520285Y-33414506D01*
X141462500Y-33426000D01*
X141262500Y-33426000D01*
X141204715Y-33414506D01*
X141155727Y-33381773D01*
X141122994Y-33332785D01*
X141121769Y-33326628D01*
X141104314Y-33300504D01*
X140970686Y-33300504D01*
X140953230Y-33326628D01*
X140952006Y-33332785D01*
X140919273Y-33381773D01*
X140870285Y-33414506D01*
X140812500Y-33426000D01*
X140612500Y-33426000D01*
X140554715Y-33414506D01*
X140505727Y-33381773D01*
X140472994Y-33332785D01*
X140461500Y-33275000D01*
X140461500Y-32000000D01*
X140472994Y-31942215D01*
X140505727Y-31893227D01*
X140554715Y-31860494D01*
X140612500Y-31849000D01*
X140812500Y-31849000D01*
X140870285Y-31860494D01*
G37*
G36*
X151194517Y-26392882D02*
G01*
X151211062Y-26403938D01*
X151222118Y-26420483D01*
X151226000Y-26440000D01*
X151226000Y-28140000D01*
X151222118Y-28159517D01*
X151211062Y-28176062D01*
X151194517Y-28187118D01*
X151175000Y-28191000D01*
X149475000Y-28191000D01*
X149455483Y-28187118D01*
X149438938Y-28176062D01*
X149427882Y-28159517D01*
X149424000Y-28140000D01*
X149424000Y-26440000D01*
X149427882Y-26420483D01*
X149438938Y-26403938D01*
X149455483Y-26392882D01*
X149475000Y-26389000D01*
X151175000Y-26389000D01*
X151194517Y-26392882D01*
G37*
G36*
X137668983Y-26393936D02*
G01*
X137719180Y-26393936D01*
X137762524Y-26403149D01*
X137800659Y-26406905D01*
X137848566Y-26421437D01*
X137903424Y-26433098D01*
X137938530Y-26448728D01*
X137969566Y-26458143D01*
X138018884Y-26484504D01*
X138075500Y-26509711D01*
X138101822Y-26528835D01*
X138125232Y-26541348D01*
X138172988Y-26580540D01*
X138227887Y-26620427D01*
X138245711Y-26640223D01*
X138261675Y-26653324D01*
X138304572Y-26705594D01*
X138353924Y-26760405D01*
X138364292Y-26778363D01*
X138373651Y-26789767D01*
X138408273Y-26854542D01*
X138448104Y-26923530D01*
X138452685Y-26937630D01*
X138456856Y-26945433D01*
X138479852Y-27021242D01*
X138506311Y-27102672D01*
X138507242Y-27111532D01*
X138508094Y-27114340D01*
X138516385Y-27198520D01*
X138526000Y-27290000D01*
X138516382Y-27381501D01*
X138508094Y-27465659D01*
X138507242Y-27468466D01*
X138506311Y-27477328D01*
X138479848Y-27558771D01*
X138456856Y-27634566D01*
X138452686Y-27642366D01*
X138448104Y-27656470D01*
X138408266Y-27725470D01*
X138373651Y-27790232D01*
X138364294Y-27801633D01*
X138353924Y-27819595D01*
X138304563Y-27874415D01*
X138261675Y-27926675D01*
X138245714Y-27939773D01*
X138227887Y-27959573D01*
X138172977Y-27999467D01*
X138125232Y-28038651D01*
X138101827Y-28051161D01*
X138075500Y-28070289D01*
X138018873Y-28095500D01*
X137969566Y-28121856D01*
X137938537Y-28131268D01*
X137903424Y-28146902D01*
X137848555Y-28158564D01*
X137800659Y-28173094D01*
X137762532Y-28176849D01*
X137719180Y-28186064D01*
X137668973Y-28186064D01*
X137625000Y-28190395D01*
X137581027Y-28186064D01*
X137530820Y-28186064D01*
X137487467Y-28176849D01*
X137449340Y-28173094D01*
X137401441Y-28158563D01*
X137346576Y-28146902D01*
X137311464Y-28131269D01*
X137280433Y-28121856D01*
X137231120Y-28095498D01*
X137174500Y-28070289D01*
X137148175Y-28051163D01*
X137124767Y-28038651D01*
X137077013Y-27999460D01*
X137022113Y-27959573D01*
X137004287Y-27939776D01*
X136988324Y-27926675D01*
X136945425Y-27874402D01*
X136896076Y-27819595D01*
X136885708Y-27801637D01*
X136876348Y-27790232D01*
X136841719Y-27725447D01*
X136801896Y-27656470D01*
X136797315Y-27642371D01*
X136793143Y-27634566D01*
X136770136Y-27558725D01*
X136743689Y-27477328D01*
X136742758Y-27468471D01*
X136741905Y-27465659D01*
X136733601Y-27381349D01*
X136724000Y-27290000D01*
X136733598Y-27198672D01*
X136741905Y-27114340D01*
X136742758Y-27111527D01*
X136743689Y-27102672D01*
X136770132Y-27021288D01*
X136793143Y-26945433D01*
X136797315Y-26937626D01*
X136801896Y-26923530D01*
X136841712Y-26854565D01*
X136876348Y-26789767D01*
X136885710Y-26778359D01*
X136896076Y-26760405D01*
X136945416Y-26705607D01*
X136988324Y-26653324D01*
X137004291Y-26640219D01*
X137022113Y-26620427D01*
X137077002Y-26580546D01*
X137124767Y-26541348D01*
X137148180Y-26528833D01*
X137174500Y-26509711D01*
X137231109Y-26484506D01*
X137280433Y-26458143D01*
X137311471Y-26448727D01*
X137346576Y-26433098D01*
X137401430Y-26421438D01*
X137449340Y-26406905D01*
X137487476Y-26403148D01*
X137530820Y-26393936D01*
X137581016Y-26393936D01*
X137625000Y-26389604D01*
X137668983Y-26393936D01*
G37*
G36*
X140208983Y-26393936D02*
G01*
X140259180Y-26393936D01*
X140302524Y-26403149D01*
X140340659Y-26406905D01*
X140388566Y-26421437D01*
X140443424Y-26433098D01*
X140478530Y-26448728D01*
X140509566Y-26458143D01*
X140558884Y-26484504D01*
X140615500Y-26509711D01*
X140641822Y-26528835D01*
X140665232Y-26541348D01*
X140712988Y-26580540D01*
X140767887Y-26620427D01*
X140785711Y-26640223D01*
X140801675Y-26653324D01*
X140844572Y-26705594D01*
X140893924Y-26760405D01*
X140904292Y-26778363D01*
X140913651Y-26789767D01*
X140948273Y-26854542D01*
X140988104Y-26923530D01*
X140992685Y-26937630D01*
X140996856Y-26945433D01*
X141019852Y-27021242D01*
X141046311Y-27102672D01*
X141047242Y-27111532D01*
X141048094Y-27114340D01*
X141056384Y-27198513D01*
X141066000Y-27290000D01*
X141056383Y-27381494D01*
X141048094Y-27465659D01*
X141047242Y-27468466D01*
X141046311Y-27477328D01*
X141019848Y-27558771D01*
X140996856Y-27634566D01*
X140992686Y-27642366D01*
X140988104Y-27656470D01*
X140948266Y-27725470D01*
X140913651Y-27790232D01*
X140904294Y-27801633D01*
X140893924Y-27819595D01*
X140844563Y-27874415D01*
X140801675Y-27926675D01*
X140785714Y-27939773D01*
X140767887Y-27959573D01*
X140712977Y-27999467D01*
X140665232Y-28038651D01*
X140641827Y-28051161D01*
X140615500Y-28070289D01*
X140558873Y-28095500D01*
X140509566Y-28121856D01*
X140478537Y-28131268D01*
X140443424Y-28146902D01*
X140388555Y-28158564D01*
X140340659Y-28173094D01*
X140302532Y-28176849D01*
X140259180Y-28186064D01*
X140208973Y-28186064D01*
X140165000Y-28190395D01*
X140121027Y-28186064D01*
X140070820Y-28186064D01*
X140027467Y-28176849D01*
X139989340Y-28173094D01*
X139941441Y-28158563D01*
X139886576Y-28146902D01*
X139851464Y-28131269D01*
X139820433Y-28121856D01*
X139771120Y-28095498D01*
X139714500Y-28070289D01*
X139688175Y-28051163D01*
X139664767Y-28038651D01*
X139617013Y-27999460D01*
X139562113Y-27959573D01*
X139544287Y-27939776D01*
X139528324Y-27926675D01*
X139485425Y-27874402D01*
X139436076Y-27819595D01*
X139425708Y-27801637D01*
X139416348Y-27790232D01*
X139381719Y-27725447D01*
X139341896Y-27656470D01*
X139337315Y-27642371D01*
X139333143Y-27634566D01*
X139310136Y-27558725D01*
X139283689Y-27477328D01*
X139282758Y-27468471D01*
X139281905Y-27465659D01*
X139273600Y-27381342D01*
X139264000Y-27290000D01*
X139273599Y-27198664D01*
X139281905Y-27114340D01*
X139282758Y-27111527D01*
X139283689Y-27102672D01*
X139310132Y-27021288D01*
X139333143Y-26945433D01*
X139337315Y-26937626D01*
X139341896Y-26923530D01*
X139381712Y-26854565D01*
X139416348Y-26789767D01*
X139425710Y-26778359D01*
X139436076Y-26760405D01*
X139485416Y-26705607D01*
X139528324Y-26653324D01*
X139544291Y-26640219D01*
X139562113Y-26620427D01*
X139617002Y-26580546D01*
X139664767Y-26541348D01*
X139688180Y-26528833D01*
X139714500Y-26509711D01*
X139771109Y-26484506D01*
X139820433Y-26458143D01*
X139851471Y-26448727D01*
X139886576Y-26433098D01*
X139941430Y-26421438D01*
X139989340Y-26406905D01*
X140027476Y-26403148D01*
X140070820Y-26393936D01*
X140121016Y-26393936D01*
X140165000Y-26389604D01*
X140208983Y-26393936D01*
G37*
G36*
X142748983Y-26393936D02*
G01*
X142799180Y-26393936D01*
X142842524Y-26403149D01*
X142880659Y-26406905D01*
X142928566Y-26421437D01*
X142983424Y-26433098D01*
X143018530Y-26448728D01*
X143049566Y-26458143D01*
X143098884Y-26484504D01*
X143155500Y-26509711D01*
X143181822Y-26528835D01*
X143205232Y-26541348D01*
X143252988Y-26580540D01*
X143307887Y-26620427D01*
X143325711Y-26640223D01*
X143341675Y-26653324D01*
X143384572Y-26705594D01*
X143433924Y-26760405D01*
X143444292Y-26778363D01*
X143453651Y-26789767D01*
X143488273Y-26854542D01*
X143528104Y-26923530D01*
X143532685Y-26937630D01*
X143536856Y-26945433D01*
X143559852Y-27021242D01*
X143586311Y-27102672D01*
X143587242Y-27111532D01*
X143588094Y-27114340D01*
X143596385Y-27198520D01*
X143606000Y-27290000D01*
X143596382Y-27381501D01*
X143588094Y-27465659D01*
X143587242Y-27468466D01*
X143586311Y-27477328D01*
X143559848Y-27558771D01*
X143536856Y-27634566D01*
X143532686Y-27642366D01*
X143528104Y-27656470D01*
X143488266Y-27725470D01*
X143453651Y-27790232D01*
X143444294Y-27801633D01*
X143433924Y-27819595D01*
X143384563Y-27874415D01*
X143341675Y-27926675D01*
X143325714Y-27939773D01*
X143307887Y-27959573D01*
X143252977Y-27999467D01*
X143205232Y-28038651D01*
X143181827Y-28051161D01*
X143155500Y-28070289D01*
X143098873Y-28095500D01*
X143049566Y-28121856D01*
X143018537Y-28131268D01*
X142983424Y-28146902D01*
X142928555Y-28158564D01*
X142880659Y-28173094D01*
X142842532Y-28176849D01*
X142799180Y-28186064D01*
X142748973Y-28186064D01*
X142705000Y-28190395D01*
X142661027Y-28186064D01*
X142610820Y-28186064D01*
X142567467Y-28176849D01*
X142529340Y-28173094D01*
X142481441Y-28158563D01*
X142426576Y-28146902D01*
X142391464Y-28131269D01*
X142360433Y-28121856D01*
X142311120Y-28095498D01*
X142254500Y-28070289D01*
X142228175Y-28051163D01*
X142204767Y-28038651D01*
X142157013Y-27999460D01*
X142102113Y-27959573D01*
X142084287Y-27939776D01*
X142068324Y-27926675D01*
X142025425Y-27874402D01*
X141976076Y-27819595D01*
X141965708Y-27801637D01*
X141956348Y-27790232D01*
X141921719Y-27725447D01*
X141881896Y-27656470D01*
X141877315Y-27642371D01*
X141873143Y-27634566D01*
X141850136Y-27558725D01*
X141823689Y-27477328D01*
X141822758Y-27468471D01*
X141821905Y-27465659D01*
X141813601Y-27381349D01*
X141804000Y-27290000D01*
X141813598Y-27198672D01*
X141821905Y-27114340D01*
X141822758Y-27111527D01*
X141823689Y-27102672D01*
X141850132Y-27021288D01*
X141873143Y-26945433D01*
X141877315Y-26937626D01*
X141881896Y-26923530D01*
X141921712Y-26854565D01*
X141956348Y-26789767D01*
X141965710Y-26778359D01*
X141976076Y-26760405D01*
X142025416Y-26705607D01*
X142068324Y-26653324D01*
X142084291Y-26640219D01*
X142102113Y-26620427D01*
X142157002Y-26580546D01*
X142204767Y-26541348D01*
X142228180Y-26528833D01*
X142254500Y-26509711D01*
X142311109Y-26484506D01*
X142360433Y-26458143D01*
X142391471Y-26448727D01*
X142426576Y-26433098D01*
X142481430Y-26421438D01*
X142529340Y-26406905D01*
X142567476Y-26403148D01*
X142610820Y-26393936D01*
X142661016Y-26393936D01*
X142705000Y-26389604D01*
X142748983Y-26393936D01*
G37*
G36*
X145288983Y-26393936D02*
G01*
X145339180Y-26393936D01*
X145382524Y-26403149D01*
X145420659Y-26406905D01*
X145468566Y-26421437D01*
X145523424Y-26433098D01*
X145558530Y-26448728D01*
X145589566Y-26458143D01*
X145638884Y-26484504D01*
X145695500Y-26509711D01*
X145721822Y-26528835D01*
X145745232Y-26541348D01*
X145792988Y-26580540D01*
X145847887Y-26620427D01*
X145865711Y-26640223D01*
X145881675Y-26653324D01*
X145924572Y-26705594D01*
X145973924Y-26760405D01*
X145984292Y-26778363D01*
X145993651Y-26789767D01*
X146028273Y-26854542D01*
X146068104Y-26923530D01*
X146072685Y-26937630D01*
X146076856Y-26945433D01*
X146099852Y-27021242D01*
X146126311Y-27102672D01*
X146127242Y-27111532D01*
X146128094Y-27114340D01*
X146136385Y-27198520D01*
X146146000Y-27290000D01*
X146136382Y-27381501D01*
X146128094Y-27465659D01*
X146127242Y-27468466D01*
X146126311Y-27477328D01*
X146099848Y-27558771D01*
X146076856Y-27634566D01*
X146072686Y-27642366D01*
X146068104Y-27656470D01*
X146028266Y-27725470D01*
X145993651Y-27790232D01*
X145984294Y-27801633D01*
X145973924Y-27819595D01*
X145924563Y-27874415D01*
X145881675Y-27926675D01*
X145865714Y-27939773D01*
X145847887Y-27959573D01*
X145792977Y-27999467D01*
X145745232Y-28038651D01*
X145721827Y-28051161D01*
X145695500Y-28070289D01*
X145638873Y-28095500D01*
X145589566Y-28121856D01*
X145558537Y-28131268D01*
X145523424Y-28146902D01*
X145468555Y-28158564D01*
X145420659Y-28173094D01*
X145382532Y-28176849D01*
X145339180Y-28186064D01*
X145288973Y-28186064D01*
X145245000Y-28190395D01*
X145201027Y-28186064D01*
X145150820Y-28186064D01*
X145107467Y-28176849D01*
X145069340Y-28173094D01*
X145021441Y-28158563D01*
X144966576Y-28146902D01*
X144931464Y-28131269D01*
X144900433Y-28121856D01*
X144851120Y-28095498D01*
X144794500Y-28070289D01*
X144768175Y-28051163D01*
X144744767Y-28038651D01*
X144697013Y-27999460D01*
X144642113Y-27959573D01*
X144624287Y-27939776D01*
X144608324Y-27926675D01*
X144565425Y-27874402D01*
X144516076Y-27819595D01*
X144505708Y-27801637D01*
X144496348Y-27790232D01*
X144461719Y-27725447D01*
X144421896Y-27656470D01*
X144417315Y-27642371D01*
X144413143Y-27634566D01*
X144390136Y-27558725D01*
X144363689Y-27477328D01*
X144362758Y-27468471D01*
X144361905Y-27465659D01*
X144353601Y-27381349D01*
X144344000Y-27290000D01*
X144353598Y-27198672D01*
X144361905Y-27114340D01*
X144362758Y-27111527D01*
X144363689Y-27102672D01*
X144390132Y-27021288D01*
X144413143Y-26945433D01*
X144417315Y-26937626D01*
X144421896Y-26923530D01*
X144461712Y-26854565D01*
X144496348Y-26789767D01*
X144505710Y-26778359D01*
X144516076Y-26760405D01*
X144565416Y-26705607D01*
X144608324Y-26653324D01*
X144624291Y-26640219D01*
X144642113Y-26620427D01*
X144697002Y-26580546D01*
X144744767Y-26541348D01*
X144768180Y-26528833D01*
X144794500Y-26509711D01*
X144851109Y-26484506D01*
X144900433Y-26458143D01*
X144931471Y-26448727D01*
X144966576Y-26433098D01*
X145021430Y-26421438D01*
X145069340Y-26406905D01*
X145107476Y-26403148D01*
X145150820Y-26393936D01*
X145201016Y-26393936D01*
X145245000Y-26389604D01*
X145288983Y-26393936D01*
G37*
G36*
X147828983Y-26393936D02*
G01*
X147879180Y-26393936D01*
X147922524Y-26403149D01*
X147960659Y-26406905D01*
X148008566Y-26421437D01*
X148063424Y-26433098D01*
X148098530Y-26448728D01*
X148129566Y-26458143D01*
X148178884Y-26484504D01*
X148235500Y-26509711D01*
X148261822Y-26528835D01*
X148285232Y-26541348D01*
X148332988Y-26580540D01*
X148387887Y-26620427D01*
X148405711Y-26640223D01*
X148421675Y-26653324D01*
X148464572Y-26705594D01*
X148513924Y-26760405D01*
X148524292Y-26778363D01*
X148533651Y-26789767D01*
X148568273Y-26854542D01*
X148608104Y-26923530D01*
X148612685Y-26937630D01*
X148616856Y-26945433D01*
X148639852Y-27021242D01*
X148666311Y-27102672D01*
X148667242Y-27111532D01*
X148668094Y-27114340D01*
X148676385Y-27198520D01*
X148686000Y-27290000D01*
X148676382Y-27381501D01*
X148668094Y-27465659D01*
X148667242Y-27468466D01*
X148666311Y-27477328D01*
X148639848Y-27558771D01*
X148616856Y-27634566D01*
X148612686Y-27642366D01*
X148608104Y-27656470D01*
X148568266Y-27725470D01*
X148533651Y-27790232D01*
X148524294Y-27801633D01*
X148513924Y-27819595D01*
X148464563Y-27874415D01*
X148421675Y-27926675D01*
X148405714Y-27939773D01*
X148387887Y-27959573D01*
X148332977Y-27999467D01*
X148285232Y-28038651D01*
X148261827Y-28051161D01*
X148235500Y-28070289D01*
X148178873Y-28095500D01*
X148129566Y-28121856D01*
X148098537Y-28131268D01*
X148063424Y-28146902D01*
X148008555Y-28158564D01*
X147960659Y-28173094D01*
X147922532Y-28176849D01*
X147879180Y-28186064D01*
X147828973Y-28186064D01*
X147785000Y-28190395D01*
X147741027Y-28186064D01*
X147690820Y-28186064D01*
X147647467Y-28176849D01*
X147609340Y-28173094D01*
X147561441Y-28158563D01*
X147506576Y-28146902D01*
X147471464Y-28131269D01*
X147440433Y-28121856D01*
X147391120Y-28095498D01*
X147334500Y-28070289D01*
X147308175Y-28051163D01*
X147284767Y-28038651D01*
X147237013Y-27999460D01*
X147182113Y-27959573D01*
X147164287Y-27939776D01*
X147148324Y-27926675D01*
X147105425Y-27874402D01*
X147056076Y-27819595D01*
X147045708Y-27801637D01*
X147036348Y-27790232D01*
X147001719Y-27725447D01*
X146961896Y-27656470D01*
X146957315Y-27642371D01*
X146953143Y-27634566D01*
X146930136Y-27558725D01*
X146903689Y-27477328D01*
X146902758Y-27468471D01*
X146901905Y-27465659D01*
X146893601Y-27381349D01*
X146884000Y-27290000D01*
X146893598Y-27198672D01*
X146901905Y-27114340D01*
X146902758Y-27111527D01*
X146903689Y-27102672D01*
X146930132Y-27021288D01*
X146953143Y-26945433D01*
X146957315Y-26937626D01*
X146961896Y-26923530D01*
X147001712Y-26854565D01*
X147036348Y-26789767D01*
X147045710Y-26778359D01*
X147056076Y-26760405D01*
X147105416Y-26705607D01*
X147148324Y-26653324D01*
X147164291Y-26640219D01*
X147182113Y-26620427D01*
X147237002Y-26580546D01*
X147284767Y-26541348D01*
X147308180Y-26528833D01*
X147334500Y-26509711D01*
X147391109Y-26484506D01*
X147440433Y-26458143D01*
X147471471Y-26448727D01*
X147506576Y-26433098D01*
X147561430Y-26421438D01*
X147609340Y-26406905D01*
X147647476Y-26403148D01*
X147690820Y-26393936D01*
X147741016Y-26393936D01*
X147785000Y-26389604D01*
X147828983Y-26393936D01*
G37*
G36*
X137668983Y-23853936D02*
G01*
X137719180Y-23853936D01*
X137762524Y-23863149D01*
X137800659Y-23866905D01*
X137848566Y-23881437D01*
X137903424Y-23893098D01*
X137938530Y-23908728D01*
X137969566Y-23918143D01*
X138018884Y-23944504D01*
X138075500Y-23969711D01*
X138101822Y-23988835D01*
X138125232Y-24001348D01*
X138172988Y-24040540D01*
X138227887Y-24080427D01*
X138245711Y-24100223D01*
X138261675Y-24113324D01*
X138304572Y-24165594D01*
X138353924Y-24220405D01*
X138364292Y-24238363D01*
X138373651Y-24249767D01*
X138408273Y-24314542D01*
X138448104Y-24383530D01*
X138452685Y-24397630D01*
X138456856Y-24405433D01*
X138479852Y-24481242D01*
X138506311Y-24562672D01*
X138507242Y-24571532D01*
X138508094Y-24574340D01*
X138516384Y-24658513D01*
X138526000Y-24750000D01*
X138516383Y-24841494D01*
X138508094Y-24925659D01*
X138507242Y-24928466D01*
X138506311Y-24937328D01*
X138479848Y-25018771D01*
X138456856Y-25094566D01*
X138452686Y-25102366D01*
X138448104Y-25116470D01*
X138408266Y-25185470D01*
X138373651Y-25250232D01*
X138364294Y-25261633D01*
X138353924Y-25279595D01*
X138304563Y-25334415D01*
X138261675Y-25386675D01*
X138245714Y-25399773D01*
X138227887Y-25419573D01*
X138172977Y-25459467D01*
X138125232Y-25498651D01*
X138101827Y-25511161D01*
X138075500Y-25530289D01*
X138018873Y-25555500D01*
X137969566Y-25581856D01*
X137938537Y-25591268D01*
X137903424Y-25606902D01*
X137848555Y-25618564D01*
X137800659Y-25633094D01*
X137762532Y-25636849D01*
X137719180Y-25646064D01*
X137668973Y-25646064D01*
X137625000Y-25650395D01*
X137581027Y-25646064D01*
X137530820Y-25646064D01*
X137487467Y-25636849D01*
X137449340Y-25633094D01*
X137401441Y-25618563D01*
X137346576Y-25606902D01*
X137311464Y-25591269D01*
X137280433Y-25581856D01*
X137231120Y-25555498D01*
X137174500Y-25530289D01*
X137148175Y-25511163D01*
X137124767Y-25498651D01*
X137077013Y-25459460D01*
X137022113Y-25419573D01*
X137004287Y-25399776D01*
X136988324Y-25386675D01*
X136945425Y-25334402D01*
X136896076Y-25279595D01*
X136885708Y-25261637D01*
X136876348Y-25250232D01*
X136841719Y-25185447D01*
X136801896Y-25116470D01*
X136797315Y-25102371D01*
X136793143Y-25094566D01*
X136770136Y-25018725D01*
X136743689Y-24937328D01*
X136742758Y-24928471D01*
X136741905Y-24925659D01*
X136733600Y-24841342D01*
X136724000Y-24750000D01*
X136733599Y-24658664D01*
X136741905Y-24574340D01*
X136742758Y-24571527D01*
X136743689Y-24562672D01*
X136770132Y-24481288D01*
X136793143Y-24405433D01*
X136797315Y-24397626D01*
X136801896Y-24383530D01*
X136841712Y-24314565D01*
X136876348Y-24249767D01*
X136885710Y-24238359D01*
X136896076Y-24220405D01*
X136945416Y-24165607D01*
X136988324Y-24113324D01*
X137004291Y-24100219D01*
X137022113Y-24080427D01*
X137077002Y-24040546D01*
X137124767Y-24001348D01*
X137148180Y-23988833D01*
X137174500Y-23969711D01*
X137231109Y-23944506D01*
X137280433Y-23918143D01*
X137311471Y-23908727D01*
X137346576Y-23893098D01*
X137401430Y-23881438D01*
X137449340Y-23866905D01*
X137487476Y-23863148D01*
X137530820Y-23853936D01*
X137581016Y-23853936D01*
X137625000Y-23849604D01*
X137668983Y-23853936D01*
G37*
G36*
X140208983Y-23853936D02*
G01*
X140259180Y-23853936D01*
X140302524Y-23863149D01*
X140340659Y-23866905D01*
X140388566Y-23881437D01*
X140443424Y-23893098D01*
X140478530Y-23908728D01*
X140509566Y-23918143D01*
X140558884Y-23944504D01*
X140615500Y-23969711D01*
X140641822Y-23988835D01*
X140665232Y-24001348D01*
X140712988Y-24040540D01*
X140767887Y-24080427D01*
X140785711Y-24100223D01*
X140801675Y-24113324D01*
X140844572Y-24165594D01*
X140893924Y-24220405D01*
X140904292Y-24238363D01*
X140913651Y-24249767D01*
X140948273Y-24314542D01*
X140988104Y-24383530D01*
X140992685Y-24397630D01*
X140996856Y-24405433D01*
X141019852Y-24481242D01*
X141046311Y-24562672D01*
X141047242Y-24571532D01*
X141048094Y-24574340D01*
X141056384Y-24658513D01*
X141066000Y-24750000D01*
X141056383Y-24841494D01*
X141048094Y-24925659D01*
X141047242Y-24928466D01*
X141046311Y-24937328D01*
X141019848Y-25018771D01*
X140996856Y-25094566D01*
X140992686Y-25102366D01*
X140988104Y-25116470D01*
X140948266Y-25185470D01*
X140913651Y-25250232D01*
X140904294Y-25261633D01*
X140893924Y-25279595D01*
X140844563Y-25334415D01*
X140801675Y-25386675D01*
X140785714Y-25399773D01*
X140767887Y-25419573D01*
X140712977Y-25459467D01*
X140665232Y-25498651D01*
X140641827Y-25511161D01*
X140615500Y-25530289D01*
X140558873Y-25555500D01*
X140509566Y-25581856D01*
X140478537Y-25591268D01*
X140443424Y-25606902D01*
X140388555Y-25618564D01*
X140340659Y-25633094D01*
X140302532Y-25636849D01*
X140259180Y-25646064D01*
X140208973Y-25646064D01*
X140165000Y-25650395D01*
X140121027Y-25646064D01*
X140070820Y-25646064D01*
X140027467Y-25636849D01*
X139989340Y-25633094D01*
X139941441Y-25618563D01*
X139886576Y-25606902D01*
X139851464Y-25591269D01*
X139820433Y-25581856D01*
X139771120Y-25555498D01*
X139714500Y-25530289D01*
X139688175Y-25511163D01*
X139664767Y-25498651D01*
X139617013Y-25459460D01*
X139562113Y-25419573D01*
X139544287Y-25399776D01*
X139528324Y-25386675D01*
X139485425Y-25334402D01*
X139436076Y-25279595D01*
X139425708Y-25261637D01*
X139416348Y-25250232D01*
X139381719Y-25185447D01*
X139341896Y-25116470D01*
X139337315Y-25102371D01*
X139333143Y-25094566D01*
X139310136Y-25018725D01*
X139283689Y-24937328D01*
X139282758Y-24928471D01*
X139281905Y-24925659D01*
X139273600Y-24841342D01*
X139264000Y-24750000D01*
X139273599Y-24658664D01*
X139281905Y-24574340D01*
X139282758Y-24571527D01*
X139283689Y-24562672D01*
X139310132Y-24481288D01*
X139333143Y-24405433D01*
X139337315Y-24397626D01*
X139341896Y-24383530D01*
X139381712Y-24314565D01*
X139416348Y-24249767D01*
X139425710Y-24238359D01*
X139436076Y-24220405D01*
X139485416Y-24165607D01*
X139528324Y-24113324D01*
X139544291Y-24100219D01*
X139562113Y-24080427D01*
X139617002Y-24040546D01*
X139664767Y-24001348D01*
X139688180Y-23988833D01*
X139714500Y-23969711D01*
X139771109Y-23944506D01*
X139820433Y-23918143D01*
X139851471Y-23908727D01*
X139886576Y-23893098D01*
X139941430Y-23881438D01*
X139989340Y-23866905D01*
X140027476Y-23863148D01*
X140070820Y-23853936D01*
X140121016Y-23853936D01*
X140165000Y-23849604D01*
X140208983Y-23853936D01*
G37*
G36*
X142748983Y-23853936D02*
G01*
X142799180Y-23853936D01*
X142842524Y-23863149D01*
X142880659Y-23866905D01*
X142928566Y-23881437D01*
X142983424Y-23893098D01*
X143018530Y-23908728D01*
X143049566Y-23918143D01*
X143098884Y-23944504D01*
X143155500Y-23969711D01*
X143181822Y-23988835D01*
X143205232Y-24001348D01*
X143252988Y-24040540D01*
X143307887Y-24080427D01*
X143325711Y-24100223D01*
X143341675Y-24113324D01*
X143384572Y-24165594D01*
X143433924Y-24220405D01*
X143444292Y-24238363D01*
X143453651Y-24249767D01*
X143488273Y-24314542D01*
X143528104Y-24383530D01*
X143532685Y-24397630D01*
X143536856Y-24405433D01*
X143559852Y-24481242D01*
X143586311Y-24562672D01*
X143587242Y-24571532D01*
X143588094Y-24574340D01*
X143596384Y-24658513D01*
X143606000Y-24750000D01*
X143596383Y-24841494D01*
X143588094Y-24925659D01*
X143587242Y-24928466D01*
X143586311Y-24937328D01*
X143559848Y-25018771D01*
X143536856Y-25094566D01*
X143532686Y-25102366D01*
X143528104Y-25116470D01*
X143488266Y-25185470D01*
X143453651Y-25250232D01*
X143444294Y-25261633D01*
X143433924Y-25279595D01*
X143384563Y-25334415D01*
X143341675Y-25386675D01*
X143325714Y-25399773D01*
X143307887Y-25419573D01*
X143252977Y-25459467D01*
X143205232Y-25498651D01*
X143181827Y-25511161D01*
X143155500Y-25530289D01*
X143098873Y-25555500D01*
X143049566Y-25581856D01*
X143018537Y-25591268D01*
X142983424Y-25606902D01*
X142928555Y-25618564D01*
X142880659Y-25633094D01*
X142842532Y-25636849D01*
X142799180Y-25646064D01*
X142748973Y-25646064D01*
X142705000Y-25650395D01*
X142661027Y-25646064D01*
X142610820Y-25646064D01*
X142567467Y-25636849D01*
X142529340Y-25633094D01*
X142481441Y-25618563D01*
X142426576Y-25606902D01*
X142391464Y-25591269D01*
X142360433Y-25581856D01*
X142311120Y-25555498D01*
X142254500Y-25530289D01*
X142228175Y-25511163D01*
X142204767Y-25498651D01*
X142157013Y-25459460D01*
X142102113Y-25419573D01*
X142084287Y-25399776D01*
X142068324Y-25386675D01*
X142025425Y-25334402D01*
X141976076Y-25279595D01*
X141965708Y-25261637D01*
X141956348Y-25250232D01*
X141921719Y-25185447D01*
X141881896Y-25116470D01*
X141877315Y-25102371D01*
X141873143Y-25094566D01*
X141850136Y-25018725D01*
X141823689Y-24937328D01*
X141822758Y-24928471D01*
X141821905Y-24925659D01*
X141813600Y-24841342D01*
X141804000Y-24750000D01*
X141813599Y-24658664D01*
X141821905Y-24574340D01*
X141822758Y-24571527D01*
X141823689Y-24562672D01*
X141850132Y-24481288D01*
X141873143Y-24405433D01*
X141877315Y-24397626D01*
X141881896Y-24383530D01*
X141921712Y-24314565D01*
X141956348Y-24249767D01*
X141965710Y-24238359D01*
X141976076Y-24220405D01*
X142025416Y-24165607D01*
X142068324Y-24113324D01*
X142084291Y-24100219D01*
X142102113Y-24080427D01*
X142157002Y-24040546D01*
X142204767Y-24001348D01*
X142228180Y-23988833D01*
X142254500Y-23969711D01*
X142311109Y-23944506D01*
X142360433Y-23918143D01*
X142391471Y-23908727D01*
X142426576Y-23893098D01*
X142481430Y-23881438D01*
X142529340Y-23866905D01*
X142567476Y-23863148D01*
X142610820Y-23853936D01*
X142661016Y-23853936D01*
X142705000Y-23849604D01*
X142748983Y-23853936D01*
G37*
G36*
X145288983Y-23853936D02*
G01*
X145339180Y-23853936D01*
X145382524Y-23863149D01*
X145420659Y-23866905D01*
X145468566Y-23881437D01*
X145523424Y-23893098D01*
X145558530Y-23908728D01*
X145589566Y-23918143D01*
X145638884Y-23944504D01*
X145695500Y-23969711D01*
X145721822Y-23988835D01*
X145745232Y-24001348D01*
X145792988Y-24040540D01*
X145847887Y-24080427D01*
X145865711Y-24100223D01*
X145881675Y-24113324D01*
X145924572Y-24165594D01*
X145973924Y-24220405D01*
X145984292Y-24238363D01*
X145993651Y-24249767D01*
X146028273Y-24314542D01*
X146068104Y-24383530D01*
X146072685Y-24397630D01*
X146076856Y-24405433D01*
X146099852Y-24481242D01*
X146126311Y-24562672D01*
X146127242Y-24571532D01*
X146128094Y-24574340D01*
X146136385Y-24658520D01*
X146146000Y-24750000D01*
X146136382Y-24841501D01*
X146128094Y-24925659D01*
X146127242Y-24928466D01*
X146126311Y-24937328D01*
X146099848Y-25018771D01*
X146076856Y-25094566D01*
X146072686Y-25102366D01*
X146068104Y-25116470D01*
X146028266Y-25185470D01*
X145993651Y-25250232D01*
X145984294Y-25261633D01*
X145973924Y-25279595D01*
X145924563Y-25334415D01*
X145881675Y-25386675D01*
X145865714Y-25399773D01*
X145847887Y-25419573D01*
X145792977Y-25459467D01*
X145745232Y-25498651D01*
X145721827Y-25511161D01*
X145695500Y-25530289D01*
X145638873Y-25555500D01*
X145589566Y-25581856D01*
X145558537Y-25591268D01*
X145523424Y-25606902D01*
X145468555Y-25618564D01*
X145420659Y-25633094D01*
X145382532Y-25636849D01*
X145339180Y-25646064D01*
X145288973Y-25646064D01*
X145245000Y-25650395D01*
X145201027Y-25646064D01*
X145150820Y-25646064D01*
X145107467Y-25636849D01*
X145069340Y-25633094D01*
X145021441Y-25618563D01*
X144966576Y-25606902D01*
X144931464Y-25591269D01*
X144900433Y-25581856D01*
X144851120Y-25555498D01*
X144794500Y-25530289D01*
X144768175Y-25511163D01*
X144744767Y-25498651D01*
X144697013Y-25459460D01*
X144642113Y-25419573D01*
X144624287Y-25399776D01*
X144608324Y-25386675D01*
X144565425Y-25334402D01*
X144516076Y-25279595D01*
X144505708Y-25261637D01*
X144496348Y-25250232D01*
X144461719Y-25185447D01*
X144421896Y-25116470D01*
X144417315Y-25102371D01*
X144413143Y-25094566D01*
X144390136Y-25018725D01*
X144363689Y-24937328D01*
X144362758Y-24928471D01*
X144361905Y-24925659D01*
X144353601Y-24841349D01*
X144344000Y-24750000D01*
X144353598Y-24658672D01*
X144361905Y-24574340D01*
X144362758Y-24571527D01*
X144363689Y-24562672D01*
X144390132Y-24481288D01*
X144413143Y-24405433D01*
X144417315Y-24397626D01*
X144421896Y-24383530D01*
X144461712Y-24314565D01*
X144496348Y-24249767D01*
X144505710Y-24238359D01*
X144516076Y-24220405D01*
X144565416Y-24165607D01*
X144608324Y-24113324D01*
X144624291Y-24100219D01*
X144642113Y-24080427D01*
X144697002Y-24040546D01*
X144744767Y-24001348D01*
X144768180Y-23988833D01*
X144794500Y-23969711D01*
X144851109Y-23944506D01*
X144900433Y-23918143D01*
X144931471Y-23908727D01*
X144966576Y-23893098D01*
X145021430Y-23881438D01*
X145069340Y-23866905D01*
X145107476Y-23863148D01*
X145150820Y-23853936D01*
X145201016Y-23853936D01*
X145245000Y-23849604D01*
X145288983Y-23853936D01*
G37*
G36*
X147828983Y-23853936D02*
G01*
X147879180Y-23853936D01*
X147922524Y-23863149D01*
X147960659Y-23866905D01*
X148008566Y-23881437D01*
X148063424Y-23893098D01*
X148098530Y-23908728D01*
X148129566Y-23918143D01*
X148178884Y-23944504D01*
X148235500Y-23969711D01*
X148261822Y-23988835D01*
X148285232Y-24001348D01*
X148332988Y-24040540D01*
X148387887Y-24080427D01*
X148405711Y-24100223D01*
X148421675Y-24113324D01*
X148464572Y-24165594D01*
X148513924Y-24220405D01*
X148524292Y-24238363D01*
X148533651Y-24249767D01*
X148568273Y-24314542D01*
X148608104Y-24383530D01*
X148612685Y-24397630D01*
X148616856Y-24405433D01*
X148639852Y-24481242D01*
X148666311Y-24562672D01*
X148667242Y-24571532D01*
X148668094Y-24574340D01*
X148676385Y-24658520D01*
X148686000Y-24750000D01*
X148676382Y-24841501D01*
X148668094Y-24925659D01*
X148667242Y-24928466D01*
X148666311Y-24937328D01*
X148639848Y-25018771D01*
X148616856Y-25094566D01*
X148612686Y-25102366D01*
X148608104Y-25116470D01*
X148568266Y-25185470D01*
X148533651Y-25250232D01*
X148524294Y-25261633D01*
X148513924Y-25279595D01*
X148464563Y-25334415D01*
X148421675Y-25386675D01*
X148405714Y-25399773D01*
X148387887Y-25419573D01*
X148332977Y-25459467D01*
X148285232Y-25498651D01*
X148261827Y-25511161D01*
X148235500Y-25530289D01*
X148178873Y-25555500D01*
X148129566Y-25581856D01*
X148098537Y-25591268D01*
X148063424Y-25606902D01*
X148008555Y-25618564D01*
X147960659Y-25633094D01*
X147922532Y-25636849D01*
X147879180Y-25646064D01*
X147828973Y-25646064D01*
X147785000Y-25650395D01*
X147741027Y-25646064D01*
X147690820Y-25646064D01*
X147647467Y-25636849D01*
X147609340Y-25633094D01*
X147561441Y-25618563D01*
X147506576Y-25606902D01*
X147471464Y-25591269D01*
X147440433Y-25581856D01*
X147391120Y-25555498D01*
X147334500Y-25530289D01*
X147308175Y-25511163D01*
X147284767Y-25498651D01*
X147237013Y-25459460D01*
X147182113Y-25419573D01*
X147164287Y-25399776D01*
X147148324Y-25386675D01*
X147105425Y-25334402D01*
X147056076Y-25279595D01*
X147045708Y-25261637D01*
X147036348Y-25250232D01*
X147001719Y-25185447D01*
X146961896Y-25116470D01*
X146957315Y-25102371D01*
X146953143Y-25094566D01*
X146930136Y-25018725D01*
X146903689Y-24937328D01*
X146902758Y-24928471D01*
X146901905Y-24925659D01*
X146893601Y-24841349D01*
X146884000Y-24750000D01*
X146893598Y-24658672D01*
X146901905Y-24574340D01*
X146902758Y-24571527D01*
X146903689Y-24562672D01*
X146930132Y-24481288D01*
X146953143Y-24405433D01*
X146957315Y-24397626D01*
X146961896Y-24383530D01*
X147001712Y-24314565D01*
X147036348Y-24249767D01*
X147045710Y-24238359D01*
X147056076Y-24220405D01*
X147105416Y-24165607D01*
X147148324Y-24113324D01*
X147164291Y-24100219D01*
X147182113Y-24080427D01*
X147237002Y-24040546D01*
X147284767Y-24001348D01*
X147308180Y-23988833D01*
X147334500Y-23969711D01*
X147391109Y-23944506D01*
X147440433Y-23918143D01*
X147471471Y-23908727D01*
X147506576Y-23893098D01*
X147561430Y-23881438D01*
X147609340Y-23866905D01*
X147647476Y-23863148D01*
X147690820Y-23853936D01*
X147741016Y-23853936D01*
X147785000Y-23849604D01*
X147828983Y-23853936D01*
G37*
G36*
X150368983Y-23853936D02*
G01*
X150419180Y-23853936D01*
X150462524Y-23863149D01*
X150500659Y-23866905D01*
X150548566Y-23881437D01*
X150603424Y-23893098D01*
X150638530Y-23908728D01*
X150669566Y-23918143D01*
X150718884Y-23944504D01*
X150775500Y-23969711D01*
X150801822Y-23988835D01*
X150825232Y-24001348D01*
X150872988Y-24040540D01*
X150927887Y-24080427D01*
X150945711Y-24100223D01*
X150961675Y-24113324D01*
X151004572Y-24165594D01*
X151053924Y-24220405D01*
X151064292Y-24238363D01*
X151073651Y-24249767D01*
X151108273Y-24314542D01*
X151148104Y-24383530D01*
X151152685Y-24397630D01*
X151156856Y-24405433D01*
X151179852Y-24481242D01*
X151206311Y-24562672D01*
X151207242Y-24571532D01*
X151208094Y-24574340D01*
X151216385Y-24658520D01*
X151226000Y-24750000D01*
X151216382Y-24841501D01*
X151208094Y-24925659D01*
X151207242Y-24928466D01*
X151206311Y-24937328D01*
X151179848Y-25018771D01*
X151156856Y-25094566D01*
X151152686Y-25102366D01*
X151148104Y-25116470D01*
X151108266Y-25185470D01*
X151073651Y-25250232D01*
X151064294Y-25261633D01*
X151053924Y-25279595D01*
X151004563Y-25334415D01*
X150961675Y-25386675D01*
X150945714Y-25399773D01*
X150927887Y-25419573D01*
X150872977Y-25459467D01*
X150825232Y-25498651D01*
X150801827Y-25511161D01*
X150775500Y-25530289D01*
X150718873Y-25555500D01*
X150669566Y-25581856D01*
X150638537Y-25591268D01*
X150603424Y-25606902D01*
X150548555Y-25618564D01*
X150500659Y-25633094D01*
X150462532Y-25636849D01*
X150419180Y-25646064D01*
X150368973Y-25646064D01*
X150325000Y-25650395D01*
X150281027Y-25646064D01*
X150230820Y-25646064D01*
X150187467Y-25636849D01*
X150149340Y-25633094D01*
X150101441Y-25618563D01*
X150046576Y-25606902D01*
X150011464Y-25591269D01*
X149980433Y-25581856D01*
X149931120Y-25555498D01*
X149874500Y-25530289D01*
X149848175Y-25511163D01*
X149824767Y-25498651D01*
X149777013Y-25459460D01*
X149722113Y-25419573D01*
X149704287Y-25399776D01*
X149688324Y-25386675D01*
X149645425Y-25334402D01*
X149596076Y-25279595D01*
X149585708Y-25261637D01*
X149576348Y-25250232D01*
X149541719Y-25185447D01*
X149501896Y-25116470D01*
X149497315Y-25102371D01*
X149493143Y-25094566D01*
X149470136Y-25018725D01*
X149443689Y-24937328D01*
X149442758Y-24928471D01*
X149441905Y-24925659D01*
X149433601Y-24841349D01*
X149424000Y-24750000D01*
X149433598Y-24658672D01*
X149441905Y-24574340D01*
X149442758Y-24571527D01*
X149443689Y-24562672D01*
X149470132Y-24481288D01*
X149493143Y-24405433D01*
X149497315Y-24397626D01*
X149501896Y-24383530D01*
X149541712Y-24314565D01*
X149576348Y-24249767D01*
X149585710Y-24238359D01*
X149596076Y-24220405D01*
X149645416Y-24165607D01*
X149688324Y-24113324D01*
X149704291Y-24100219D01*
X149722113Y-24080427D01*
X149777002Y-24040546D01*
X149824767Y-24001348D01*
X149848180Y-23988833D01*
X149874500Y-23969711D01*
X149931109Y-23944506D01*
X149980433Y-23918143D01*
X150011471Y-23908727D01*
X150046576Y-23893098D01*
X150101430Y-23881438D01*
X150149340Y-23866905D01*
X150187476Y-23863148D01*
X150230820Y-23853936D01*
X150281016Y-23853936D01*
X150325000Y-23849604D01*
X150368983Y-23853936D01*
G37*
M02*
