M48
; DRILL file {KiCad 7.0.7} date Sun Mar 17 18:26:43 2024
; FORMAT={-:-/ absolute / inch / decimal}
; #@! TF.CreationDate,2024-03-17T18:26:43-04:00
; #@! TF.GenerationSoftware,Kicad,Pcbnew,7.0.7
; #@! TF.FileFunction,Plated,1,2,PTH
FMAT,2
INCH
; #@! TA.AperFunction,Plated,PTH,ViaDrill
T1C0.0157
; #@! TA.AperFunction,Plated,PTH,ComponentDrill
T2C0.0394
; #@! TA.AperFunction,Plated,PTH,ComponentDrill
T3C0.0550
%
G90
G05
T1
X5.47Y-1.285
X5.47Y-1.6
X5.4996Y-1.51
X5.5709Y-2.9921
X5.6339Y-2.9909
X5.6509Y-1.202
X5.68Y-1.58
X5.6802Y-1.4398
X5.6826Y-1.1703
X5.7608Y-1.1546
X5.8563Y-1.1562
T2
X5.4183Y-0.9744
X5.4183Y-1.0744
X5.5183Y-0.9744
X5.5183Y-1.0744
X5.6183Y-0.9744
X5.6183Y-1.0744
X5.7183Y-0.9744
X5.7183Y-1.0744
X5.8183Y-0.9744
X5.8183Y-1.0744
X5.9183Y-0.9744
X5.9183Y-1.0744
T3
X5.3623Y-1.2502
X5.3623Y-1.3502
X5.3623Y-1.4502
X5.3623Y-1.5502
X5.3623Y-1.6502
X5.3623Y-1.7502
X5.3623Y-1.8502
X5.3623Y-1.9502
X5.3623Y-2.0502
X5.3623Y-2.1502
X5.3623Y-2.2502
X5.3623Y-2.3502
X5.3623Y-2.4502
X5.3623Y-2.5502
X5.3623Y-2.6502
X5.3623Y-2.7502
X5.3623Y-2.8502
X5.3623Y-2.9502
X5.3623Y-3.0502
X5.3623Y-3.1502
X5.9623Y-1.2502
X5.9623Y-1.3502
X5.9623Y-1.4502
X5.9623Y-1.5502
X5.9623Y-1.6502
X5.9623Y-1.7502
X5.9623Y-1.8502
X5.9623Y-1.9502
X5.9623Y-2.0502
X5.9623Y-2.1502
X5.9623Y-2.2502
X5.9623Y-2.3502
X5.9623Y-2.4502
X5.9623Y-2.5502
X5.9623Y-2.6502
X5.9623Y-2.7502
X5.9623Y-2.8502
X5.9623Y-2.9502
X5.9623Y-3.0502
X5.9623Y-3.1502
T0
M30
