%TF.GenerationSoftware,KiCad,Pcbnew,7.0.7*%
%TF.CreationDate,2024-03-17T18:26:36-04:00*%
%TF.ProjectId,Visual80-3,56697375-616c-4383-902d-332e6b696361,rev?*%
%TF.SameCoordinates,Original*%
%TF.FileFunction,Copper,L2,Bot*%
%TF.FilePolarity,Positive*%
%FSLAX46Y46*%
G04 Gerber Fmt 4.6, Leading zero omitted, Abs format (unit mm)*
G04 Created by KiCad (PCBNEW 7.0.7) date 2024-03-17 18:26:36*
%MOMM*%
%LPD*%
G01*
G04 APERTURE LIST*
%TA.AperFunction,ComponentPad*%
%ADD10R,2.222500X2.222500*%
%TD*%
%TA.AperFunction,ComponentPad*%
%ADD11C,2.222500*%
%TD*%
%TA.AperFunction,ComponentPad*%
%ADD12R,1.700000X1.700000*%
%TD*%
%TA.AperFunction,ComponentPad*%
%ADD13O,1.700000X1.700000*%
%TD*%
%TA.AperFunction,ViaPad*%
%ADD14C,0.800000*%
%TD*%
%TA.AperFunction,Conductor*%
%ADD15C,0.635000*%
%TD*%
%TA.AperFunction,Conductor*%
%ADD16C,0.304800*%
%TD*%
G04 APERTURE END LIST*
D10*
%TO.P,U1,1,Pin_1*%
%TO.N,A11*%
X136202500Y-31755000D03*
D11*
%TO.P,U1,2,Pin_2*%
%TO.N,A12*%
X136202500Y-34295000D03*
%TO.P,U1,3,Pin_3*%
%TO.N,A13*%
X136202500Y-36835000D03*
%TO.P,U1,4,Pin_4*%
%TO.N,A14*%
X136202500Y-39375000D03*
%TO.P,U1,5,Pin_5*%
%TO.N,A15*%
X136202500Y-41915000D03*
%TO.P,U1,6,Pin_6*%
%TO.N,CLK*%
X136202500Y-44455000D03*
%TO.P,U1,7,Pin_7*%
%TO.N,D4*%
X136202500Y-46995000D03*
%TO.P,U1,8,Pin_8*%
%TO.N,D3*%
X136202500Y-49535000D03*
%TO.P,U1,9,Pin_9*%
%TO.N,D5*%
X136202500Y-52075000D03*
%TO.P,U1,10,Pin_10*%
%TO.N,D6*%
X136202500Y-54615000D03*
%TO.P,U1,11,Pin_11*%
%TO.N,+5V*%
X136202500Y-57155000D03*
%TO.P,U1,12,Pin_12*%
%TO.N,D2*%
X136202500Y-59695000D03*
%TO.P,U1,13,Pin_13*%
%TO.N,D7*%
X136202500Y-62235000D03*
%TO.P,U1,14,Pin_14*%
%TO.N,D0*%
X136202500Y-64775000D03*
%TO.P,U1,15,Pin_15*%
%TO.N,D1*%
X136202500Y-67315000D03*
%TO.P,U1,16,Pin_16*%
%TO.N,_INT*%
X136202500Y-69855000D03*
%TO.P,U1,17,Pin_17*%
%TO.N,_NMI*%
X136202500Y-72395000D03*
%TO.P,U1,18,Pin_18*%
%TO.N,_HALT*%
X136202500Y-74935000D03*
%TO.P,U1,19,Pin_19*%
%TO.N,_MREQ*%
X136202500Y-77475000D03*
%TO.P,U1,20,Pin_20*%
%TO.N,_IORQ*%
X136202500Y-80015000D03*
%TO.P,U1,21,Pin_21*%
%TO.N,_RD*%
X151442500Y-80015000D03*
%TO.P,U1,22,Pin_22*%
%TO.N,_WR*%
X151442500Y-77475000D03*
%TO.P,U1,23,Pin_23*%
%TO.N,_BUSAK*%
X151442500Y-74935000D03*
%TO.P,U1,24,Pin_24*%
%TO.N,_WAIT*%
X151442500Y-72395000D03*
%TO.P,U1,25,Pin_25*%
%TO.N,_BUSRQ*%
X151442500Y-69855000D03*
%TO.P,U1,26,Pin_26*%
%TO.N,_RESET*%
X151442500Y-67315000D03*
%TO.P,U1,27,Pin_27*%
%TO.N,_M1*%
X151442500Y-64775000D03*
%TO.P,U1,28,Pin_28*%
%TO.N,_REFSH*%
X151442500Y-62235000D03*
%TO.P,U1,29,Pin_29*%
%TO.N,GND*%
X151442500Y-59695000D03*
%TO.P,U1,30,Pin_30*%
%TO.N,A0*%
X151442500Y-57155000D03*
%TO.P,U1,31,Pin_31*%
%TO.N,A1*%
X151442500Y-54615000D03*
%TO.P,U1,32,Pin_32*%
%TO.N,A2*%
X151442500Y-52075000D03*
%TO.P,U1,33,Pin_33*%
%TO.N,A3*%
X151442500Y-49535000D03*
%TO.P,U1,34,Pin_34*%
%TO.N,A4*%
X151442500Y-46995000D03*
%TO.P,U1,35,Pin_35*%
%TO.N,A5*%
X151442500Y-44455000D03*
%TO.P,U1,36,Pin_36*%
%TO.N,A6*%
X151442500Y-41915000D03*
%TO.P,U1,37,Pin_37*%
%TO.N,A7*%
X151442500Y-39375000D03*
%TO.P,U1,38,Pin_38*%
%TO.N,A8*%
X151442500Y-36835000D03*
%TO.P,U1,39,Pin_39*%
%TO.N,A9*%
X151442500Y-34295000D03*
%TO.P,U1,40,Pin_40*%
%TO.N,A10*%
X151442500Y-31755000D03*
%TD*%
D12*
%TO.P,J1,1,Pin_1*%
%TO.N,X9*%
X150325000Y-27290000D03*
D13*
%TO.P,J1,2,Pin_2*%
%TO.N,X8*%
X150325000Y-24750000D03*
%TO.P,J1,3,Pin_3*%
%TO.N,X13*%
X147785000Y-27290000D03*
%TO.P,J1,4,Pin_4*%
%TO.N,X10*%
X147785000Y-24750000D03*
%TO.P,J1,5,Pin_5*%
%TO.N,X14*%
X145245000Y-27290000D03*
%TO.P,J1,6,Pin_6*%
%TO.N,X11*%
X145245000Y-24750000D03*
%TO.P,J1,7,Pin_7*%
%TO.N,X15*%
X142705000Y-27290000D03*
%TO.P,J1,8,Pin_8*%
%TO.N,X12*%
X142705000Y-24750000D03*
%TO.P,J1,9,Pin_9*%
%TO.N,GND*%
X140165000Y-27290000D03*
%TO.P,J1,10,Pin_10*%
X140165000Y-24750000D03*
%TO.P,J1,11,Pin_11*%
%TO.N,+5V*%
X137625000Y-27290000D03*
%TO.P,J1,12,Pin_12*%
X137625000Y-24750000D03*
%TD*%
D14*
%TO.N,+5V*%
X138938000Y-32639000D03*
X138938000Y-40640000D03*
%TO.N,GND*%
X139689900Y-38354000D03*
%TO.N,_MREQ*%
X141500000Y-76000000D03*
X143101900Y-75968326D03*
%TO.N,LOAD*%
X144272000Y-40132000D03*
X144276518Y-36571482D03*
%TO.N,X8*%
X148748750Y-29368750D03*
%TO.N,X12*%
X143531674Y-30531674D03*
%TO.N,X11*%
X144338337Y-29725011D03*
%TO.N,X10*%
X146324049Y-29326498D03*
%TD*%
D15*
%TO.N,+5V*%
X138938000Y-37338000D02*
X138684000Y-37592000D01*
X138938000Y-39370000D02*
X138938000Y-40132000D01*
X138938000Y-32639000D02*
X138938000Y-37338000D01*
X138684000Y-39116000D02*
X138938000Y-39370000D01*
X138684000Y-37592000D02*
X138684000Y-39116000D01*
D16*
%TO.N,_MREQ*%
X143070226Y-76000000D02*
X141500000Y-76000000D01*
X143101900Y-75968326D02*
X143070226Y-76000000D01*
%TO.N,LOAD*%
X144276518Y-40127482D02*
X144272000Y-40132000D01*
X144276518Y-36571482D02*
X144276518Y-40127482D01*
%TO.N,X8*%
X149122600Y-28994900D02*
X149122600Y-25952400D01*
X149122600Y-25952400D02*
X150325000Y-24750000D01*
X148748750Y-29368750D02*
X149122600Y-28994900D01*
%TO.N,X12*%
X141500000Y-25955000D02*
X142705000Y-24750000D01*
X141500000Y-28500000D02*
X141500000Y-25955000D01*
X143531674Y-30531674D02*
X141500000Y-28500000D01*
%TO.N,X11*%
X144000000Y-25995000D02*
X145245000Y-24750000D01*
X144338337Y-29725011D02*
X144000000Y-29386674D01*
X144000000Y-29386674D02*
X144000000Y-25995000D01*
%TO.N,X10*%
X146500000Y-26035000D02*
X147785000Y-24750000D01*
X146324049Y-29326498D02*
X146500000Y-29150547D01*
X146500000Y-29150547D02*
X146500000Y-26035000D01*
%TD*%
%TA.AperFunction,Conductor*%
%TO.N,GND*%
G36*
X140342512Y-25249507D02*
G01*
X140395315Y-25295262D01*
X140415000Y-25362301D01*
X140415000Y-26677698D01*
X140395315Y-26744737D01*
X140342511Y-26790492D01*
X140273355Y-26800436D01*
X140200766Y-26790000D01*
X140200763Y-26790000D01*
X140129237Y-26790000D01*
X140129233Y-26790000D01*
X140056645Y-26800436D01*
X139987487Y-26790492D01*
X139934684Y-26744736D01*
X139915000Y-26677698D01*
X139915000Y-25362301D01*
X139934685Y-25295262D01*
X139987489Y-25249507D01*
X140056647Y-25239563D01*
X140129237Y-25250000D01*
X140129238Y-25250000D01*
X140200762Y-25250000D01*
X140200763Y-25250000D01*
X140273353Y-25239563D01*
X140342512Y-25249507D01*
G37*
%TD.AperFunction*%
%TA.AperFunction,Conductor*%
G36*
X152952539Y-22905185D02*
G01*
X152998294Y-22957989D01*
X153009500Y-23009500D01*
X153009500Y-31209589D01*
X152989815Y-31276628D01*
X152937011Y-31322383D01*
X152867853Y-31332327D01*
X152804297Y-31303302D01*
X152771944Y-31259399D01*
X152692588Y-31078486D01*
X152564190Y-30881957D01*
X152545681Y-30861851D01*
X152405191Y-30709238D01*
X152405186Y-30709234D01*
X152405184Y-30709232D01*
X152219938Y-30565049D01*
X152219929Y-30565043D01*
X152013478Y-30453318D01*
X152013468Y-30453313D01*
X151791437Y-30377090D01*
X151617767Y-30348110D01*
X151559879Y-30338450D01*
X151325121Y-30338450D01*
X151307377Y-30341411D01*
X151093562Y-30377090D01*
X150871531Y-30453313D01*
X150871521Y-30453318D01*
X150665070Y-30565043D01*
X150665061Y-30565049D01*
X150479815Y-30709232D01*
X150479812Y-30709235D01*
X150320809Y-30881957D01*
X150192411Y-31078486D01*
X150098111Y-31293469D01*
X150040481Y-31521043D01*
X150040479Y-31521052D01*
X150021095Y-31754994D01*
X150021095Y-31755005D01*
X150040479Y-31988947D01*
X150040481Y-31988956D01*
X150098111Y-32216530D01*
X150192411Y-32431513D01*
X150320809Y-32628042D01*
X150320812Y-32628045D01*
X150479809Y-32800762D01*
X150622509Y-32911830D01*
X150642188Y-32927147D01*
X150683000Y-32983857D01*
X150686675Y-33053630D01*
X150652043Y-33114313D01*
X150642188Y-33122853D01*
X150479811Y-33249236D01*
X150320809Y-33421957D01*
X150192411Y-33618486D01*
X150098111Y-33833469D01*
X150040481Y-34061043D01*
X150040479Y-34061052D01*
X150021095Y-34294994D01*
X150021095Y-34295005D01*
X150040479Y-34528947D01*
X150040481Y-34528956D01*
X150098111Y-34756530D01*
X150192411Y-34971513D01*
X150320809Y-35168042D01*
X150320812Y-35168045D01*
X150479809Y-35340762D01*
X150642187Y-35467146D01*
X150642188Y-35467147D01*
X150683000Y-35523857D01*
X150686675Y-35593630D01*
X150652043Y-35654313D01*
X150642188Y-35662853D01*
X150479811Y-35789236D01*
X150320809Y-35961957D01*
X150192411Y-36158486D01*
X150098111Y-36373469D01*
X150040481Y-36601043D01*
X150040479Y-36601052D01*
X150021095Y-36834994D01*
X150021095Y-36835005D01*
X150040479Y-37068947D01*
X150040481Y-37068956D01*
X150098111Y-37296530D01*
X150192411Y-37511513D01*
X150320809Y-37708042D01*
X150320812Y-37708045D01*
X150479809Y-37880762D01*
X150642185Y-38007145D01*
X150642188Y-38007147D01*
X150683000Y-38063857D01*
X150686675Y-38133630D01*
X150652043Y-38194313D01*
X150642188Y-38202853D01*
X150479811Y-38329236D01*
X150320809Y-38501957D01*
X150192411Y-38698486D01*
X150098111Y-38913469D01*
X150040481Y-39141043D01*
X150040479Y-39141052D01*
X150021095Y-39374994D01*
X150021095Y-39375005D01*
X150040479Y-39608947D01*
X150040481Y-39608956D01*
X150098111Y-39836530D01*
X150192411Y-40051513D01*
X150320809Y-40248042D01*
X150320812Y-40248045D01*
X150479809Y-40420762D01*
X150543033Y-40469971D01*
X150642188Y-40547147D01*
X150683000Y-40603857D01*
X150686675Y-40673630D01*
X150652043Y-40734313D01*
X150642188Y-40742853D01*
X150479811Y-40869236D01*
X150320809Y-41041957D01*
X150192411Y-41238486D01*
X150098111Y-41453469D01*
X150040481Y-41681043D01*
X150040479Y-41681052D01*
X150021095Y-41914994D01*
X150021095Y-41915005D01*
X150040479Y-42148947D01*
X150040481Y-42148956D01*
X150098111Y-42376530D01*
X150192411Y-42591513D01*
X150320809Y-42788042D01*
X150320812Y-42788045D01*
X150479809Y-42960762D01*
X150642187Y-43087146D01*
X150642188Y-43087147D01*
X150683000Y-43143857D01*
X150686675Y-43213630D01*
X150652043Y-43274313D01*
X150642188Y-43282853D01*
X150479811Y-43409236D01*
X150320809Y-43581957D01*
X150192411Y-43778486D01*
X150098111Y-43993469D01*
X150040481Y-44221043D01*
X150040479Y-44221052D01*
X150021095Y-44454994D01*
X150021095Y-44455005D01*
X150040479Y-44688947D01*
X150040481Y-44688956D01*
X150098111Y-44916530D01*
X150192411Y-45131513D01*
X150320809Y-45328042D01*
X150320812Y-45328045D01*
X150479809Y-45500762D01*
X150642187Y-45627146D01*
X150642188Y-45627147D01*
X150683000Y-45683857D01*
X150686675Y-45753630D01*
X150652043Y-45814313D01*
X150642188Y-45822853D01*
X150479811Y-45949236D01*
X150320809Y-46121957D01*
X150192411Y-46318486D01*
X150098111Y-46533469D01*
X150040481Y-46761043D01*
X150040479Y-46761052D01*
X150021095Y-46994994D01*
X150021095Y-46995005D01*
X150040479Y-47228947D01*
X150040481Y-47228956D01*
X150098111Y-47456530D01*
X150192411Y-47671513D01*
X150320809Y-47868042D01*
X150320812Y-47868045D01*
X150479809Y-48040762D01*
X150642185Y-48167145D01*
X150642188Y-48167147D01*
X150683000Y-48223857D01*
X150686675Y-48293630D01*
X150652043Y-48354313D01*
X150642188Y-48362853D01*
X150479811Y-48489236D01*
X150320809Y-48661957D01*
X150192411Y-48858486D01*
X150098111Y-49073469D01*
X150040481Y-49301043D01*
X150040479Y-49301052D01*
X150021095Y-49534994D01*
X150021095Y-49535005D01*
X150040479Y-49768947D01*
X150040481Y-49768956D01*
X150098111Y-49996530D01*
X150192411Y-50211513D01*
X150320809Y-50408042D01*
X150320812Y-50408045D01*
X150479809Y-50580762D01*
X150642187Y-50707146D01*
X150642188Y-50707147D01*
X150683000Y-50763857D01*
X150686675Y-50833630D01*
X150652043Y-50894313D01*
X150642188Y-50902853D01*
X150479811Y-51029236D01*
X150320809Y-51201957D01*
X150192411Y-51398486D01*
X150098111Y-51613469D01*
X150040481Y-51841043D01*
X150040479Y-51841052D01*
X150021095Y-52074994D01*
X150021095Y-52075005D01*
X150040479Y-52308947D01*
X150040481Y-52308956D01*
X150098111Y-52536530D01*
X150192411Y-52751513D01*
X150320809Y-52948042D01*
X150320812Y-52948045D01*
X150479809Y-53120762D01*
X150642185Y-53247145D01*
X150642188Y-53247147D01*
X150683000Y-53303857D01*
X150686675Y-53373630D01*
X150652043Y-53434313D01*
X150642188Y-53442853D01*
X150479811Y-53569236D01*
X150320809Y-53741957D01*
X150192411Y-53938486D01*
X150098111Y-54153469D01*
X150040481Y-54381043D01*
X150040479Y-54381052D01*
X150021095Y-54614994D01*
X150021095Y-54615005D01*
X150040479Y-54848947D01*
X150040481Y-54848956D01*
X150098111Y-55076530D01*
X150192411Y-55291513D01*
X150320809Y-55488042D01*
X150320812Y-55488045D01*
X150479809Y-55660762D01*
X150642185Y-55787145D01*
X150642188Y-55787147D01*
X150683000Y-55843857D01*
X150686675Y-55913630D01*
X150652043Y-55974313D01*
X150642188Y-55982853D01*
X150479811Y-56109236D01*
X150320809Y-56281957D01*
X150192411Y-56478486D01*
X150098111Y-56693469D01*
X150040481Y-56921043D01*
X150040479Y-56921052D01*
X150021095Y-57154994D01*
X150021095Y-57155005D01*
X150040479Y-57388947D01*
X150040481Y-57388956D01*
X150098111Y-57616530D01*
X150192411Y-57831513D01*
X150320809Y-58028042D01*
X150320812Y-58028045D01*
X150479809Y-58200762D01*
X150480808Y-58201539D01*
X150481111Y-58201960D01*
X150483585Y-58204238D01*
X150483116Y-58204746D01*
X150521625Y-58258245D01*
X150525305Y-58328018D01*
X150490679Y-58388704D01*
X150490352Y-58389000D01*
X150490340Y-58389287D01*
X151044323Y-58943270D01*
X151077808Y-59004593D01*
X151072824Y-59074285D01*
X151030952Y-59130218D01*
X151027083Y-59133001D01*
X150975903Y-59168327D01*
X150868950Y-59289054D01*
X150809761Y-59326181D01*
X150739895Y-59325413D01*
X150688454Y-59294508D01*
X150136786Y-58742840D01*
X150134940Y-58745003D01*
X150002426Y-58961245D01*
X149905373Y-59195554D01*
X149846165Y-59442171D01*
X149826268Y-59694999D01*
X149846165Y-59947828D01*
X149905373Y-60194445D01*
X150002426Y-60428754D01*
X150134935Y-60644987D01*
X150134945Y-60645001D01*
X150136787Y-60647157D01*
X150688453Y-60095491D01*
X150749776Y-60062006D01*
X150819467Y-60066990D01*
X150868949Y-60100945D01*
X150968574Y-60213398D01*
X150975907Y-60221675D01*
X151004833Y-60241641D01*
X151027081Y-60256998D01*
X151071071Y-60311281D01*
X151078731Y-60380730D01*
X151047627Y-60443295D01*
X151044322Y-60446729D01*
X150490341Y-61000711D01*
X150490487Y-61004423D01*
X150523384Y-61054830D01*
X150523874Y-61124698D01*
X150486513Y-61183740D01*
X150480827Y-61188445D01*
X150479814Y-61189233D01*
X150479812Y-61189235D01*
X150320809Y-61361957D01*
X150192411Y-61558486D01*
X150098111Y-61773469D01*
X150040481Y-62001043D01*
X150040479Y-62001052D01*
X150021095Y-62234994D01*
X150021095Y-62235005D01*
X150040479Y-62468947D01*
X150040481Y-62468956D01*
X150098111Y-62696530D01*
X150192411Y-62911513D01*
X150320809Y-63108042D01*
X150320812Y-63108045D01*
X150479809Y-63280762D01*
X150642185Y-63407145D01*
X150642188Y-63407147D01*
X150683000Y-63463857D01*
X150686675Y-63533630D01*
X150652043Y-63594313D01*
X150642188Y-63602853D01*
X150479811Y-63729236D01*
X150320809Y-63901957D01*
X150192411Y-64098486D01*
X150098111Y-64313469D01*
X150040481Y-64541043D01*
X150040479Y-64541052D01*
X150021095Y-64774994D01*
X150021095Y-64775005D01*
X150040479Y-65008947D01*
X150040481Y-65008956D01*
X150098111Y-65236530D01*
X150192411Y-65451513D01*
X150320809Y-65648042D01*
X150320812Y-65648045D01*
X150479809Y-65820762D01*
X150642187Y-65947146D01*
X150642188Y-65947147D01*
X150683000Y-66003857D01*
X150686675Y-66073630D01*
X150652043Y-66134313D01*
X150642188Y-66142853D01*
X150479811Y-66269236D01*
X150320809Y-66441957D01*
X150192411Y-66638486D01*
X150098111Y-66853469D01*
X150040481Y-67081043D01*
X150040479Y-67081052D01*
X150021095Y-67314994D01*
X150021095Y-67315005D01*
X150040479Y-67548947D01*
X150040481Y-67548956D01*
X150098111Y-67776530D01*
X150192411Y-67991513D01*
X150320809Y-68188042D01*
X150320812Y-68188045D01*
X150479809Y-68360762D01*
X150642187Y-68487146D01*
X150642188Y-68487147D01*
X150683000Y-68543857D01*
X150686675Y-68613630D01*
X150652043Y-68674313D01*
X150642188Y-68682853D01*
X150479811Y-68809236D01*
X150320809Y-68981957D01*
X150192411Y-69178486D01*
X150098111Y-69393469D01*
X150040481Y-69621043D01*
X150040479Y-69621052D01*
X150021095Y-69854994D01*
X150021095Y-69855005D01*
X150040479Y-70088947D01*
X150040481Y-70088956D01*
X150098111Y-70316530D01*
X150192411Y-70531513D01*
X150320809Y-70728042D01*
X150320812Y-70728045D01*
X150479809Y-70900762D01*
X150642185Y-71027145D01*
X150642188Y-71027147D01*
X150683000Y-71083857D01*
X150686675Y-71153630D01*
X150652043Y-71214313D01*
X150642188Y-71222853D01*
X150479811Y-71349236D01*
X150320809Y-71521957D01*
X150192411Y-71718486D01*
X150098111Y-71933469D01*
X150040481Y-72161043D01*
X150040479Y-72161052D01*
X150021095Y-72394994D01*
X150021095Y-72395005D01*
X150040479Y-72628947D01*
X150040481Y-72628956D01*
X150098111Y-72856530D01*
X150192411Y-73071513D01*
X150320809Y-73268042D01*
X150320812Y-73268045D01*
X150479809Y-73440762D01*
X150642185Y-73567145D01*
X150642188Y-73567147D01*
X150683000Y-73623857D01*
X150686675Y-73693630D01*
X150652043Y-73754313D01*
X150642188Y-73762853D01*
X150479811Y-73889236D01*
X150320809Y-74061957D01*
X150192411Y-74258486D01*
X150098111Y-74473469D01*
X150040481Y-74701043D01*
X150040479Y-74701052D01*
X150021095Y-74934994D01*
X150021095Y-74935005D01*
X150040479Y-75168947D01*
X150040481Y-75168956D01*
X150098111Y-75396530D01*
X150192411Y-75611513D01*
X150320809Y-75808042D01*
X150320812Y-75808045D01*
X150479809Y-75980762D01*
X150642187Y-76107146D01*
X150642188Y-76107147D01*
X150683000Y-76163857D01*
X150686675Y-76233630D01*
X150652043Y-76294313D01*
X150642188Y-76302853D01*
X150479811Y-76429236D01*
X150320809Y-76601957D01*
X150192411Y-76798486D01*
X150098111Y-77013469D01*
X150040481Y-77241043D01*
X150040479Y-77241052D01*
X150021095Y-77474994D01*
X150021095Y-77475005D01*
X150040479Y-77708947D01*
X150040481Y-77708956D01*
X150098111Y-77936530D01*
X150192411Y-78151513D01*
X150320809Y-78348042D01*
X150320812Y-78348045D01*
X150479809Y-78520762D01*
X150642185Y-78647145D01*
X150642188Y-78647147D01*
X150683000Y-78703857D01*
X150686675Y-78773630D01*
X150652043Y-78834313D01*
X150642188Y-78842853D01*
X150479811Y-78969236D01*
X150320809Y-79141957D01*
X150192411Y-79338486D01*
X150098111Y-79553469D01*
X150040481Y-79781043D01*
X150040479Y-79781052D01*
X150021095Y-80014994D01*
X150021095Y-80015005D01*
X150040479Y-80248947D01*
X150040481Y-80248956D01*
X150098111Y-80476530D01*
X150192411Y-80691513D01*
X150320809Y-80888042D01*
X150320812Y-80888045D01*
X150479809Y-81060762D01*
X150665065Y-81204953D01*
X150665067Y-81204954D01*
X150665070Y-81204956D01*
X150785096Y-81269910D01*
X150871528Y-81316685D01*
X150871531Y-81316686D01*
X151093562Y-81392909D01*
X151093564Y-81392909D01*
X151093566Y-81392910D01*
X151325121Y-81431550D01*
X151325122Y-81431550D01*
X151559878Y-81431550D01*
X151559879Y-81431550D01*
X151791434Y-81392910D01*
X152013472Y-81316685D01*
X152219935Y-81204953D01*
X152405191Y-81060762D01*
X152564188Y-80888045D01*
X152692588Y-80691514D01*
X152771944Y-80510599D01*
X152816900Y-80457114D01*
X152883636Y-80436424D01*
X152950964Y-80455099D01*
X152997507Y-80507209D01*
X153009500Y-80560410D01*
X153009500Y-81765500D01*
X152989815Y-81832539D01*
X152937011Y-81878294D01*
X152885500Y-81889500D01*
X134769500Y-81889500D01*
X134702461Y-81869815D01*
X134656706Y-81817011D01*
X134645500Y-81765500D01*
X134645500Y-80583208D01*
X134665185Y-80516169D01*
X134717989Y-80470414D01*
X134787147Y-80460470D01*
X134850703Y-80489495D01*
X134883056Y-80533398D01*
X134952411Y-80691513D01*
X135080809Y-80888042D01*
X135080812Y-80888045D01*
X135239809Y-81060762D01*
X135425065Y-81204953D01*
X135425067Y-81204954D01*
X135425070Y-81204956D01*
X135545096Y-81269910D01*
X135631528Y-81316685D01*
X135631531Y-81316686D01*
X135853562Y-81392909D01*
X135853564Y-81392909D01*
X135853566Y-81392910D01*
X136085121Y-81431550D01*
X136085122Y-81431550D01*
X136319878Y-81431550D01*
X136319879Y-81431550D01*
X136551434Y-81392910D01*
X136773472Y-81316685D01*
X136979935Y-81204953D01*
X137165191Y-81060762D01*
X137324188Y-80888045D01*
X137452588Y-80691514D01*
X137546889Y-80476529D01*
X137604519Y-80248956D01*
X137623905Y-80015000D01*
X137604519Y-79781044D01*
X137546889Y-79553471D01*
X137452588Y-79338486D01*
X137452588Y-79338485D01*
X137324190Y-79141957D01*
X137303790Y-79119797D01*
X137165191Y-78969238D01*
X137002810Y-78842851D01*
X136961999Y-78786143D01*
X136958324Y-78716370D01*
X136992956Y-78655687D01*
X137002800Y-78647156D01*
X137165191Y-78520762D01*
X137324188Y-78348045D01*
X137452588Y-78151514D01*
X137546889Y-77936529D01*
X137604519Y-77708956D01*
X137623905Y-77475000D01*
X137604519Y-77241044D01*
X137546889Y-77013471D01*
X137452588Y-76798486D01*
X137344233Y-76632636D01*
X137324190Y-76601957D01*
X137303790Y-76579797D01*
X137165191Y-76429238D01*
X137002810Y-76302851D01*
X136961999Y-76246143D01*
X136958324Y-76176370D01*
X136992956Y-76115687D01*
X137002800Y-76107156D01*
X137140474Y-76000000D01*
X140789520Y-76000000D01*
X140810165Y-76170029D01*
X140870901Y-76330177D01*
X140870901Y-76330178D01*
X140939277Y-76429236D01*
X140968198Y-76471135D01*
X141096401Y-76584714D01*
X141248060Y-76664310D01*
X141331210Y-76684805D01*
X141414360Y-76705300D01*
X141414361Y-76705300D01*
X141585640Y-76705300D01*
X141641072Y-76691636D01*
X141751940Y-76664310D01*
X141903599Y-76584714D01*
X142011767Y-76488884D01*
X142074999Y-76459163D01*
X142093994Y-76457700D01*
X142543658Y-76457700D01*
X142610697Y-76477385D01*
X142625881Y-76488881D01*
X142698301Y-76553040D01*
X142849960Y-76632636D01*
X142933110Y-76653130D01*
X143016260Y-76673626D01*
X143016261Y-76673626D01*
X143187540Y-76673626D01*
X143242972Y-76659962D01*
X143353840Y-76632636D01*
X143505499Y-76553040D01*
X143633702Y-76439461D01*
X143730999Y-76298503D01*
X143791735Y-76138355D01*
X143812380Y-75968326D01*
X143791735Y-75798297D01*
X143730999Y-75638149D01*
X143712613Y-75611513D01*
X143661632Y-75537654D01*
X143633702Y-75497191D01*
X143505499Y-75383612D01*
X143353840Y-75304016D01*
X143353839Y-75304015D01*
X143353838Y-75304015D01*
X143187540Y-75263026D01*
X143187539Y-75263026D01*
X143016261Y-75263026D01*
X143016260Y-75263026D01*
X142849961Y-75304015D01*
X142698302Y-75383611D01*
X142570093Y-75497195D01*
X142567142Y-75500527D01*
X142507953Y-75537654D01*
X142474327Y-75542300D01*
X142093994Y-75542300D01*
X142026955Y-75522615D01*
X142011769Y-75511118D01*
X141903599Y-75415286D01*
X141751940Y-75335690D01*
X141751939Y-75335689D01*
X141751938Y-75335689D01*
X141585640Y-75294700D01*
X141585639Y-75294700D01*
X141414361Y-75294700D01*
X141414360Y-75294700D01*
X141248061Y-75335689D01*
X141096402Y-75415285D01*
X140968198Y-75528864D01*
X140968196Y-75528867D01*
X140870901Y-75669821D01*
X140870901Y-75669822D01*
X140810165Y-75829970D01*
X140789520Y-75999999D01*
X140789520Y-76000000D01*
X137140474Y-76000000D01*
X137165191Y-75980762D01*
X137324188Y-75808045D01*
X137452588Y-75611514D01*
X137546889Y-75396529D01*
X137604519Y-75168956D01*
X137623905Y-74935000D01*
X137604519Y-74701044D01*
X137546889Y-74473471D01*
X137452588Y-74258486D01*
X137452588Y-74258485D01*
X137324190Y-74061957D01*
X137303790Y-74039797D01*
X137165191Y-73889238D01*
X137002810Y-73762851D01*
X136961999Y-73706143D01*
X136958324Y-73636370D01*
X136992956Y-73575687D01*
X137002800Y-73567156D01*
X137165191Y-73440762D01*
X137324188Y-73268045D01*
X137452588Y-73071514D01*
X137546889Y-72856529D01*
X137604519Y-72628956D01*
X137623905Y-72395000D01*
X137604519Y-72161044D01*
X137546889Y-71933471D01*
X137452588Y-71718486D01*
X137452588Y-71718485D01*
X137324190Y-71521957D01*
X137305020Y-71501133D01*
X137165191Y-71349238D01*
X137056004Y-71264254D01*
X137002811Y-71222852D01*
X136961998Y-71166142D01*
X136958324Y-71096369D01*
X136992956Y-71035686D01*
X137002788Y-71027165D01*
X137165191Y-70900762D01*
X137324188Y-70728045D01*
X137452588Y-70531514D01*
X137546889Y-70316529D01*
X137604519Y-70088956D01*
X137623905Y-69855000D01*
X137604519Y-69621044D01*
X137546889Y-69393471D01*
X137452588Y-69178486D01*
X137452587Y-69178485D01*
X137324190Y-68981957D01*
X137303790Y-68959797D01*
X137165191Y-68809238D01*
X137002810Y-68682851D01*
X136961999Y-68626143D01*
X136958324Y-68556370D01*
X136992956Y-68495687D01*
X137002800Y-68487156D01*
X137165191Y-68360762D01*
X137324188Y-68188045D01*
X137452588Y-67991514D01*
X137546889Y-67776529D01*
X137604519Y-67548956D01*
X137623905Y-67315000D01*
X137604519Y-67081044D01*
X137546889Y-66853471D01*
X137452588Y-66638486D01*
X137452587Y-66638485D01*
X137324190Y-66441957D01*
X137303790Y-66419797D01*
X137165191Y-66269238D01*
X137002810Y-66142851D01*
X136961999Y-66086143D01*
X136958324Y-66016370D01*
X136992956Y-65955687D01*
X137002800Y-65947156D01*
X137165191Y-65820762D01*
X137324188Y-65648045D01*
X137452588Y-65451514D01*
X137546889Y-65236529D01*
X137604519Y-65008956D01*
X137623905Y-64775000D01*
X137604519Y-64541044D01*
X137546889Y-64313471D01*
X137452588Y-64098486D01*
X137452587Y-64098485D01*
X137324190Y-63901957D01*
X137305020Y-63881133D01*
X137165191Y-63729238D01*
X137056004Y-63644254D01*
X137002811Y-63602852D01*
X136961998Y-63546142D01*
X136958324Y-63476369D01*
X136992956Y-63415686D01*
X137002788Y-63407165D01*
X137165191Y-63280762D01*
X137324188Y-63108045D01*
X137452588Y-62911514D01*
X137546889Y-62696529D01*
X137604519Y-62468956D01*
X137623905Y-62235000D01*
X137604519Y-62001044D01*
X137546889Y-61773471D01*
X137452588Y-61558486D01*
X137452587Y-61558485D01*
X137324190Y-61361957D01*
X137303790Y-61339797D01*
X137165191Y-61189238D01*
X137002810Y-61062851D01*
X136961999Y-61006143D01*
X136958324Y-60936370D01*
X136992956Y-60875687D01*
X137002800Y-60867156D01*
X137165191Y-60740762D01*
X137324188Y-60568045D01*
X137452588Y-60371514D01*
X137546889Y-60156529D01*
X137604519Y-59928956D01*
X137604520Y-59928947D01*
X137623905Y-59695005D01*
X137623905Y-59694994D01*
X137604520Y-59461052D01*
X137604519Y-59461049D01*
X137604519Y-59461044D01*
X137546889Y-59233471D01*
X137452588Y-59018486D01*
X137343451Y-58851439D01*
X137324190Y-58821957D01*
X137253353Y-58745008D01*
X137165191Y-58649238D01*
X137002810Y-58522851D01*
X136961999Y-58466143D01*
X136958324Y-58396370D01*
X136992956Y-58335687D01*
X137002800Y-58327156D01*
X137165191Y-58200762D01*
X137324188Y-58028045D01*
X137452588Y-57831514D01*
X137546889Y-57616529D01*
X137604519Y-57388956D01*
X137623905Y-57155000D01*
X137604519Y-56921044D01*
X137546889Y-56693471D01*
X137452588Y-56478486D01*
X137452587Y-56478485D01*
X137324190Y-56281957D01*
X137303790Y-56259797D01*
X137165191Y-56109238D01*
X137002810Y-55982851D01*
X136961999Y-55926143D01*
X136958324Y-55856370D01*
X136992956Y-55795687D01*
X137002800Y-55787156D01*
X137165191Y-55660762D01*
X137324188Y-55488045D01*
X137452588Y-55291514D01*
X137546889Y-55076529D01*
X137604519Y-54848956D01*
X137623905Y-54615000D01*
X137604519Y-54381044D01*
X137546889Y-54153471D01*
X137452588Y-53938486D01*
X137452587Y-53938485D01*
X137324190Y-53741957D01*
X137303790Y-53719797D01*
X137165191Y-53569238D01*
X137002810Y-53442851D01*
X136961999Y-53386143D01*
X136958324Y-53316370D01*
X136992956Y-53255687D01*
X137002800Y-53247156D01*
X137165191Y-53120762D01*
X137324188Y-52948045D01*
X137452588Y-52751514D01*
X137546889Y-52536529D01*
X137604519Y-52308956D01*
X137623905Y-52075000D01*
X137604519Y-51841044D01*
X137546889Y-51613471D01*
X137452588Y-51398486D01*
X137452587Y-51398485D01*
X137324190Y-51201957D01*
X137303790Y-51179797D01*
X137165191Y-51029238D01*
X137002810Y-50902851D01*
X136961999Y-50846143D01*
X136958324Y-50776370D01*
X136992956Y-50715687D01*
X137002800Y-50707156D01*
X137165191Y-50580762D01*
X137324188Y-50408045D01*
X137452588Y-50211514D01*
X137546889Y-49996529D01*
X137604519Y-49768956D01*
X137623905Y-49535000D01*
X137604519Y-49301044D01*
X137546889Y-49073471D01*
X137452588Y-48858486D01*
X137452587Y-48858485D01*
X137324190Y-48661957D01*
X137303790Y-48639797D01*
X137165191Y-48489238D01*
X137002810Y-48362851D01*
X136961999Y-48306143D01*
X136958324Y-48236370D01*
X136992956Y-48175687D01*
X137002800Y-48167156D01*
X137165191Y-48040762D01*
X137324188Y-47868045D01*
X137452588Y-47671514D01*
X137546889Y-47456529D01*
X137604519Y-47228956D01*
X137623905Y-46995000D01*
X137604519Y-46761044D01*
X137546889Y-46533471D01*
X137452588Y-46318486D01*
X137452587Y-46318485D01*
X137324190Y-46121957D01*
X137303790Y-46099797D01*
X137165191Y-45949238D01*
X137002810Y-45822851D01*
X136961999Y-45766143D01*
X136958324Y-45696370D01*
X136992956Y-45635687D01*
X137002800Y-45627156D01*
X137165191Y-45500762D01*
X137324188Y-45328045D01*
X137452588Y-45131514D01*
X137546889Y-44916529D01*
X137604519Y-44688956D01*
X137623905Y-44455000D01*
X137604519Y-44221044D01*
X137546889Y-43993471D01*
X137452588Y-43778486D01*
X137452587Y-43778485D01*
X137324190Y-43581957D01*
X137303790Y-43559797D01*
X137165191Y-43409238D01*
X137002810Y-43282851D01*
X136961999Y-43226143D01*
X136958324Y-43156370D01*
X136992956Y-43095687D01*
X137002800Y-43087156D01*
X137165191Y-42960762D01*
X137324188Y-42788045D01*
X137452588Y-42591514D01*
X137546889Y-42376529D01*
X137604519Y-42148956D01*
X137623905Y-41915000D01*
X137604519Y-41681044D01*
X137546889Y-41453471D01*
X137452588Y-41238486D01*
X137369384Y-41111132D01*
X137324190Y-41041957D01*
X137303790Y-41019797D01*
X137165191Y-40869238D01*
X137002810Y-40742851D01*
X136961999Y-40686143D01*
X136958324Y-40616370D01*
X136992956Y-40555687D01*
X137002800Y-40547156D01*
X137165191Y-40420762D01*
X137324188Y-40248045D01*
X137452588Y-40051514D01*
X137546889Y-39836529D01*
X137604519Y-39608956D01*
X137606983Y-39579224D01*
X137623905Y-39375005D01*
X137623905Y-39374994D01*
X137604520Y-39141052D01*
X137604519Y-39141049D01*
X137604519Y-39141044D01*
X137546889Y-38913471D01*
X137452588Y-38698486D01*
X137452587Y-38698485D01*
X137324190Y-38501957D01*
X137303790Y-38479797D01*
X137165191Y-38329238D01*
X137002810Y-38202851D01*
X136961999Y-38146143D01*
X136958324Y-38076370D01*
X136992956Y-38015687D01*
X137002800Y-38007156D01*
X137165191Y-37880762D01*
X137324188Y-37708045D01*
X137324883Y-37706982D01*
X137386747Y-37612291D01*
X137412887Y-37572281D01*
X138056560Y-37572281D01*
X138060925Y-37618459D01*
X138061200Y-37624297D01*
X138061200Y-39033551D01*
X138059480Y-39049129D01*
X138059770Y-39049157D01*
X138059036Y-39056922D01*
X138061200Y-39125778D01*
X138061200Y-39155192D01*
X138062063Y-39162015D01*
X138062521Y-39167839D01*
X138063978Y-39214200D01*
X138069533Y-39233321D01*
X138073477Y-39252366D01*
X138075972Y-39272115D01*
X138075974Y-39272120D01*
X138093048Y-39315245D01*
X138094940Y-39320773D01*
X138107878Y-39365307D01*
X138107879Y-39365308D01*
X138118008Y-39382435D01*
X138126567Y-39399907D01*
X138133895Y-39418414D01*
X138133898Y-39418421D01*
X138147299Y-39436866D01*
X138161158Y-39455941D01*
X138164367Y-39460826D01*
X138187976Y-39500746D01*
X138187983Y-39500756D01*
X138202050Y-39514822D01*
X138214689Y-39529619D01*
X138226391Y-39545725D01*
X138262132Y-39575293D01*
X138266442Y-39579214D01*
X138278877Y-39591649D01*
X138312365Y-39652969D01*
X138315200Y-39679333D01*
X138315200Y-40171181D01*
X138315201Y-40171197D01*
X138323209Y-40234592D01*
X138312082Y-40303570D01*
X138309993Y-40307740D01*
X138308904Y-40309815D01*
X138248165Y-40469970D01*
X138227520Y-40639999D01*
X138227520Y-40640000D01*
X138248165Y-40810029D01*
X138308901Y-40970177D01*
X138308901Y-40970178D01*
X138397148Y-41098024D01*
X138406198Y-41111135D01*
X138534401Y-41224714D01*
X138686060Y-41304310D01*
X138769210Y-41324804D01*
X138852360Y-41345300D01*
X138852361Y-41345300D01*
X139023640Y-41345300D01*
X139079072Y-41331636D01*
X139189940Y-41304310D01*
X139341599Y-41224714D01*
X139469802Y-41111135D01*
X139567099Y-40970177D01*
X139627835Y-40810029D01*
X139648480Y-40640000D01*
X139627835Y-40469971D01*
X139567099Y-40309823D01*
X139567098Y-40309821D01*
X139564439Y-40302810D01*
X139566094Y-40302182D01*
X139554223Y-40242939D01*
X139557642Y-40222976D01*
X139560799Y-40210680D01*
X139560800Y-40210678D01*
X139560800Y-40132000D01*
X143561520Y-40132000D01*
X143582165Y-40302029D01*
X143642901Y-40462177D01*
X143642901Y-40462178D01*
X143701551Y-40547146D01*
X143740198Y-40603135D01*
X143868401Y-40716714D01*
X144020060Y-40796310D01*
X144075720Y-40810029D01*
X144186360Y-40837300D01*
X144186361Y-40837300D01*
X144357640Y-40837300D01*
X144413072Y-40823636D01*
X144523940Y-40796310D01*
X144675599Y-40716714D01*
X144803802Y-40603135D01*
X144901099Y-40462177D01*
X144961835Y-40302029D01*
X144982480Y-40132000D01*
X144961835Y-39961971D01*
X144901099Y-39801823D01*
X144897372Y-39796424D01*
X144852450Y-39731344D01*
X144803802Y-39660865D01*
X144803795Y-39660859D01*
X144775989Y-39636224D01*
X144738864Y-39577034D01*
X144734218Y-39543410D01*
X144734218Y-37164073D01*
X144753903Y-37097034D01*
X144775986Y-37071261D01*
X144808320Y-37042617D01*
X144905617Y-36901659D01*
X144966353Y-36741511D01*
X144986998Y-36571482D01*
X144966353Y-36401453D01*
X144905617Y-36241305D01*
X144808320Y-36100347D01*
X144680117Y-35986768D01*
X144528458Y-35907172D01*
X144528457Y-35907171D01*
X144528456Y-35907171D01*
X144362158Y-35866182D01*
X144362157Y-35866182D01*
X144190879Y-35866182D01*
X144190878Y-35866182D01*
X144024579Y-35907171D01*
X143872920Y-35986767D01*
X143744716Y-36100346D01*
X143744714Y-36100349D01*
X143647419Y-36241303D01*
X143647419Y-36241304D01*
X143586683Y-36401452D01*
X143566038Y-36571481D01*
X143566038Y-36571482D01*
X143586683Y-36741511D01*
X143647419Y-36901659D01*
X143647419Y-36901660D01*
X143735666Y-37029506D01*
X143744716Y-37042617D01*
X143777046Y-37071259D01*
X143814171Y-37130446D01*
X143818818Y-37164073D01*
X143818818Y-39535405D01*
X143799133Y-39602444D01*
X143777046Y-39628219D01*
X143740203Y-39660859D01*
X143740196Y-39660867D01*
X143642901Y-39801821D01*
X143642901Y-39801822D01*
X143582165Y-39961970D01*
X143561520Y-40131999D01*
X143561520Y-40132000D01*
X139560800Y-40132000D01*
X139560800Y-39452446D01*
X139562519Y-39436866D01*
X139562230Y-39436839D01*
X139562962Y-39429083D01*
X139562964Y-39429076D01*
X139560800Y-39360221D01*
X139560800Y-39330817D01*
X139559934Y-39323972D01*
X139559477Y-39318153D01*
X139559386Y-39315245D01*
X139558021Y-39271798D01*
X139552467Y-39252682D01*
X139548521Y-39233627D01*
X139548482Y-39233321D01*
X139546028Y-39213885D01*
X139528952Y-39170756D01*
X139527060Y-39165230D01*
X139524889Y-39157760D01*
X139514120Y-39120690D01*
X139503987Y-39103557D01*
X139495429Y-39086087D01*
X139488102Y-39067579D01*
X139460837Y-39030053D01*
X139457630Y-39025169D01*
X139434022Y-38985250D01*
X139434021Y-38985249D01*
X139434020Y-38985247D01*
X139419946Y-38971172D01*
X139407306Y-38956374D01*
X139395610Y-38940276D01*
X139395610Y-38940275D01*
X139359876Y-38910714D01*
X139355564Y-38906791D01*
X139343119Y-38894345D01*
X139309634Y-38833023D01*
X139306800Y-38806665D01*
X139306800Y-37904162D01*
X139326485Y-37837123D01*
X139340406Y-37819280D01*
X139385306Y-37771465D01*
X139406092Y-37750680D01*
X139410309Y-37745241D01*
X139414106Y-37740796D01*
X139445859Y-37706983D01*
X139455443Y-37689549D01*
X139466128Y-37673282D01*
X139478331Y-37657551D01*
X139496759Y-37614964D01*
X139499320Y-37609737D01*
X139521667Y-37569090D01*
X139526616Y-37549812D01*
X139532918Y-37531407D01*
X139540825Y-37513137D01*
X139548086Y-37467291D01*
X139549260Y-37461621D01*
X139560800Y-37416678D01*
X139560800Y-37396771D01*
X139562327Y-37377372D01*
X139564934Y-37360911D01*
X139565440Y-37357719D01*
X139561075Y-37311542D01*
X139560800Y-37305704D01*
X139560800Y-33008510D01*
X139568858Y-32964539D01*
X139583039Y-32927147D01*
X139627835Y-32809029D01*
X139648480Y-32639000D01*
X139647149Y-32628042D01*
X139645973Y-32618353D01*
X139627835Y-32468971D01*
X139567099Y-32308823D01*
X139469802Y-32167865D01*
X139341599Y-32054286D01*
X139189940Y-31974690D01*
X139189939Y-31974689D01*
X139189938Y-31974689D01*
X139023640Y-31933700D01*
X139023639Y-31933700D01*
X138852361Y-31933700D01*
X138852360Y-31933700D01*
X138686061Y-31974689D01*
X138534402Y-32054285D01*
X138406198Y-32167864D01*
X138406196Y-32167867D01*
X138308901Y-32308821D01*
X138308901Y-32308822D01*
X138248165Y-32468970D01*
X138227520Y-32638999D01*
X138227520Y-32639000D01*
X138248165Y-32809029D01*
X138307142Y-32964539D01*
X138315200Y-33008510D01*
X138315200Y-37025837D01*
X138295515Y-37092876D01*
X138281593Y-37110720D01*
X138236708Y-37158518D01*
X138215912Y-37179313D01*
X138215908Y-37179318D01*
X138211678Y-37184770D01*
X138207889Y-37189206D01*
X138176145Y-37223011D01*
X138176140Y-37223017D01*
X138166551Y-37240460D01*
X138155873Y-37256715D01*
X138143669Y-37272449D01*
X138143665Y-37272456D01*
X138125243Y-37315024D01*
X138122674Y-37320270D01*
X138100332Y-37360911D01*
X138095382Y-37380190D01*
X138089083Y-37398586D01*
X138087084Y-37403208D01*
X138081174Y-37416866D01*
X138073918Y-37462680D01*
X138072733Y-37468402D01*
X138061200Y-37513322D01*
X138061200Y-37533228D01*
X138059673Y-37552627D01*
X138056560Y-37572280D01*
X138056560Y-37572281D01*
X137412887Y-37572281D01*
X137452588Y-37511514D01*
X137546889Y-37296529D01*
X137604519Y-37068956D01*
X137604520Y-37068947D01*
X137623905Y-36835005D01*
X137623905Y-36834994D01*
X137604520Y-36601052D01*
X137604519Y-36601049D01*
X137604519Y-36601044D01*
X137546889Y-36373471D01*
X137452588Y-36158486D01*
X137414603Y-36100346D01*
X137324190Y-35961957D01*
X137273756Y-35907171D01*
X137165191Y-35789238D01*
X137002810Y-35662851D01*
X136961999Y-35606143D01*
X136958324Y-35536370D01*
X136992956Y-35475687D01*
X137002800Y-35467156D01*
X137165191Y-35340762D01*
X137324188Y-35168045D01*
X137452588Y-34971514D01*
X137546889Y-34756529D01*
X137604519Y-34528956D01*
X137623905Y-34295000D01*
X137604519Y-34061044D01*
X137546889Y-33833471D01*
X137452588Y-33618486D01*
X137452587Y-33618485D01*
X137324190Y-33421957D01*
X137284182Y-33378497D01*
X137253260Y-33315842D01*
X137261120Y-33246416D01*
X137305267Y-33192261D01*
X137361126Y-33171340D01*
X137384859Y-33168588D01*
X137489275Y-33122484D01*
X137569984Y-33041775D01*
X137616088Y-32937359D01*
X137619050Y-32911829D01*
X137619049Y-30598172D01*
X137616088Y-30572641D01*
X137569984Y-30468225D01*
X137489275Y-30387516D01*
X137465662Y-30377090D01*
X137384860Y-30341412D01*
X137359329Y-30338450D01*
X135045678Y-30338450D01*
X135045655Y-30338452D01*
X135020143Y-30341411D01*
X135020140Y-30341412D01*
X134915725Y-30387515D01*
X134915724Y-30387516D01*
X134857181Y-30446060D01*
X134795858Y-30479545D01*
X134726166Y-30474561D01*
X134670233Y-30432689D01*
X134645816Y-30367225D01*
X134645500Y-30358379D01*
X134645500Y-27290000D01*
X136464751Y-27290000D01*
X136484505Y-27503194D01*
X136543099Y-27709127D01*
X136543104Y-27709140D01*
X136638536Y-27900792D01*
X136767567Y-28071657D01*
X136925793Y-28215898D01*
X136925795Y-28215900D01*
X137107829Y-28328610D01*
X137107830Y-28328610D01*
X137107833Y-28328612D01*
X137307483Y-28405957D01*
X137517946Y-28445300D01*
X137517948Y-28445300D01*
X137732052Y-28445300D01*
X137732054Y-28445300D01*
X137942517Y-28405957D01*
X138142167Y-28328612D01*
X138324206Y-28215899D01*
X138482434Y-28071655D01*
X138611464Y-27900792D01*
X138676916Y-27769345D01*
X138724418Y-27718109D01*
X138792081Y-27700687D01*
X138858421Y-27722612D01*
X138900298Y-27772212D01*
X138991399Y-27967578D01*
X139126894Y-28161082D01*
X139293917Y-28328105D01*
X139487421Y-28463600D01*
X139701507Y-28563429D01*
X139701516Y-28563433D01*
X139915000Y-28620634D01*
X139915000Y-27902301D01*
X139934685Y-27835262D01*
X139987489Y-27789507D01*
X140056647Y-27779563D01*
X140129237Y-27790000D01*
X140129238Y-27790000D01*
X140200762Y-27790000D01*
X140200763Y-27790000D01*
X140273353Y-27779563D01*
X140342512Y-27789507D01*
X140395315Y-27835262D01*
X140415000Y-27902301D01*
X140415000Y-28620633D01*
X140628483Y-28563433D01*
X140628492Y-28563429D01*
X140842579Y-28463599D01*
X140842583Y-28463597D01*
X140848410Y-28459517D01*
X140914615Y-28437187D01*
X140982383Y-28454195D01*
X141030198Y-28505141D01*
X141041375Y-28538036D01*
X141048688Y-28576686D01*
X141057694Y-28636434D01*
X141060236Y-28644676D01*
X141063106Y-28652880D01*
X141091339Y-28706299D01*
X141117559Y-28760745D01*
X141122425Y-28767882D01*
X141127574Y-28774859D01*
X141127576Y-28774862D01*
X141170308Y-28817594D01*
X141205354Y-28855365D01*
X141211408Y-28861889D01*
X141218671Y-28867681D01*
X141218160Y-28868320D01*
X141230509Y-28877795D01*
X142021373Y-29668659D01*
X142785344Y-30432629D01*
X142818829Y-30493952D01*
X142820242Y-30524174D01*
X142821194Y-30524174D01*
X142821194Y-30531674D01*
X142841839Y-30701703D01*
X142902575Y-30861851D01*
X142902575Y-30861852D01*
X142916453Y-30881957D01*
X142999872Y-31002809D01*
X143128075Y-31116388D01*
X143279734Y-31195984D01*
X143334931Y-31209589D01*
X143446034Y-31236974D01*
X143446035Y-31236974D01*
X143617314Y-31236974D01*
X143672746Y-31223310D01*
X143783614Y-31195984D01*
X143935273Y-31116388D01*
X144063476Y-31002809D01*
X144160773Y-30861851D01*
X144221509Y-30701703D01*
X144241220Y-30539364D01*
X144268842Y-30475187D01*
X144326776Y-30436130D01*
X144364316Y-30430311D01*
X144423977Y-30430311D01*
X144479409Y-30416647D01*
X144590277Y-30389321D01*
X144741936Y-30309725D01*
X144870139Y-30196146D01*
X144967436Y-30055188D01*
X145028172Y-29895040D01*
X145048817Y-29725011D01*
X145028172Y-29554982D01*
X144967436Y-29394834D01*
X144949431Y-29368750D01*
X144908694Y-29309732D01*
X144870139Y-29253876D01*
X144741936Y-29140297D01*
X144590277Y-29060701D01*
X144590274Y-29060700D01*
X144590272Y-29060699D01*
X144552023Y-29051271D01*
X144491643Y-29016114D01*
X144459855Y-28953895D01*
X144457700Y-28930875D01*
X144457700Y-28383975D01*
X144477385Y-28316936D01*
X144530189Y-28271181D01*
X144599347Y-28261237D01*
X144646973Y-28278546D01*
X144727833Y-28328612D01*
X144927483Y-28405957D01*
X145137946Y-28445300D01*
X145137948Y-28445300D01*
X145352052Y-28445300D01*
X145352054Y-28445300D01*
X145562517Y-28405957D01*
X145762167Y-28328612D01*
X145853022Y-28272357D01*
X145920384Y-28253802D01*
X145987083Y-28274610D01*
X146031944Y-28328175D01*
X146042300Y-28377784D01*
X146042300Y-28602871D01*
X146022615Y-28669910D01*
X145975926Y-28712667D01*
X145920452Y-28741782D01*
X145792247Y-28855362D01*
X145792245Y-28855365D01*
X145694950Y-28996319D01*
X145694950Y-28996320D01*
X145634214Y-29156468D01*
X145613569Y-29326497D01*
X145613569Y-29326498D01*
X145634214Y-29496527D01*
X145694950Y-29656675D01*
X145694950Y-29656676D01*
X145762214Y-29754123D01*
X145792247Y-29797633D01*
X145920450Y-29911212D01*
X146072109Y-29990808D01*
X146155259Y-30011303D01*
X146238409Y-30031798D01*
X146238410Y-30031798D01*
X146409689Y-30031798D01*
X146465121Y-30018134D01*
X146575989Y-29990808D01*
X146727648Y-29911212D01*
X146855851Y-29797633D01*
X146953148Y-29656675D01*
X147013884Y-29496527D01*
X147034529Y-29326498D01*
X147025711Y-29253878D01*
X147013884Y-29156469D01*
X147006879Y-29137999D01*
X146965755Y-29029564D01*
X146957699Y-28985604D01*
X146957699Y-28359207D01*
X146977384Y-28292169D01*
X147030188Y-28246414D01*
X147099346Y-28236470D01*
X147146976Y-28253781D01*
X147267829Y-28328610D01*
X147267830Y-28328610D01*
X147267833Y-28328612D01*
X147467483Y-28405957D01*
X147677946Y-28445300D01*
X147677948Y-28445300D01*
X147892052Y-28445300D01*
X147892054Y-28445300D01*
X148102517Y-28405957D01*
X148302167Y-28328612D01*
X148475623Y-28221212D01*
X148542983Y-28202658D01*
X148609683Y-28223466D01*
X148654544Y-28277031D01*
X148664900Y-28326640D01*
X148664900Y-28565861D01*
X148645215Y-28632900D01*
X148592411Y-28678655D01*
X148570576Y-28686258D01*
X148496811Y-28704439D01*
X148345152Y-28784035D01*
X148216948Y-28897614D01*
X148216946Y-28897617D01*
X148119651Y-29038571D01*
X148119651Y-29038572D01*
X148058915Y-29198720D01*
X148038270Y-29368749D01*
X148038270Y-29368750D01*
X148058915Y-29538779D01*
X148119651Y-29698927D01*
X148119651Y-29698928D01*
X148151948Y-29745717D01*
X148216948Y-29839885D01*
X148345151Y-29953464D01*
X148496810Y-30033060D01*
X148579960Y-30053554D01*
X148663110Y-30074050D01*
X148663111Y-30074050D01*
X148834390Y-30074050D01*
X148910914Y-30055188D01*
X149000690Y-30033060D01*
X149152349Y-29953464D01*
X149280552Y-29839885D01*
X149377849Y-29698927D01*
X149438585Y-29538779D01*
X149459230Y-29368750D01*
X149459171Y-29368270D01*
X149459230Y-29367921D01*
X149459230Y-29361249D01*
X149460339Y-29361249D01*
X149470630Y-29299347D01*
X149479813Y-29283469D01*
X149495954Y-29259794D01*
X149500322Y-29253876D01*
X149531830Y-29211185D01*
X149531831Y-29211179D01*
X149535869Y-29203541D01*
X149539627Y-29195736D01*
X149539631Y-29195732D01*
X149557439Y-29137999D01*
X149577401Y-29080953D01*
X149577401Y-29080949D01*
X149577402Y-29080947D01*
X149579004Y-29072480D01*
X149580300Y-29063887D01*
X149580300Y-29003475D01*
X149582560Y-28943076D01*
X149581520Y-28933844D01*
X149582331Y-28933752D01*
X149580300Y-28918316D01*
X149580300Y-28569299D01*
X149599985Y-28502260D01*
X149652789Y-28456505D01*
X149704300Y-28445299D01*
X151220572Y-28445299D01*
X151220578Y-28445299D01*
X151246109Y-28442338D01*
X151350525Y-28396234D01*
X151431234Y-28315525D01*
X151477338Y-28211109D01*
X151480300Y-28185579D01*
X151480299Y-26394422D01*
X151477338Y-26368891D01*
X151431234Y-26264475D01*
X151350525Y-26183766D01*
X151328507Y-26174044D01*
X151246110Y-26137662D01*
X151220580Y-26134700D01*
X151220579Y-26134700D01*
X150543043Y-26134700D01*
X150476004Y-26115015D01*
X150430249Y-26062211D01*
X150420305Y-25993053D01*
X150449330Y-25929497D01*
X150508108Y-25891723D01*
X150520247Y-25888813D01*
X150642517Y-25865957D01*
X150842167Y-25788612D01*
X151024206Y-25675899D01*
X151182434Y-25531655D01*
X151311464Y-25360792D01*
X151406900Y-25169130D01*
X151465494Y-24963195D01*
X151485249Y-24750000D01*
X151481316Y-24707560D01*
X151465494Y-24536805D01*
X151465494Y-24536804D01*
X151406900Y-24330870D01*
X151401070Y-24319162D01*
X151311464Y-24139209D01*
X151311464Y-24139208D01*
X151182434Y-23968345D01*
X151182432Y-23968342D01*
X151024206Y-23824101D01*
X151024204Y-23824099D01*
X150842170Y-23711389D01*
X150842164Y-23711387D01*
X150642517Y-23634043D01*
X150432054Y-23594700D01*
X150217946Y-23594700D01*
X150007483Y-23634043D01*
X149881227Y-23682954D01*
X149807835Y-23711387D01*
X149807829Y-23711389D01*
X149625795Y-23824099D01*
X149625793Y-23824101D01*
X149467567Y-23968342D01*
X149338536Y-24139207D01*
X149243104Y-24330859D01*
X149243099Y-24330872D01*
X149184505Y-24536805D01*
X149178471Y-24601934D01*
X149152685Y-24666871D01*
X149095885Y-24707559D01*
X149026104Y-24711079D01*
X148965497Y-24676314D01*
X148933307Y-24614301D01*
X148931529Y-24601934D01*
X148925494Y-24536805D01*
X148925493Y-24536804D01*
X148866900Y-24330870D01*
X148861070Y-24319162D01*
X148771464Y-24139209D01*
X148771464Y-24139208D01*
X148642434Y-23968345D01*
X148642432Y-23968342D01*
X148484206Y-23824101D01*
X148484204Y-23824099D01*
X148302170Y-23711389D01*
X148302164Y-23711387D01*
X148102517Y-23634043D01*
X147892054Y-23594700D01*
X147677946Y-23594700D01*
X147467483Y-23634043D01*
X147341227Y-23682954D01*
X147267835Y-23711387D01*
X147267829Y-23711389D01*
X147085795Y-23824099D01*
X147085793Y-23824101D01*
X146927567Y-23968342D01*
X146798536Y-24139207D01*
X146703104Y-24330859D01*
X146703099Y-24330872D01*
X146644506Y-24536805D01*
X146638470Y-24601936D01*
X146612683Y-24666873D01*
X146555882Y-24707560D01*
X146486101Y-24711079D01*
X146425495Y-24676313D01*
X146393306Y-24614299D01*
X146391529Y-24601936D01*
X146385494Y-24536805D01*
X146326900Y-24330870D01*
X146321070Y-24319162D01*
X146231464Y-24139209D01*
X146231464Y-24139208D01*
X146102434Y-23968345D01*
X146102432Y-23968342D01*
X145944206Y-23824101D01*
X145944204Y-23824099D01*
X145762170Y-23711389D01*
X145762164Y-23711387D01*
X145562517Y-23634043D01*
X145352054Y-23594700D01*
X145137946Y-23594700D01*
X144927483Y-23634043D01*
X144801227Y-23682954D01*
X144727835Y-23711387D01*
X144727829Y-23711389D01*
X144545795Y-23824099D01*
X144545793Y-23824101D01*
X144387567Y-23968342D01*
X144258536Y-24139207D01*
X144163104Y-24330859D01*
X144163099Y-24330872D01*
X144104505Y-24536805D01*
X144098471Y-24601934D01*
X144072685Y-24666871D01*
X144015885Y-24707559D01*
X143946104Y-24711079D01*
X143885497Y-24676314D01*
X143853307Y-24614301D01*
X143851529Y-24601934D01*
X143845494Y-24536805D01*
X143845493Y-24536804D01*
X143786900Y-24330870D01*
X143781070Y-24319162D01*
X143691464Y-24139209D01*
X143691464Y-24139208D01*
X143562434Y-23968345D01*
X143562432Y-23968342D01*
X143404206Y-23824101D01*
X143404204Y-23824099D01*
X143222170Y-23711389D01*
X143222164Y-23711387D01*
X143022517Y-23634043D01*
X142812054Y-23594700D01*
X142597946Y-23594700D01*
X142387483Y-23634043D01*
X142261227Y-23682954D01*
X142187835Y-23711387D01*
X142187829Y-23711389D01*
X142005795Y-23824099D01*
X142005793Y-23824101D01*
X141847567Y-23968342D01*
X141718536Y-24139207D01*
X141653083Y-24270654D01*
X141605580Y-24321891D01*
X141537917Y-24339312D01*
X141471577Y-24317386D01*
X141429701Y-24267787D01*
X141338600Y-24072422D01*
X141338599Y-24072420D01*
X141203113Y-23878926D01*
X141203108Y-23878920D01*
X141036082Y-23711894D01*
X140842578Y-23576399D01*
X140628492Y-23476570D01*
X140628486Y-23476567D01*
X140415000Y-23419364D01*
X140415000Y-24137698D01*
X140395315Y-24204737D01*
X140342511Y-24250492D01*
X140273355Y-24260436D01*
X140200766Y-24250000D01*
X140200763Y-24250000D01*
X140129237Y-24250000D01*
X140129233Y-24250000D01*
X140056645Y-24260436D01*
X139987487Y-24250492D01*
X139934684Y-24204736D01*
X139915000Y-24137698D01*
X139915000Y-23419364D01*
X139914999Y-23419364D01*
X139701513Y-23476567D01*
X139701507Y-23476570D01*
X139487422Y-23576399D01*
X139487420Y-23576400D01*
X139293926Y-23711886D01*
X139293920Y-23711891D01*
X139126891Y-23878920D01*
X139126886Y-23878926D01*
X138991400Y-24072420D01*
X138991399Y-24072422D01*
X138900298Y-24267787D01*
X138854125Y-24320226D01*
X138786931Y-24339378D01*
X138720050Y-24319162D01*
X138676916Y-24270653D01*
X138611465Y-24139209D01*
X138482432Y-23968342D01*
X138324206Y-23824101D01*
X138324204Y-23824099D01*
X138142170Y-23711389D01*
X138142164Y-23711387D01*
X137942517Y-23634043D01*
X137732054Y-23594700D01*
X137517946Y-23594700D01*
X137307483Y-23634043D01*
X137181227Y-23682954D01*
X137107835Y-23711387D01*
X137107829Y-23711389D01*
X136925795Y-23824099D01*
X136925793Y-23824101D01*
X136767567Y-23968342D01*
X136638536Y-24139207D01*
X136543104Y-24330859D01*
X136543099Y-24330872D01*
X136484505Y-24536805D01*
X136464751Y-24749999D01*
X136464751Y-24750000D01*
X136484505Y-24963194D01*
X136543099Y-25169127D01*
X136543104Y-25169140D01*
X136638536Y-25360792D01*
X136767567Y-25531657D01*
X136925793Y-25675898D01*
X136925795Y-25675900D01*
X137107829Y-25788610D01*
X137107830Y-25788610D01*
X137107833Y-25788612D01*
X137307483Y-25865957D01*
X137479492Y-25898111D01*
X137541772Y-25929780D01*
X137577045Y-25990092D01*
X137574111Y-26059900D01*
X137533902Y-26117040D01*
X137479492Y-26141888D01*
X137307483Y-26174043D01*
X137181227Y-26222954D01*
X137107835Y-26251387D01*
X137107829Y-26251389D01*
X136925795Y-26364099D01*
X136925793Y-26364101D01*
X136767567Y-26508342D01*
X136638536Y-26679207D01*
X136543104Y-26870859D01*
X136543099Y-26870872D01*
X136484505Y-27076805D01*
X136464751Y-27289999D01*
X136464751Y-27290000D01*
X134645500Y-27290000D01*
X134645500Y-23009500D01*
X134665185Y-22942461D01*
X134717989Y-22896706D01*
X134769500Y-22885500D01*
X152885500Y-22885500D01*
X152952539Y-22905185D01*
G37*
%TD.AperFunction*%
%TA.AperFunction,Conductor*%
G36*
X152145103Y-60064585D02*
G01*
X152196545Y-60095491D01*
X152748211Y-60647158D01*
X152750057Y-60644998D01*
X152779772Y-60596508D01*
X152831584Y-60549633D01*
X152900514Y-60538210D01*
X152964677Y-60565867D01*
X153003701Y-60623823D01*
X153009500Y-60661298D01*
X153009500Y-61689589D01*
X152989815Y-61756628D01*
X152937011Y-61802383D01*
X152867853Y-61812327D01*
X152804297Y-61783302D01*
X152771944Y-61739399D01*
X152692588Y-61558486D01*
X152564190Y-61361957D01*
X152546109Y-61342316D01*
X152405191Y-61189238D01*
X152405185Y-61189233D01*
X152405181Y-61189229D01*
X152404175Y-61188446D01*
X152403869Y-61188022D01*
X152401415Y-61185762D01*
X152401880Y-61185256D01*
X152363364Y-61131734D01*
X152359694Y-61061961D01*
X152394328Y-61001279D01*
X152394647Y-61000989D01*
X152394658Y-61000711D01*
X151840676Y-60446729D01*
X151807191Y-60385406D01*
X151812175Y-60315714D01*
X151854047Y-60259781D01*
X151857876Y-60257027D01*
X151909093Y-60221675D01*
X152016049Y-60100944D01*
X152075237Y-60063819D01*
X152145103Y-60064585D01*
G37*
%TD.AperFunction*%
%TA.AperFunction,Conductor*%
G36*
X152950964Y-57595099D02*
G01*
X152997507Y-57647209D01*
X153009500Y-57700410D01*
X153009500Y-58728701D01*
X152989815Y-58795740D01*
X152937011Y-58841495D01*
X152867853Y-58851439D01*
X152804297Y-58822414D01*
X152779773Y-58793491D01*
X152750062Y-58745008D01*
X152748211Y-58742841D01*
X152196545Y-59294507D01*
X152135222Y-59327992D01*
X152065530Y-59323008D01*
X152016049Y-59289053D01*
X151909095Y-59168327D01*
X151909094Y-59168326D01*
X151909093Y-59168325D01*
X151857915Y-59132999D01*
X151813926Y-59078719D01*
X151806266Y-59009271D01*
X151837369Y-58946706D01*
X151840675Y-58943270D01*
X152394658Y-58389287D01*
X152394512Y-58385575D01*
X152361616Y-58335173D01*
X152361123Y-58265305D01*
X152398482Y-58206262D01*
X152404173Y-58201553D01*
X152405191Y-58200762D01*
X152564188Y-58028045D01*
X152692588Y-57831514D01*
X152771944Y-57650599D01*
X152816900Y-57597114D01*
X152883636Y-57576424D01*
X152950964Y-57595099D01*
G37*
%TD.AperFunction*%
%TD*%
M02*
