%TF.GenerationSoftware,KiCad,Pcbnew,7.0.7*%
%TF.CreationDate,2024-03-17T18:26:36-04:00*%
%TF.ProjectId,Visual80-3,56697375-616c-4383-902d-332e6b696361,rev?*%
%TF.SameCoordinates,Original*%
%TF.FileFunction,Legend,Top*%
%TF.FilePolarity,Positive*%
%FSLAX46Y46*%
G04 Gerber Fmt 4.6, Leading zero omitted, Abs format (unit mm)*
G04 Created by KiCad (PCBNEW 7.0.7) date 2024-03-17 18:26:36*
%MOMM*%
%LPD*%
G01*
G04 APERTURE LIST*
%ADD10C,0.150000*%
%ADD11C,0.120000*%
G04 APERTURE END LIST*
D10*
X141565333Y-66809580D02*
X141517714Y-66857200D01*
X141517714Y-66857200D02*
X141374857Y-66904819D01*
X141374857Y-66904819D02*
X141279619Y-66904819D01*
X141279619Y-66904819D02*
X141136762Y-66857200D01*
X141136762Y-66857200D02*
X141041524Y-66761961D01*
X141041524Y-66761961D02*
X140993905Y-66666723D01*
X140993905Y-66666723D02*
X140946286Y-66476247D01*
X140946286Y-66476247D02*
X140946286Y-66333390D01*
X140946286Y-66333390D02*
X140993905Y-66142914D01*
X140993905Y-66142914D02*
X141041524Y-66047676D01*
X141041524Y-66047676D02*
X141136762Y-65952438D01*
X141136762Y-65952438D02*
X141279619Y-65904819D01*
X141279619Y-65904819D02*
X141374857Y-65904819D01*
X141374857Y-65904819D02*
X141517714Y-65952438D01*
X141517714Y-65952438D02*
X141565333Y-66000057D01*
X141898667Y-65904819D02*
X142517714Y-65904819D01*
X142517714Y-65904819D02*
X142184381Y-66285771D01*
X142184381Y-66285771D02*
X142327238Y-66285771D01*
X142327238Y-66285771D02*
X142422476Y-66333390D01*
X142422476Y-66333390D02*
X142470095Y-66381009D01*
X142470095Y-66381009D02*
X142517714Y-66476247D01*
X142517714Y-66476247D02*
X142517714Y-66714342D01*
X142517714Y-66714342D02*
X142470095Y-66809580D01*
X142470095Y-66809580D02*
X142422476Y-66857200D01*
X142422476Y-66857200D02*
X142327238Y-66904819D01*
X142327238Y-66904819D02*
X142041524Y-66904819D01*
X142041524Y-66904819D02*
X141946286Y-66857200D01*
X141946286Y-66857200D02*
X141898667Y-66809580D01*
X138892319Y-36261904D02*
X139701842Y-36261904D01*
X139701842Y-36261904D02*
X139797080Y-36214285D01*
X139797080Y-36214285D02*
X139844700Y-36166666D01*
X139844700Y-36166666D02*
X139892319Y-36071428D01*
X139892319Y-36071428D02*
X139892319Y-35880952D01*
X139892319Y-35880952D02*
X139844700Y-35785714D01*
X139844700Y-35785714D02*
X139797080Y-35738095D01*
X139797080Y-35738095D02*
X139701842Y-35690476D01*
X139701842Y-35690476D02*
X138892319Y-35690476D01*
X139225652Y-34785714D02*
X139892319Y-34785714D01*
X138844700Y-35023809D02*
X139558985Y-35261904D01*
X139558985Y-35261904D02*
X139558985Y-34642857D01*
X143060595Y-29879819D02*
X143060595Y-30689342D01*
X143060595Y-30689342D02*
X143108214Y-30784580D01*
X143108214Y-30784580D02*
X143155833Y-30832200D01*
X143155833Y-30832200D02*
X143251071Y-30879819D01*
X143251071Y-30879819D02*
X143441547Y-30879819D01*
X143441547Y-30879819D02*
X143536785Y-30832200D01*
X143536785Y-30832200D02*
X143584404Y-30784580D01*
X143584404Y-30784580D02*
X143632023Y-30689342D01*
X143632023Y-30689342D02*
X143632023Y-29879819D01*
X144632023Y-30879819D02*
X144060595Y-30879819D01*
X144346309Y-30879819D02*
X144346309Y-29879819D01*
X144346309Y-29879819D02*
X144251071Y-30022676D01*
X144251071Y-30022676D02*
X144155833Y-30117914D01*
X144155833Y-30117914D02*
X144060595Y-30165533D01*
X141586833Y-44711580D02*
X141539214Y-44759200D01*
X141539214Y-44759200D02*
X141396357Y-44806819D01*
X141396357Y-44806819D02*
X141301119Y-44806819D01*
X141301119Y-44806819D02*
X141158262Y-44759200D01*
X141158262Y-44759200D02*
X141063024Y-44663961D01*
X141063024Y-44663961D02*
X141015405Y-44568723D01*
X141015405Y-44568723D02*
X140967786Y-44378247D01*
X140967786Y-44378247D02*
X140967786Y-44235390D01*
X140967786Y-44235390D02*
X141015405Y-44044914D01*
X141015405Y-44044914D02*
X141063024Y-43949676D01*
X141063024Y-43949676D02*
X141158262Y-43854438D01*
X141158262Y-43854438D02*
X141301119Y-43806819D01*
X141301119Y-43806819D02*
X141396357Y-43806819D01*
X141396357Y-43806819D02*
X141539214Y-43854438D01*
X141539214Y-43854438D02*
X141586833Y-43902057D01*
X141967786Y-43902057D02*
X142015405Y-43854438D01*
X142015405Y-43854438D02*
X142110643Y-43806819D01*
X142110643Y-43806819D02*
X142348738Y-43806819D01*
X142348738Y-43806819D02*
X142443976Y-43854438D01*
X142443976Y-43854438D02*
X142491595Y-43902057D01*
X142491595Y-43902057D02*
X142539214Y-43997295D01*
X142539214Y-43997295D02*
X142539214Y-44092533D01*
X142539214Y-44092533D02*
X142491595Y-44235390D01*
X142491595Y-44235390D02*
X141920167Y-44806819D01*
X141920167Y-44806819D02*
X142539214Y-44806819D01*
X134709819Y-26368333D02*
X135424104Y-26368333D01*
X135424104Y-26368333D02*
X135566961Y-26415952D01*
X135566961Y-26415952D02*
X135662200Y-26511190D01*
X135662200Y-26511190D02*
X135709819Y-26654047D01*
X135709819Y-26654047D02*
X135709819Y-26749285D01*
X135709819Y-25368333D02*
X135709819Y-25939761D01*
X135709819Y-25654047D02*
X134709819Y-25654047D01*
X134709819Y-25654047D02*
X134852676Y-25749285D01*
X134852676Y-25749285D02*
X134947914Y-25844523D01*
X134947914Y-25844523D02*
X134995533Y-25939761D01*
X139004819Y-71761904D02*
X139814342Y-71761904D01*
X139814342Y-71761904D02*
X139909580Y-71714285D01*
X139909580Y-71714285D02*
X139957200Y-71666666D01*
X139957200Y-71666666D02*
X140004819Y-71571428D01*
X140004819Y-71571428D02*
X140004819Y-71380952D01*
X140004819Y-71380952D02*
X139957200Y-71285714D01*
X139957200Y-71285714D02*
X139909580Y-71238095D01*
X139909580Y-71238095D02*
X139814342Y-71190476D01*
X139814342Y-71190476D02*
X139004819Y-71190476D01*
X139004819Y-70809523D02*
X139004819Y-70190476D01*
X139004819Y-70190476D02*
X139385771Y-70523809D01*
X139385771Y-70523809D02*
X139385771Y-70380952D01*
X139385771Y-70380952D02*
X139433390Y-70285714D01*
X139433390Y-70285714D02*
X139481009Y-70238095D01*
X139481009Y-70238095D02*
X139576247Y-70190476D01*
X139576247Y-70190476D02*
X139814342Y-70190476D01*
X139814342Y-70190476D02*
X139909580Y-70238095D01*
X139909580Y-70238095D02*
X139957200Y-70285714D01*
X139957200Y-70285714D02*
X140004819Y-70380952D01*
X140004819Y-70380952D02*
X140004819Y-70666666D01*
X140004819Y-70666666D02*
X139957200Y-70761904D01*
X139957200Y-70761904D02*
X139909580Y-70809523D01*
D11*
%TO.C,C3*%
X141993252Y-65505000D02*
X141470748Y-65505000D01*
X141993252Y-64035000D02*
X141470748Y-64035000D01*
%TO.C,U4*%
X140252500Y-35500000D02*
X140252500Y-39100000D01*
X140252500Y-35500000D02*
X140252500Y-33300000D01*
X147022500Y-35500000D02*
X147022500Y-37700000D01*
X147022500Y-35500000D02*
X147022500Y-33300000D01*
%TO.C,U1*%
X137362500Y-30425000D02*
X137362500Y-81345000D01*
X137362500Y-81345000D02*
X150282500Y-81345000D01*
X142822500Y-30425000D02*
X137362500Y-30425000D01*
X150282500Y-30425000D02*
X144822500Y-30425000D01*
X150282500Y-81345000D02*
X150282500Y-30425000D01*
X142822500Y-30425000D02*
G75*
G03*
X144822500Y-30425000I1000000J0D01*
G01*
%TO.C,C2*%
X142014752Y-43407000D02*
X141492248Y-43407000D01*
X142014752Y-41937000D02*
X141492248Y-41937000D01*
%TO.C,J1*%
X151655000Y-23420000D02*
X136295000Y-23420000D01*
X151655000Y-23420000D02*
X151655000Y-26020000D01*
X136295000Y-23420000D02*
X136295000Y-28620000D01*
X151655000Y-26020000D02*
X149055000Y-26020000D01*
X149055000Y-26020000D02*
X149055000Y-28620000D01*
X151655000Y-27290000D02*
X151655000Y-28620000D01*
X151655000Y-28620000D02*
X150325000Y-28620000D01*
X149055000Y-28620000D02*
X136295000Y-28620000D01*
%TO.C,U3*%
X140390000Y-71000000D02*
X140390000Y-74600000D01*
X140390000Y-71000000D02*
X140390000Y-68800000D01*
X145610000Y-71000000D02*
X145610000Y-73200000D01*
X145610000Y-71000000D02*
X145610000Y-68800000D01*
%TD*%
M02*
