%TF.GenerationSoftware,KiCad,Pcbnew,9.0.2*%
%TF.CreationDate,2025-07-21T05:45:18-04:00*%
%TF.ProjectId,lb-80,6c622d38-302e-46b6-9963-61645f706362,rev?*%
%TF.SameCoordinates,Original*%
%TF.FileFunction,Legend,Bot*%
%TF.FilePolarity,Positive*%
%FSLAX46Y46*%
G04 Gerber Fmt 4.6, Leading zero omitted, Abs format (unit mm)*
G04 Created by KiCad (PCBNEW 9.0.2) date 2025-07-21 05:45:18*
%MOMM*%
%LPD*%
G01*
G04 APERTURE LIST*
%ADD10C,0.150000*%
%ADD11C,0.120000*%
G04 APERTURE END LIST*
D10*
X135538380Y-115758933D02*
X135586000Y-115711314D01*
X135586000Y-115711314D02*
X135633619Y-115568457D01*
X135633619Y-115568457D02*
X135633619Y-115473219D01*
X135633619Y-115473219D02*
X135586000Y-115330362D01*
X135586000Y-115330362D02*
X135490761Y-115235124D01*
X135490761Y-115235124D02*
X135395523Y-115187505D01*
X135395523Y-115187505D02*
X135205047Y-115139886D01*
X135205047Y-115139886D02*
X135062190Y-115139886D01*
X135062190Y-115139886D02*
X134871714Y-115187505D01*
X134871714Y-115187505D02*
X134776476Y-115235124D01*
X134776476Y-115235124D02*
X134681238Y-115330362D01*
X134681238Y-115330362D02*
X134633619Y-115473219D01*
X134633619Y-115473219D02*
X134633619Y-115568457D01*
X134633619Y-115568457D02*
X134681238Y-115711314D01*
X134681238Y-115711314D02*
X134728857Y-115758933D01*
X135633619Y-116711314D02*
X135633619Y-116139886D01*
X135633619Y-116425600D02*
X134633619Y-116425600D01*
X134633619Y-116425600D02*
X134776476Y-116330362D01*
X134776476Y-116330362D02*
X134871714Y-116235124D01*
X134871714Y-116235124D02*
X134919333Y-116139886D01*
X144631580Y-115758933D02*
X144679200Y-115711314D01*
X144679200Y-115711314D02*
X144726819Y-115568457D01*
X144726819Y-115568457D02*
X144726819Y-115473219D01*
X144726819Y-115473219D02*
X144679200Y-115330362D01*
X144679200Y-115330362D02*
X144583961Y-115235124D01*
X144583961Y-115235124D02*
X144488723Y-115187505D01*
X144488723Y-115187505D02*
X144298247Y-115139886D01*
X144298247Y-115139886D02*
X144155390Y-115139886D01*
X144155390Y-115139886D02*
X143964914Y-115187505D01*
X143964914Y-115187505D02*
X143869676Y-115235124D01*
X143869676Y-115235124D02*
X143774438Y-115330362D01*
X143774438Y-115330362D02*
X143726819Y-115473219D01*
X143726819Y-115473219D02*
X143726819Y-115568457D01*
X143726819Y-115568457D02*
X143774438Y-115711314D01*
X143774438Y-115711314D02*
X143822057Y-115758933D01*
X143822057Y-116139886D02*
X143774438Y-116187505D01*
X143774438Y-116187505D02*
X143726819Y-116282743D01*
X143726819Y-116282743D02*
X143726819Y-116520838D01*
X143726819Y-116520838D02*
X143774438Y-116616076D01*
X143774438Y-116616076D02*
X143822057Y-116663695D01*
X143822057Y-116663695D02*
X143917295Y-116711314D01*
X143917295Y-116711314D02*
X144012533Y-116711314D01*
X144012533Y-116711314D02*
X144155390Y-116663695D01*
X144155390Y-116663695D02*
X144726819Y-116092267D01*
X144726819Y-116092267D02*
X144726819Y-116711314D01*
X132967619Y-110358133D02*
X132491428Y-110024800D01*
X132967619Y-109786705D02*
X131967619Y-109786705D01*
X131967619Y-109786705D02*
X131967619Y-110167657D01*
X131967619Y-110167657D02*
X132015238Y-110262895D01*
X132015238Y-110262895D02*
X132062857Y-110310514D01*
X132062857Y-110310514D02*
X132158095Y-110358133D01*
X132158095Y-110358133D02*
X132300952Y-110358133D01*
X132300952Y-110358133D02*
X132396190Y-110310514D01*
X132396190Y-110310514D02*
X132443809Y-110262895D01*
X132443809Y-110262895D02*
X132491428Y-110167657D01*
X132491428Y-110167657D02*
X132491428Y-109786705D01*
X132967619Y-111310514D02*
X132967619Y-110739086D01*
X132967619Y-111024800D02*
X131967619Y-111024800D01*
X131967619Y-111024800D02*
X132110476Y-110929562D01*
X132110476Y-110929562D02*
X132205714Y-110834324D01*
X132205714Y-110834324D02*
X132253333Y-110739086D01*
D11*
%TO.C,C1*%
X136120200Y-115744448D02*
X136120200Y-116266952D01*
X137590200Y-115744448D02*
X137590200Y-116266952D01*
%TO.C,C2*%
X145162600Y-115787448D02*
X145162600Y-116309952D01*
X146632600Y-115787448D02*
X146632600Y-116309952D01*
%TO.C,R1*%
X133427800Y-110297736D02*
X133427800Y-110751864D01*
X134897800Y-110297736D02*
X134897800Y-110751864D01*
%TD*%
M02*
