M48
; DRILL file {KiCad 9.0.2} date 2025-07-21T05:45:21-0400
; FORMAT={-:-/ absolute / metric / decimal}
; #@! TF.CreationDate,2025-07-21T05:45:21-04:00
; #@! TF.GenerationSoftware,Kicad,Pcbnew,9.0.2
; #@! TF.FileFunction,Plated,1,2,PTH
FMAT,2
METRIC
; #@! TA.AperFunction,Plated,PTH,ViaDrill
T1C0.400
; #@! TA.AperFunction,Plated,PTH,ComponentDrill
T2C0.800
; #@! TA.AperFunction,Plated,PTH,ComponentDrill
T3C1.000
%
G90
G05
T1
X126.746Y-112.305
X127.66Y-111.58
X132.131Y-106.934
X133.0Y-120.027
X133.147Y-106.25
X134.163Y-106.985
X136.25Y-108.5
X136.855Y-113.894
X136.957Y-107.645
X138.176Y-113.538
X139.141Y-112.732
X142.5Y-116.5
X143.608Y-106.169
X144.177Y-109.758
X145.898Y-113.944
X145.979Y-112.42
T2
X129.204Y-103.917
X129.204Y-118.917
X131.704Y-103.917
X131.704Y-118.917
X134.204Y-103.917
X134.204Y-118.917
X136.704Y-103.917
X136.704Y-118.917
X139.204Y-103.917
X139.204Y-118.917
X141.704Y-103.917
X141.704Y-118.917
X144.204Y-103.917
X144.204Y-118.917
X146.704Y-103.917
X146.704Y-118.917
T3
X120.396Y-105.029
X120.396Y-107.569
X120.396Y-110.109
X120.396Y-112.649
X120.396Y-115.189
X120.396Y-117.729
X122.936Y-105.029
X122.936Y-107.569
X122.936Y-110.109
X122.936Y-112.649
X122.936Y-115.189
X122.936Y-117.729
M30
