%TF.GenerationSoftware,KiCad,Pcbnew,9.0.2*%
%TF.CreationDate,2025-07-21T05:45:18-04:00*%
%TF.ProjectId,lb-80,6c622d38-302e-46b6-9963-61645f706362,rev?*%
%TF.SameCoordinates,Original*%
%TF.FileFunction,Legend,Top*%
%TF.FilePolarity,Positive*%
%FSLAX46Y46*%
G04 Gerber Fmt 4.6, Leading zero omitted, Abs format (unit mm)*
G04 Created by KiCad (PCBNEW 9.0.2) date 2025-07-21 05:45:18*
%MOMM*%
%LPD*%
G01*
G04 APERTURE LIST*
%ADD10C,0.150000*%
%ADD11C,0.120000*%
G04 APERTURE END LIST*
D10*
X145015179Y-107216580D02*
X145062798Y-107264200D01*
X145062798Y-107264200D02*
X145015179Y-107311819D01*
X145015179Y-107311819D02*
X144967560Y-107264200D01*
X144967560Y-107264200D02*
X145015179Y-107216580D01*
X145015179Y-107216580D02*
X145015179Y-107311819D01*
X125574588Y-106092619D02*
X125003160Y-106092619D01*
X125288874Y-106092619D02*
X125288874Y-105092619D01*
X125288874Y-105092619D02*
X125193636Y-105235476D01*
X125193636Y-105235476D02*
X125098398Y-105330714D01*
X125098398Y-105330714D02*
X125003160Y-105378333D01*
X135515579Y-107267380D02*
X135563198Y-107315000D01*
X135563198Y-107315000D02*
X135515579Y-107362619D01*
X135515579Y-107362619D02*
X135467960Y-107315000D01*
X135467960Y-107315000D02*
X135515579Y-107267380D01*
X135515579Y-107267380D02*
X135515579Y-107362619D01*
X146742379Y-102492180D02*
X146789998Y-102539800D01*
X146789998Y-102539800D02*
X146742379Y-102587419D01*
X146742379Y-102587419D02*
X146694760Y-102539800D01*
X146694760Y-102539800D02*
X146742379Y-102492180D01*
X146742379Y-102492180D02*
X146742379Y-102587419D01*
X119837369Y-121281819D02*
X119361179Y-121281819D01*
X119361179Y-121281819D02*
X119361179Y-120281819D01*
X120504036Y-120758009D02*
X120646893Y-120805628D01*
X120646893Y-120805628D02*
X120694512Y-120853247D01*
X120694512Y-120853247D02*
X120742131Y-120948485D01*
X120742131Y-120948485D02*
X120742131Y-121091342D01*
X120742131Y-121091342D02*
X120694512Y-121186580D01*
X120694512Y-121186580D02*
X120646893Y-121234200D01*
X120646893Y-121234200D02*
X120551655Y-121281819D01*
X120551655Y-121281819D02*
X120170703Y-121281819D01*
X120170703Y-121281819D02*
X120170703Y-120281819D01*
X120170703Y-120281819D02*
X120504036Y-120281819D01*
X120504036Y-120281819D02*
X120599274Y-120329438D01*
X120599274Y-120329438D02*
X120646893Y-120377057D01*
X120646893Y-120377057D02*
X120694512Y-120472295D01*
X120694512Y-120472295D02*
X120694512Y-120567533D01*
X120694512Y-120567533D02*
X120646893Y-120662771D01*
X120646893Y-120662771D02*
X120599274Y-120710390D01*
X120599274Y-120710390D02*
X120504036Y-120758009D01*
X120504036Y-120758009D02*
X120170703Y-120758009D01*
X121170703Y-120900866D02*
X121932608Y-120900866D01*
X122551655Y-120710390D02*
X122456417Y-120662771D01*
X122456417Y-120662771D02*
X122408798Y-120615152D01*
X122408798Y-120615152D02*
X122361179Y-120519914D01*
X122361179Y-120519914D02*
X122361179Y-120472295D01*
X122361179Y-120472295D02*
X122408798Y-120377057D01*
X122408798Y-120377057D02*
X122456417Y-120329438D01*
X122456417Y-120329438D02*
X122551655Y-120281819D01*
X122551655Y-120281819D02*
X122742131Y-120281819D01*
X122742131Y-120281819D02*
X122837369Y-120329438D01*
X122837369Y-120329438D02*
X122884988Y-120377057D01*
X122884988Y-120377057D02*
X122932607Y-120472295D01*
X122932607Y-120472295D02*
X122932607Y-120519914D01*
X122932607Y-120519914D02*
X122884988Y-120615152D01*
X122884988Y-120615152D02*
X122837369Y-120662771D01*
X122837369Y-120662771D02*
X122742131Y-120710390D01*
X122742131Y-120710390D02*
X122551655Y-120710390D01*
X122551655Y-120710390D02*
X122456417Y-120758009D01*
X122456417Y-120758009D02*
X122408798Y-120805628D01*
X122408798Y-120805628D02*
X122361179Y-120900866D01*
X122361179Y-120900866D02*
X122361179Y-121091342D01*
X122361179Y-121091342D02*
X122408798Y-121186580D01*
X122408798Y-121186580D02*
X122456417Y-121234200D01*
X122456417Y-121234200D02*
X122551655Y-121281819D01*
X122551655Y-121281819D02*
X122742131Y-121281819D01*
X122742131Y-121281819D02*
X122837369Y-121234200D01*
X122837369Y-121234200D02*
X122884988Y-121186580D01*
X122884988Y-121186580D02*
X122932607Y-121091342D01*
X122932607Y-121091342D02*
X122932607Y-120900866D01*
X122932607Y-120900866D02*
X122884988Y-120805628D01*
X122884988Y-120805628D02*
X122837369Y-120758009D01*
X122837369Y-120758009D02*
X122742131Y-120710390D01*
X123551655Y-120281819D02*
X123646893Y-120281819D01*
X123646893Y-120281819D02*
X123742131Y-120329438D01*
X123742131Y-120329438D02*
X123789750Y-120377057D01*
X123789750Y-120377057D02*
X123837369Y-120472295D01*
X123837369Y-120472295D02*
X123884988Y-120662771D01*
X123884988Y-120662771D02*
X123884988Y-120900866D01*
X123884988Y-120900866D02*
X123837369Y-121091342D01*
X123837369Y-121091342D02*
X123789750Y-121186580D01*
X123789750Y-121186580D02*
X123742131Y-121234200D01*
X123742131Y-121234200D02*
X123646893Y-121281819D01*
X123646893Y-121281819D02*
X123551655Y-121281819D01*
X123551655Y-121281819D02*
X123456417Y-121234200D01*
X123456417Y-121234200D02*
X123408798Y-121186580D01*
X123408798Y-121186580D02*
X123361179Y-121091342D01*
X123361179Y-121091342D02*
X123313560Y-120900866D01*
X123313560Y-120900866D02*
X123313560Y-120662771D01*
X123313560Y-120662771D02*
X123361179Y-120472295D01*
X123361179Y-120472295D02*
X123408798Y-120377057D01*
X123408798Y-120377057D02*
X123456417Y-120329438D01*
X123456417Y-120329438D02*
X123551655Y-120281819D01*
X127200819Y-112371047D02*
X127200819Y-112847237D01*
X127200819Y-112847237D02*
X126200819Y-112847237D01*
X126677009Y-112037713D02*
X126677009Y-111704380D01*
X127200819Y-111561523D02*
X127200819Y-112037713D01*
X127200819Y-112037713D02*
X126200819Y-112037713D01*
X126200819Y-112037713D02*
X126200819Y-111561523D01*
X127200819Y-111132951D02*
X126200819Y-111132951D01*
X126200819Y-111132951D02*
X126200819Y-110894856D01*
X126200819Y-110894856D02*
X126248438Y-110751999D01*
X126248438Y-110751999D02*
X126343676Y-110656761D01*
X126343676Y-110656761D02*
X126438914Y-110609142D01*
X126438914Y-110609142D02*
X126629390Y-110561523D01*
X126629390Y-110561523D02*
X126772247Y-110561523D01*
X126772247Y-110561523D02*
X126962723Y-110609142D01*
X126962723Y-110609142D02*
X127057961Y-110656761D01*
X127057961Y-110656761D02*
X127153200Y-110751999D01*
X127153200Y-110751999D02*
X127200819Y-110894856D01*
X127200819Y-110894856D02*
X127200819Y-111132951D01*
X127200819Y-109609142D02*
X127200819Y-110180570D01*
X127200819Y-109894856D02*
X126200819Y-109894856D01*
X126200819Y-109894856D02*
X126343676Y-109990094D01*
X126343676Y-109990094D02*
X126438914Y-110085332D01*
X126438914Y-110085332D02*
X126486533Y-110180570D01*
X136084619Y-112047004D02*
X136894142Y-112047004D01*
X136894142Y-112047004D02*
X136989380Y-111999385D01*
X136989380Y-111999385D02*
X137037000Y-111951766D01*
X137037000Y-111951766D02*
X137084619Y-111856528D01*
X137084619Y-111856528D02*
X137084619Y-111666052D01*
X137084619Y-111666052D02*
X137037000Y-111570814D01*
X137037000Y-111570814D02*
X136989380Y-111523195D01*
X136989380Y-111523195D02*
X136894142Y-111475576D01*
X136894142Y-111475576D02*
X136084619Y-111475576D01*
X137084619Y-110475576D02*
X137084619Y-111047004D01*
X137084619Y-110761290D02*
X136084619Y-110761290D01*
X136084619Y-110761290D02*
X136227476Y-110856528D01*
X136227476Y-110856528D02*
X136322714Y-110951766D01*
X136322714Y-110951766D02*
X136370333Y-111047004D01*
X145613019Y-112047004D02*
X146422542Y-112047004D01*
X146422542Y-112047004D02*
X146517780Y-111999385D01*
X146517780Y-111999385D02*
X146565400Y-111951766D01*
X146565400Y-111951766D02*
X146613019Y-111856528D01*
X146613019Y-111856528D02*
X146613019Y-111666052D01*
X146613019Y-111666052D02*
X146565400Y-111570814D01*
X146565400Y-111570814D02*
X146517780Y-111523195D01*
X146517780Y-111523195D02*
X146422542Y-111475576D01*
X146422542Y-111475576D02*
X145613019Y-111475576D01*
X145708257Y-111047004D02*
X145660638Y-110999385D01*
X145660638Y-110999385D02*
X145613019Y-110904147D01*
X145613019Y-110904147D02*
X145613019Y-110666052D01*
X145613019Y-110666052D02*
X145660638Y-110570814D01*
X145660638Y-110570814D02*
X145708257Y-110523195D01*
X145708257Y-110523195D02*
X145803495Y-110475576D01*
X145803495Y-110475576D02*
X145898733Y-110475576D01*
X145898733Y-110475576D02*
X146041590Y-110523195D01*
X146041590Y-110523195D02*
X146613019Y-111094623D01*
X146613019Y-111094623D02*
X146613019Y-110475576D01*
D11*
%TO.C,LED1*%
X127954400Y-101416800D02*
X147954400Y-101416800D01*
X127954400Y-121416800D02*
X127954400Y-101416800D01*
X147594400Y-108500134D02*
X147954400Y-108500134D01*
X147594400Y-114333466D02*
X147594400Y-108500134D01*
X147954400Y-101416800D02*
X147954400Y-102666800D01*
X147954400Y-108500134D02*
X147954400Y-102666800D01*
X147954400Y-114333466D02*
X147594400Y-114333466D01*
X147954400Y-120166800D02*
X147954400Y-114333466D01*
X147954400Y-120166800D02*
X147954400Y-121416800D01*
X147954400Y-121416800D02*
X127954400Y-121416800D01*
%TO.C,U1*%
X130444800Y-111285100D02*
X130444800Y-109085100D01*
X130444800Y-111285100D02*
X130444800Y-113485100D01*
X135914800Y-111285100D02*
X135914800Y-107685100D01*
X135914800Y-111285100D02*
X135914800Y-113485100D01*
%TO.C,J1*%
X119066000Y-103699000D02*
X119066000Y-119059000D01*
X119066000Y-103699000D02*
X121666000Y-103699000D01*
X119066000Y-119059000D02*
X124266000Y-119059000D01*
X121666000Y-103699000D02*
X121666000Y-106299000D01*
X121666000Y-106299000D02*
X124266000Y-106299000D01*
X122936000Y-103699000D02*
X124266000Y-103699000D01*
X124266000Y-103699000D02*
X124266000Y-105029000D01*
X124266000Y-106299000D02*
X124266000Y-119059000D01*
%TO.C,U2*%
X139973200Y-111285100D02*
X139973200Y-109085100D01*
X139973200Y-111285100D02*
X139973200Y-113485100D01*
X145443200Y-111285100D02*
X145443200Y-107685100D01*
X145443200Y-111285100D02*
X145443200Y-113485100D01*
%TD*%
M02*
