%TF.GenerationSoftware,KiCad,Pcbnew,9.0.2*%
%TF.CreationDate,2025-07-21T05:45:18-04:00*%
%TF.ProjectId,lb-80,6c622d38-302e-46b6-9963-61645f706362,rev?*%
%TF.SameCoordinates,Original*%
%TF.FileFunction,Soldermask,Top*%
%TF.FilePolarity,Negative*%
%FSLAX46Y46*%
G04 Gerber Fmt 4.6, Leading zero omitted, Abs format (unit mm)*
G04 Created by KiCad (PCBNEW 9.0.2) date 2025-07-21 05:45:18*
%MOMM*%
%LPD*%
G01*
G04 APERTURE LIST*
G04 Aperture macros list*
%AMRoundRect*
0 Rectangle with rounded corners*
0 $1 Rounding radius*
0 $2 $3 $4 $5 $6 $7 $8 $9 X,Y pos of 4 corners*
0 Add a 4 corners polygon primitive as box body*
4,1,4,$2,$3,$4,$5,$6,$7,$8,$9,$2,$3,0*
0 Add four circle primitives for the rounded corners*
1,1,$1+$1,$2,$3*
1,1,$1+$1,$4,$5*
1,1,$1+$1,$6,$7*
1,1,$1+$1,$8,$9*
0 Add four rect primitives between the rounded corners*
20,1,$1+$1,$2,$3,$4,$5,0*
20,1,$1+$1,$4,$5,$6,$7,0*
20,1,$1+$1,$6,$7,$8,$9,0*
20,1,$1+$1,$8,$9,$2,$3,0*%
G04 Aperture macros list end*
%ADD10C,1.500000*%
%ADD11RoundRect,0.100000X-0.100000X0.637500X-0.100000X-0.637500X0.100000X-0.637500X0.100000X0.637500X0*%
%ADD12R,1.700000X1.700000*%
%ADD13O,1.700000X1.700000*%
G04 APERTURE END LIST*
D10*
%TO.C,LED1*%
X146704400Y-103916800D03*
X144204400Y-103916800D03*
X141704400Y-103916800D03*
X139204400Y-103916800D03*
X136704400Y-103916800D03*
X134204400Y-103916800D03*
X131704400Y-103916800D03*
X129204400Y-103916800D03*
X129204400Y-118916800D03*
X131704400Y-118916800D03*
X134204400Y-118916800D03*
X136704400Y-118916800D03*
X139204400Y-118916800D03*
X141704400Y-118916800D03*
X144204400Y-118916800D03*
X146704400Y-118916800D03*
%TD*%
D11*
%TO.C,U1*%
X135454800Y-108422600D03*
X134804800Y-108422600D03*
X134154800Y-108422600D03*
X133504800Y-108422600D03*
X132854800Y-108422600D03*
X132204800Y-108422600D03*
X131554800Y-108422600D03*
X130904800Y-108422600D03*
X130904800Y-114147600D03*
X131554800Y-114147600D03*
X132204800Y-114147600D03*
X132854800Y-114147600D03*
X133504800Y-114147600D03*
X134154800Y-114147600D03*
X134804800Y-114147600D03*
X135454800Y-114147600D03*
%TD*%
D12*
%TO.C,J1*%
X122936000Y-105029000D03*
D13*
X120396000Y-105029000D03*
X122936000Y-107569000D03*
X120396000Y-107569000D03*
X122936000Y-110109000D03*
X120396000Y-110109000D03*
X122936000Y-112649000D03*
X120396000Y-112649000D03*
X122936000Y-115189000D03*
X120396000Y-115189000D03*
X122936000Y-117729000D03*
X120396000Y-117729000D03*
%TD*%
D11*
%TO.C,U2*%
X144983200Y-108422600D03*
X144333200Y-108422600D03*
X143683200Y-108422600D03*
X143033200Y-108422600D03*
X142383200Y-108422600D03*
X141733200Y-108422600D03*
X141083200Y-108422600D03*
X140433200Y-108422600D03*
X140433200Y-114147600D03*
X141083200Y-114147600D03*
X141733200Y-114147600D03*
X142383200Y-114147600D03*
X143033200Y-114147600D03*
X143683200Y-114147600D03*
X144333200Y-114147600D03*
X144983200Y-114147600D03*
%TD*%
M02*
